<ttFont>
<head>
    <!-- Most of this table will be recalculated by the compiler -->
    <tableVersion value="1.0"/>
    <fontRevision value="4.00299"/>
    <checkSumAdjustment value="0xed1cc0af"/>
    <magicNumber value="0x5f0f3cf5"/>
    <flags value="00000000 00000011"/>
    <unitsPerEm value="1000"/>
    <created value="Tue Mar  5 22:33:27 2019"/>
    <modified value="Tue Mar  5 14:33:29 2019"/>
    <xMin value="-520"/>
    <yMin value="-553"/>
    <xMax value="2620"/>
    <yMax value="1040"/>
    <macStyle value="00000000 00000000"/>
    <lowestRecPPEM value="7"/>
    <fontDirectionHint value="2"/>
    <indexToLocFormat value="0"/>
    <glyphDataFormat value="0"/>
  </head>
    <TTGlyph name=".notdef" xMin="0" yMin="0" xMax="500" yMax="700">
      <contour>
        <pt x="0" y="700" on="1"/>
        <pt x="500" y="700" on="1"/>
        <pt x="500" y="0" on="1"/>
        <pt x="0" y="0" on="1"/>
      </contour>
      <contour>
        <pt x="420" y="650" on="1"/>
        <pt x="80" y="650" on="1"/>
        <pt x="250" y="395" on="1"/>
      </contour>
      <contour>
        <pt x="50" y="95" on="1"/>
        <pt x="220" y="350" on="1"/>
        <pt x="50" y="605" on="1"/>
      </contour>
      <contour>
        <pt x="450" y="95" on="1"/>
        <pt x="450" y="605" on="1"/>
        <pt x="280" y="350" on="1"/>
      </contour>
      <contour>
        <pt x="420" y="50" on="1"/>
        <pt x="250" y="305" on="1"/>
        <pt x="80" y="50" on="1"/>
      </contour>
    </TTGlyph>
    <TTGlyph name="A" xMin="31" yMin="0" xMax="596" yMax="686">
      <contour>
        <pt x="480" y="180" on="1"/>
        <pt x="147" y="180" on="1"/>
        <pt x="80" y="0" on="1"/>
        <pt x="31" y="0" on="1"/>
        <pt x="289" y="686" on="1"/>
        <pt x="339" y="686" on="1"/>
        <pt x="596" y="0" on="1"/>
        <pt x="547" y="0" on="1"/>
      </contour>
      <contour>
        <pt x="466" y="218" on="1"/>
        <pt x="314" y="627" on="1"/>
        <pt x="161" y="218" on="1"/>
      </contour>
    </TTGlyph>
    <TTGlyph name="AE" xMin="11" yMin="0" xMax="805" yMax="702">
      <contour>
        <pt x="496" y="665" on="1"/>
        <pt x="496" y="370" on="1"/>
        <pt x="775" y="370" on="1"/>
        <pt x="775" y="334" on="1"/>
        <pt x="496" y="334" on="1"/>
        <pt x="496" y="37" on="1"/>
        <pt x="805" y="37" on="1"/>
        <pt x="805" y="0" on="1"/>
        <pt x="451" y="0" on="1"/>
        <pt x="451" y="180" on="1"/>
        <pt x="168" y="180" on="1"/>
        <pt x="60" y="0" on="1"/>
        <pt x="11" y="0" on="1"/>
        <pt x="430" y="702" on="1"/>
        <pt x="805" y="702" on="1"/>
        <pt x="805" y="665" on="1"/>
      </contour>
      <contour>
        <pt x="451" y="217" on="1"/>
        <pt x="451" y="654" on="1"/>
        <pt x="190" y="217" on="1"/>
      </contour>
    </TTGlyph>
    <TTGlyph name="Aacute" xMin="31" yMin="0" xMax="596" yMax="899">
      <component glyphName="A" x="0" y="0" flags="0x0"/>
      <component glyphName="acute" x="172" y="144" flags="0x4"/>
    </TTGlyph>
    <TTGlyph name="Abreve" xMin="31" yMin="0" xMax="596" yMax="877">
      <component glyphName="A" x="0" y="0" flags="0x0"/>
      <component glyphName="breve" x="155" y="144" flags="0x4"/>
    </TTGlyph>
    <TTGlyph name="Acircumflex" xMin="31" yMin="0" xMax="596" yMax="876">
      <component glyphName="A" x="0" y="0" flags="0x0"/>
      <component glyphName="circumflex" x="153" y="144" flags="0x4"/>
    </TTGlyph>
    <TTGlyph name="Adieresis" xMin="31" yMin="0" xMax="596" yMax="845">
      <component glyphName="A" x="0" y="0" flags="0x0"/>
      <component glyphName="dieresis" x="156" y="144" flags="0x4"/>
    </TTGlyph>
    <TTGlyph name="Agrave" xMin="31" yMin="0" xMax="596" yMax="899">
      <component glyphName="A" x="0" y="0" flags="0x0"/>
      <component glyphName="grave" x="172" y="144" flags="0x4"/>
    </TTGlyph>
    <TTGlyph name="Amacron" xMin="31" yMin="0" xMax="596" yMax="832">
      <component glyphName="A" x="0" y="0" flags="0x0"/>
      <component glyphName="macron" x="119" y="144" flags="0x4"/>
    </TTGlyph>
    <TTGlyph name="Aogonek" xMin="31" yMin="-196" xMax="596" yMax="686">
      <contour>
        <pt x="463" y="-135" on="0"/>
        <pt x="499" y="-162" on="0"/>
        <pt x="529" y="-162" on="1"/>
        <pt x="558" y="-162" on="0"/>
        <pt x="592" y="-149" on="1"/>
        <pt x="592" y="-183" on="1"/>
        <pt x="558" y="-196" on="0"/>
        <pt x="525" y="-196" on="1"/>
        <pt x="481" y="-196" on="0"/>
        <pt x="424" y="-154" on="0"/>
        <pt x="424" y="-113" on="1"/>
        <pt x="424" y="-45" on="0"/>
        <pt x="521" y="-1" on="1"/>
        <pt x="544" y="9" on="1"/>
        <pt x="480" y="180" on="1"/>
        <pt x="147" y="180" on="1"/>
        <pt x="80" y="0" on="1"/>
        <pt x="31" y="0" on="1"/>
        <pt x="289" y="686" on="1"/>
        <pt x="339" y="686" on="1"/>
        <pt x="596" y="0" on="1"/>
        <pt x="530" y="-31" on="1"/>
        <pt x="463" y="-62" on="0"/>
        <pt x="463" y="-109" on="1"/>
      </contour>
      <contour>
        <pt x="466" y="218" on="1"/>
        <pt x="314" y="627" on="1"/>
        <pt x="161" y="218" on="1"/>
      </contour>
    </TTGlyph>
    <TTGlyph name="Aring" xMin="31" yMin="0" xMax="596" yMax="947">
      <component glyphName="A" x="0" y="0" flags="0x0"/>
      <component glyphName="ring" x="187" y="144" flags="0x4"/>
    </TTGlyph>
    <TTGlyph name="Atilde" xMin="31" yMin="0" xMax="596" yMax="829">
      <component glyphName="A" x="0" y="0" flags="0x0"/>
      <component glyphName="tilde" x="168" y="144" flags="0x4"/>
    </TTGlyph>
    <TTGlyph name="B" xMin="82" yMin="0" xMax="529" yMax="702">
      <contour>
        <pt x="446" y="352" on="0"/>
        <pt x="529" y="254" on="0"/>
        <pt x="529" y="188" on="1"/>
        <pt x="529" y="134" on="0"/>
        <pt x="478" y="49" on="0"/>
        <pt x="377" y="0" on="0"/>
        <pt x="305" y="0" on="1"/>
        <pt x="82" y="0" on="1"/>
        <pt x="82" y="702" on="1"/>
        <pt x="301" y="702" on="1"/>
        <pt x="406" y="702" on="0"/>
        <pt x="513" y="605" on="0"/>
        <pt x="513" y="528" on="1"/>
        <pt x="513" y="461" on="0"/>
        <pt x="441" y="378" on="0"/>
        <pt x="385" y="363" on="1"/>
      </contour>
      <contour>
        <pt x="127" y="383" on="1"/>
        <pt x="303" y="383" on="1"/>
        <pt x="382" y="383" on="0"/>
        <pt x="467" y="458" on="0"/>
        <pt x="467" y="524" on="1"/>
        <pt x="467" y="588" on="0"/>
        <pt x="383" y="662" on="0"/>
        <pt x="298" y="662" on="1"/>
        <pt x="127" y="662" on="1"/>
      </contour>
      <contour>
        <pt x="387" y="39" on="0"/>
        <pt x="484" y="120" on="0"/>
        <pt x="484" y="191" on="1"/>
        <pt x="484" y="261" on="0"/>
        <pt x="385" y="344" on="0"/>
        <pt x="299" y="344" on="1"/>
        <pt x="127" y="344" on="1"/>
        <pt x="127" y="39" on="1"/>
        <pt x="302" y="39" on="1"/>
      </contour>
    </TTGlyph>
    <TTGlyph name="C" xMin="54" yMin="-7" xMax="711" yMax="709">
      <contour>
        <pt x="54" y="454" on="0"/>
        <pt x="141" y="617" on="0"/>
        <pt x="294" y="709" on="0"/>
        <pt x="389" y="709" on="1"/>
        <pt x="509" y="709" on="0"/>
        <pt x="673" y="597" on="0"/>
        <pt x="711" y="496" on="1"/>
        <pt x="659" y="496" on="1"/>
        <pt x="629" y="576" on="0"/>
        <pt x="490" y="669" on="0"/>
        <pt x="389" y="669" on="1"/>
        <pt x="308" y="669" on="0"/>
        <pt x="176" y="592" on="0"/>
        <pt x="100" y="447" on="0"/>
        <pt x="100" y="350" on="1"/>
        <pt x="100" y="254" on="0"/>
        <pt x="176" y="111" on="0"/>
        <pt x="308" y="33" on="0"/>
        <pt x="389" y="33" on="1"/>
        <pt x="490" y="33" on="0"/>
        <pt x="629" y="126" on="0"/>
        <pt x="659" y="206" on="1"/>
        <pt x="711" y="206" on="1"/>
        <pt x="673" y="105" on="0"/>
        <pt x="509" y="-7" on="0"/>
        <pt x="389" y="-7" on="1"/>
        <pt x="294" y="-7" on="0"/>
        <pt x="141" y="84" on="0"/>
        <pt x="54" y="247" on="0"/>
        <pt x="54" y="350" on="1"/>
      </contour>
    </TTGlyph>
    <TTGlyph name="Cacute" xMin="54" yMin="-7" xMax="711" yMax="901">
      <component glyphName="C" x="0" y="0" flags="0x0"/>
      <component glyphName="acute" x="264" y="146" flags="0x4"/>
    </TTGlyph>
    <TTGlyph name="Ccaron" xMin="54" yMin="-7" xMax="711" yMax="876">
      <component glyphName="C" x="0" y="0" flags="0x0"/>
      <component glyphName="caron" x="245" y="146" flags="0x4"/>
    </TTGlyph>
    <TTGlyph name="Ccedilla" xMin="54" yMin="-256" xMax="711" yMax="709">
      <contour>
        <pt x="490" y="33" on="0"/>
        <pt x="629" y="126" on="0"/>
        <pt x="659" y="206" on="1"/>
        <pt x="711" y="206" on="1"/>
        <pt x="676" y="113" on="0"/>
        <pt x="530" y="2" on="0"/>
        <pt x="424" y="-6" on="1"/>
        <pt x="424" y="-78" on="1"/>
        <pt x="485" y="-75" on="0"/>
        <pt x="551" y="-120" on="0"/>
        <pt x="551" y="-164" on="1"/>
        <pt x="551" y="-206" on="0"/>
        <pt x="492" y="-256" on="0"/>
        <pt x="439" y="-256" on="1"/>
        <pt x="358" y="-256" on="1"/>
        <pt x="358" y="-223" on="1"/>
        <pt x="431" y="-223" on="1"/>
        <pt x="474" y="-223" on="0"/>
        <pt x="511" y="-193" on="0"/>
        <pt x="511" y="-164" on="1"/>
        <pt x="511" y="-109" on="0"/>
        <pt x="431" y="-109" on="1"/>
        <pt x="389" y="-109" on="1"/>
        <pt x="389" y="-7" on="1"/>
        <pt x="294" y="-7" on="0"/>
        <pt x="141" y="84" on="0"/>
        <pt x="54" y="247" on="0"/>
        <pt x="54" y="350" on="1"/>
        <pt x="54" y="454" on="0"/>
        <pt x="141" y="617" on="0"/>
        <pt x="294" y="709" on="0"/>
        <pt x="389" y="709" on="1"/>
        <pt x="509" y="709" on="0"/>
        <pt x="673" y="597" on="0"/>
        <pt x="711" y="496" on="1"/>
        <pt x="659" y="496" on="1"/>
        <pt x="629" y="576" on="0"/>
        <pt x="490" y="669" on="0"/>
        <pt x="389" y="669" on="1"/>
        <pt x="308" y="669" on="0"/>
        <pt x="176" y="592" on="0"/>
        <pt x="100" y="447" on="0"/>
        <pt x="100" y="350" on="1"/>
        <pt x="100" y="254" on="0"/>
        <pt x="176" y="111" on="0"/>
        <pt x="308" y="33" on="0"/>
        <pt x="389" y="33" on="1"/>
      </contour>
    </TTGlyph>
    <TTGlyph name="Cdotaccent" xMin="54" yMin="-7" xMax="711" yMax="831">
      <component glyphName="C" x="0" y="0" flags="0x0"/>
      <component glyphName="dotaccent" x="331" y="130" flags="0x4"/>
    </TTGlyph>
    <TTGlyph name="D" xMin="82" yMin="0" xMax="650" yMax="702">
      <contour>
        <pt x="457" y="702" on="0"/>
        <pt x="650" y="516" on="0"/>
        <pt x="650" y="350" on="1"/>
        <pt x="650" y="184" on="0"/>
        <pt x="457" y="0" on="0"/>
        <pt x="279" y="0" on="1"/>
        <pt x="82" y="0" on="1"/>
        <pt x="82" y="702" on="1"/>
        <pt x="279" y="702" on="1"/>
      </contour>
      <contour>
        <pt x="438" y="38" on="0"/>
        <pt x="604" y="203" on="0"/>
        <pt x="604" y="350" on="1"/>
        <pt x="604" y="498" on="0"/>
        <pt x="438" y="664" on="0"/>
        <pt x="279" y="664" on="1"/>
        <pt x="127" y="664" on="1"/>
        <pt x="127" y="38" on="1"/>
        <pt x="279" y="38" on="1"/>
      </contour>
    </TTGlyph>
    <TTGlyph name="Dcaron" xMin="82" yMin="0" xMax="650" yMax="874">
      <component glyphName="D" x="0" y="0" flags="0x0"/>
      <component glyphName="caron" x="183" y="144" flags="0x4"/>
    </TTGlyph>
    <TTGlyph name="Dcroat" xMin="10" yMin="0" xMax="682" yMax="702">
      <component glyphName="Eth" x="0" y="0" flags="0x0"/>
    </TTGlyph>
    <TTGlyph name="E" xMin="82" yMin="0" xMax="437" yMax="702">
      <contour>
        <pt x="127" y="664" on="1"/>
        <pt x="127" y="371" on="1"/>
        <pt x="407" y="371" on="1"/>
        <pt x="407" y="333" on="1"/>
        <pt x="127" y="333" on="1"/>
        <pt x="127" y="38" on="1"/>
        <pt x="437" y="38" on="1"/>
        <pt x="437" y="0" on="1"/>
        <pt x="82" y="0" on="1"/>
        <pt x="82" y="702" on="1"/>
        <pt x="437" y="702" on="1"/>
        <pt x="437" y="664" on="1"/>
      </contour>
    </TTGlyph>
    <TTGlyph name="Eacute" xMin="82" yMin="0" xMax="437" yMax="899">
      <component glyphName="E" x="0" y="0" flags="0x0"/>
      <component glyphName="acute" x="99" y="144" flags="0x4"/>
    </TTGlyph>
    <TTGlyph name="Ebreve" xMin="82" yMin="0" xMax="437" yMax="877">
      <component glyphName="E" x="0" y="0" flags="0x0"/>
      <component glyphName="breve" x="82" y="144" flags="0x4"/>
    </TTGlyph>
    <TTGlyph name="Ecaron" xMin="82" yMin="0" xMax="437" yMax="874">
      <component glyphName="E" x="0" y="0" flags="0x0"/>
      <component glyphName="caron" x="80" y="144" flags="0x4"/>
    </TTGlyph>
    <TTGlyph name="Ecircumflex" xMin="82" yMin="0" xMax="437" yMax="876">
      <component glyphName="E" x="0" y="0" flags="0x0"/>
      <component glyphName="circumflex" x="80" y="144" flags="0x4"/>
    </TTGlyph>
    <TTGlyph name="Edieresis" xMin="82" yMin="0" xMax="437" yMax="845">
      <component glyphName="E" x="0" y="0" flags="0x0"/>
      <component glyphName="dieresis" x="83" y="144" flags="0x4"/>
    </TTGlyph>
    <TTGlyph name="Edotaccent" xMin="82" yMin="0" xMax="437" yMax="828">
      <component glyphName="E" x="0" y="0" flags="0x0"/>
      <component glyphName="dotaccent" x="166" y="127" flags="0x4"/>
    </TTGlyph>
    <TTGlyph name="Egrave" xMin="82" yMin="0" xMax="437" yMax="899">
      <component glyphName="E" x="0" y="0" flags="0x0"/>
      <component glyphName="grave" x="99" y="144" flags="0x4"/>
    </TTGlyph>
    <TTGlyph name="Emacron" xMin="78" yMin="0" xMax="437" yMax="832">
      <component glyphName="E" x="0" y="0" flags="0x0"/>
      <component glyphName="macron" x="46" y="144" flags="0x4"/>
    </TTGlyph>
    <TTGlyph name="Eogonek" xMin="82" yMin="-196" xMax="437" yMax="702">
      <contour>
        <pt x="127" y="664" on="1"/>
        <pt x="127" y="371" on="1"/>
        <pt x="407" y="371" on="1"/>
        <pt x="407" y="333" on="1"/>
        <pt x="127" y="333" on="1"/>
        <pt x="127" y="38" on="1"/>
        <pt x="437" y="38" on="1"/>
        <pt x="437" y="0" on="1"/>
        <pt x="371" y="-31" on="1"/>
        <pt x="305" y="-61" on="0"/>
        <pt x="305" y="-109" on="1"/>
        <pt x="305" y="-135" on="0"/>
        <pt x="340" y="-162" on="0"/>
        <pt x="370" y="-162" on="1"/>
        <pt x="398" y="-162" on="0"/>
        <pt x="434" y="-149" on="1"/>
        <pt x="434" y="-183" on="1"/>
        <pt x="398" y="-196" on="0"/>
        <pt x="366" y="-196" on="1"/>
        <pt x="322" y="-196" on="0"/>
        <pt x="265" y="-154" on="0"/>
        <pt x="265" y="-113" on="1"/>
        <pt x="265" y="-45" on="0"/>
        <pt x="362" y="-1" on="1"/>
        <pt x="364" y="0" on="1"/>
        <pt x="82" y="0" on="1"/>
        <pt x="82" y="702" on="1"/>
        <pt x="437" y="702" on="1"/>
        <pt x="437" y="664" on="1"/>
      </contour>
    </TTGlyph>
    <TTGlyph name="Eth" xMin="10" yMin="0" xMax="682" yMax="702">
      <contour>
        <pt x="489" y="702" on="0"/>
        <pt x="682" y="516" on="0"/>
        <pt x="682" y="350" on="1"/>
        <pt x="682" y="184" on="0"/>
        <pt x="489" y="0" on="0"/>
        <pt x="311" y="0" on="1"/>
        <pt x="115" y="0" on="1"/>
        <pt x="115" y="330" on="1"/>
        <pt x="10" y="330" on="1"/>
        <pt x="10" y="371" on="1"/>
        <pt x="115" y="371" on="1"/>
        <pt x="115" y="702" on="1"/>
        <pt x="311" y="702" on="1"/>
      </contour>
      <contour>
        <pt x="471" y="36" on="0"/>
        <pt x="636" y="202" on="0"/>
        <pt x="636" y="350" on="1"/>
        <pt x="636" y="498" on="0"/>
        <pt x="471" y="664" on="0"/>
        <pt x="311" y="664" on="1"/>
        <pt x="160" y="664" on="1"/>
        <pt x="160" y="371" on="1"/>
        <pt x="378" y="371" on="1"/>
        <pt x="378" y="330" on="1"/>
        <pt x="160" y="330" on="1"/>
        <pt x="160" y="36" on="1"/>
        <pt x="311" y="36" on="1"/>
      </contour>
    </TTGlyph>
    <TTGlyph name="Euro" xMin="22" yMin="-7" xMax="776" yMax="709">
      <contour>
        <pt x="556" y="34" on="0"/>
        <pt x="694" y="127" on="0"/>
        <pt x="725" y="206" on="1"/>
        <pt x="776" y="206" on="1"/>
        <pt x="738" y="105" on="0"/>
        <pt x="575" y="-7" on="0"/>
        <pt x="455" y="-7" on="1"/>
        <pt x="377" y="-7" on="0"/>
        <pt x="245" y="56" on="0"/>
        <pt x="152" y="170" on="0"/>
        <pt x="133" y="246" on="1"/>
        <pt x="22" y="246" on="1"/>
        <pt x="22" y="280" on="1"/>
        <pt x="126" y="280" on="1"/>
        <pt x="120" y="313" on="0"/>
        <pt x="120" y="350" on="1"/>
        <pt x="120" y="383" on="0"/>
        <pt x="124" y="408" on="1"/>
        <pt x="22" y="408" on="1"/>
        <pt x="22" y="442" on="1"/>
        <pt x="130" y="442" on="1"/>
        <pt x="147" y="522" on="0"/>
        <pt x="239" y="643" on="0"/>
        <pt x="374" y="709" on="0"/>
        <pt x="455" y="709" on="1"/>
        <pt x="575" y="709" on="0"/>
        <pt x="738" y="597" on="0"/>
        <pt x="776" y="496" on="1"/>
        <pt x="725" y="496" on="1"/>
        <pt x="694" y="575" on="0"/>
        <pt x="556" y="668" on="0"/>
        <pt x="455" y="668" on="1"/>
        <pt x="352" y="668" on="0"/>
        <pt x="201" y="548" on="0"/>
        <pt x="177" y="442" on="1"/>
        <pt x="457" y="442" on="1"/>
        <pt x="457" y="408" on="1"/>
        <pt x="171" y="408" on="1"/>
        <pt x="167" y="384" on="0"/>
        <pt x="167" y="350" on="1"/>
        <pt x="167" y="313" on="0"/>
        <pt x="173" y="280" on="1"/>
        <pt x="457" y="280" on="1"/>
        <pt x="457" y="246" on="1"/>
        <pt x="180" y="246" on="1"/>
        <pt x="207" y="147" on="0"/>
        <pt x="356" y="34" on="0"/>
        <pt x="455" y="34" on="1"/>
      </contour>
    </TTGlyph>
    <TTGlyph name="F" xMin="82" yMin="0" xMax="444" yMax="702">
      <contour>
        <pt x="444" y="702" on="1"/>
        <pt x="444" y="664" on="1"/>
        <pt x="127" y="664" on="1"/>
        <pt x="127" y="371" on="1"/>
        <pt x="404" y="371" on="1"/>
        <pt x="404" y="333" on="1"/>
        <pt x="127" y="333" on="1"/>
        <pt x="127" y="0" on="1"/>
        <pt x="82" y="0" on="1"/>
        <pt x="82" y="702" on="1"/>
      </contour>
    </TTGlyph>
    <TTGlyph name="G" xMin="54" yMin="-7" xMax="733" yMax="708">
      <contour>
        <pt x="659" y="495" on="1"/>
        <pt x="629" y="574" on="0"/>
        <pt x="490" y="668" on="0"/>
        <pt x="395" y="668" on="1"/>
        <pt x="312" y="668" on="0"/>
        <pt x="178" y="590" on="0"/>
        <pt x="100" y="446" on="0"/>
        <pt x="100" y="350" on="1"/>
        <pt x="100" y="254" on="0"/>
        <pt x="178" y="110" on="0"/>
        <pt x="312" y="33" on="0"/>
        <pt x="395" y="33" on="1"/>
        <pt x="475" y="33" on="0"/>
        <pt x="605" y="105" on="0"/>
        <pt x="683" y="238" on="0"/>
        <pt x="687" y="327" on="1"/>
        <pt x="374" y="327" on="1"/>
        <pt x="374" y="365" on="1"/>
        <pt x="733" y="365" on="1"/>
        <pt x="733" y="335" on="1"/>
        <pt x="730" y="237" on="0"/>
        <pt x="642" y="81" on="0"/>
        <pt x="490" y="-7" on="0"/>
        <pt x="395" y="-7" on="1"/>
        <pt x="298" y="-7" on="0"/>
        <pt x="142" y="84" on="0"/>
        <pt x="54" y="247" on="0"/>
        <pt x="54" y="350" on="1"/>
        <pt x="54" y="454" on="0"/>
        <pt x="142" y="617" on="0"/>
        <pt x="298" y="708" on="0"/>
        <pt x="395" y="708" on="1"/>
        <pt x="508" y="708" on="0"/>
        <pt x="673" y="595" on="0"/>
        <pt x="711" y="495" on="1"/>
      </contour>
    </TTGlyph>
    <TTGlyph name="Gbreve" xMin="54" yMin="-7" xMax="733" yMax="877">
      <component glyphName="G" x="0" y="0" flags="0x0"/>
      <component glyphName="breve" x="246" y="144" flags="0x4"/>
    </TTGlyph>
    <TTGlyph name="Gdotaccent" xMin="54" yMin="-7" xMax="733" yMax="828">
      <component glyphName="G" x="0" y="0" flags="0x0"/>
      <component glyphName="dotaccent" x="329" y="127" flags="0x4"/>
    </TTGlyph>
    <TTGlyph name="H" xMin="82" yMin="0" xMax="582" yMax="702">
      <contour>
        <pt x="582" y="702" on="1"/>
        <pt x="582" y="0" on="1"/>
        <pt x="537" y="0" on="1"/>
        <pt x="537" y="340" on="1"/>
        <pt x="127" y="340" on="1"/>
        <pt x="127" y="0" on="1"/>
        <pt x="82" y="0" on="1"/>
        <pt x="82" y="702" on="1"/>
        <pt x="127" y="702" on="1"/>
        <pt x="127" y="378" on="1"/>
        <pt x="537" y="378" on="1"/>
        <pt x="537" y="702" on="1"/>
      </contour>
    </TTGlyph>
    <TTGlyph name="I" xMin="82" yMin="0" xMax="127" yMax="702">
      <contour>
        <pt x="127" y="702" on="1"/>
        <pt x="127" y="0" on="1"/>
        <pt x="82" y="0" on="1"/>
        <pt x="82" y="702" on="1"/>
      </contour>
    </TTGlyph>
    <TTGlyph name="Iacute" xMin="-5" yMin="0" xMax="191" yMax="899">
      <component glyphName="I" x="0" y="0" flags="0x0"/>
      <component glyphName="acute" x="-37" y="144" flags="0x4"/>
    </TTGlyph>
    <TTGlyph name="Icircumflex" xMin="-24" yMin="0" xMax="233" yMax="876">
      <component glyphName="I" x="0" y="0" flags="0x0"/>
      <component glyphName="circumflex" x="-56" y="144" flags="0x4"/>
    </TTGlyph>
    <TTGlyph name="Idieresis" xMin="-4" yMin="0" xMax="215" yMax="845">
      <component glyphName="I" x="0" y="0" flags="0x0"/>
      <component glyphName="dieresis" x="-53" y="144" flags="0x4"/>
    </TTGlyph>
    <TTGlyph name="Idotaccent" xMin="67" yMin="0" xMax="143" yMax="828">
      <component glyphName="I" x="0" y="0" flags="0x0"/>
      <component glyphName="dotaccent" x="30" y="127" flags="0x4"/>
    </TTGlyph>
    <TTGlyph name="Igrave" xMin="-5" yMin="0" xMax="191" yMax="899">
      <component glyphName="I" x="0" y="0" flags="0x0"/>
      <component glyphName="grave" x="-37" y="144" flags="0x4"/>
    </TTGlyph>
    <TTGlyph name="Imacron" xMin="-58" yMin="0" xMax="266" yMax="832">
      <component glyphName="I" x="0" y="0" flags="0x0"/>
      <component glyphName="macron" x="-90" y="144" flags="0x4"/>
    </TTGlyph>
    <TTGlyph name="Iogonek" xMin="-45" yMin="-196" xMax="127" yMax="702">
      <contour>
        <pt x="-5" y="-61" on="0"/>
        <pt x="-5" y="-109" on="1"/>
        <pt x="-5" y="-135" on="0"/>
        <pt x="30" y="-162" on="0"/>
        <pt x="60" y="-162" on="1"/>
        <pt x="88" y="-162" on="0"/>
        <pt x="124" y="-149" on="1"/>
        <pt x="124" y="-183" on="1"/>
        <pt x="88" y="-196" on="0"/>
        <pt x="56" y="-196" on="1"/>
        <pt x="12" y="-196" on="0"/>
        <pt x="-45" y="-154" on="0"/>
        <pt x="-45" y="-113" on="1"/>
        <pt x="-45" y="-45" on="0"/>
        <pt x="52" y="-1" on="1"/>
        <pt x="82" y="12" on="1"/>
        <pt x="82" y="702" on="1"/>
        <pt x="127" y="702" on="1"/>
        <pt x="127" y="0" on="1"/>
        <pt x="61" y="-31" on="1"/>
      </contour>
    </TTGlyph>
    <TTGlyph name="Itilde" xMin="-9" yMin="0" xMax="249" yMax="829">
      <component glyphName="I" x="0" y="0" flags="0x0"/>
      <component glyphName="tilde" x="-41" y="144" flags="0x4"/>
    </TTGlyph>
    <TTGlyph name="J" xMin="34" yMin="-7" xMax="375" yMax="702">
      <contour>
        <pt x="375" y="702" on="1"/>
        <pt x="375" y="157" on="1"/>
        <pt x="375" y="84" on="0"/>
        <pt x="285" y="-7" on="0"/>
        <pt x="208" y="-7" on="1"/>
        <pt x="127" y="-7" on="0"/>
        <pt x="34" y="92" on="0"/>
        <pt x="34" y="179" on="1"/>
        <pt x="79" y="179" on="1"/>
        <pt x="79" y="115" on="0"/>
        <pt x="141" y="33" on="0"/>
        <pt x="208" y="33" on="1"/>
        <pt x="272" y="33" on="0"/>
        <pt x="329" y="106" on="0"/>
        <pt x="329" y="157" on="1"/>
        <pt x="329" y="702" on="1"/>
      </contour>
    </TTGlyph>
    <TTGlyph name="K" xMin="82" yMin="0" xMax="509" yMax="702">
      <contour>
        <pt x="450" y="0" on="1"/>
        <pt x="127" y="331" on="1"/>
        <pt x="127" y="0" on="1"/>
        <pt x="82" y="0" on="1"/>
        <pt x="82" y="702" on="1"/>
        <pt x="127" y="702" on="1"/>
        <pt x="127" y="368" on="1"/>
        <pt x="450" y="702" on="1"/>
        <pt x="508" y="702" on="1"/>
        <pt x="166" y="350" on="1"/>
        <pt x="509" y="0" on="1"/>
      </contour>
    </TTGlyph>
    <TTGlyph name="L" xMin="82" yMin="0" xMax="388" yMax="702">
      <contour>
        <pt x="127" y="38" on="1"/>
        <pt x="388" y="38" on="1"/>
        <pt x="388" y="0" on="1"/>
        <pt x="82" y="0" on="1"/>
        <pt x="82" y="702" on="1"/>
        <pt x="127" y="702" on="1"/>
      </contour>
    </TTGlyph>
    <TTGlyph name="Lacute" xMin="82" yMin="0" xMax="388" yMax="899">
      <component glyphName="L" x="0" y="0" flags="0x0"/>
      <component glyphName="acute" x="65" y="144" flags="0x4"/>
    </TTGlyph>
    <TTGlyph name="Lcaron" xMin="82" yMin="0" xMax="388" yMax="702">
      <contour>
        <pt x="127" y="38" on="1"/>
        <pt x="388" y="38" on="1"/>
        <pt x="388" y="0" on="1"/>
        <pt x="82" y="0" on="1"/>
        <pt x="82" y="702" on="1"/>
        <pt x="127" y="702" on="1"/>
      </contour>
      <contour>
        <pt x="324" y="664" on="0"/>
        <pt x="324" y="625" on="1"/>
        <pt x="324" y="575" on="0"/>
        <pt x="284" y="534" on="0"/>
        <pt x="245" y="534" on="1"/>
        <pt x="245" y="562" on="1"/>
        <pt x="270" y="562" on="0"/>
        <pt x="291" y="586" on="0"/>
        <pt x="291" y="610" on="1"/>
        <pt x="291" y="637" on="1"/>
        <pt x="249" y="637" on="1"/>
        <pt x="249" y="702" on="1"/>
        <pt x="318" y="702" on="1"/>
      </contour>
    </TTGlyph>
    <TTGlyph name="Ldot" xMin="82" yMin="0" xMax="388" yMax="702">
      <contour>
        <pt x="82" y="702" on="1"/>
        <pt x="127" y="702" on="1"/>
        <pt x="127" y="38" on="1"/>
        <pt x="388" y="38" on="1"/>
        <pt x="388" y="0" on="1"/>
        <pt x="82" y="0" on="1"/>
      </contour>
      <contour>
        <pt x="314" y="339" on="0"/>
        <pt x="292" y="361" on="0"/>
        <pt x="292" y="377" on="1"/>
        <pt x="292" y="393" on="0"/>
        <pt x="314" y="415" on="0"/>
        <pt x="330" y="415" on="1"/>
        <pt x="346" y="415" on="0"/>
        <pt x="368" y="393" on="0"/>
        <pt x="368" y="377" on="1"/>
        <pt x="368" y="361" on="0"/>
        <pt x="346" y="339" on="0"/>
        <pt x="330" y="339" on="1"/>
      </contour>
    </TTGlyph>
    <TTGlyph name="Lslash" xMin="10" yMin="0" xMax="406" yMax="702">
      <contour>
        <pt x="406" y="36" on="1"/>
        <pt x="406" y="0" on="1"/>
        <pt x="100" y="0" on="1"/>
        <pt x="100" y="341" on="1"/>
        <pt x="10" y="302" on="1"/>
        <pt x="10" y="339" on="1"/>
        <pt x="100" y="378" on="1"/>
        <pt x="100" y="702" on="1"/>
        <pt x="145" y="702" on="1"/>
        <pt x="145" y="397" on="1"/>
        <pt x="288" y="459" on="1"/>
        <pt x="288" y="421" on="1"/>
        <pt x="145" y="360" on="1"/>
        <pt x="145" y="36" on="1"/>
      </contour>
    </TTGlyph>
    <TTGlyph name="M" xMin="82" yMin="0" xMax="737" yMax="687">
      <contour>
        <pt x="737" y="687" on="1"/>
        <pt x="737" y="0" on="1"/>
        <pt x="692" y="0" on="1"/>
        <pt x="692" y="593" on="1"/>
        <pt x="428" y="0" on="1"/>
        <pt x="392" y="0" on="1"/>
        <pt x="127" y="593" on="1"/>
        <pt x="127" y="0" on="1"/>
        <pt x="82" y="0" on="1"/>
        <pt x="82" y="687" on="1"/>
        <pt x="130" y="687" on="1"/>
        <pt x="410" y="59" on="1"/>
        <pt x="690" y="687" on="1"/>
      </contour>
    </TTGlyph>
    <TTGlyph name="N" xMin="82" yMin="0" xMax="584" yMax="701">
      <contour>
        <pt x="584" y="0" on="1"/>
        <pt x="539" y="0" on="1"/>
        <pt x="127" y="628" on="1"/>
        <pt x="127" y="0" on="1"/>
        <pt x="82" y="0" on="1"/>
        <pt x="82" y="701" on="1"/>
        <pt x="127" y="701" on="1"/>
        <pt x="539" y="75" on="1"/>
        <pt x="539" y="701" on="1"/>
        <pt x="584" y="701" on="1"/>
      </contour>
    </TTGlyph>
    <TTGlyph name="Nacute" xMin="82" yMin="0" xMax="584" yMax="899">
      <component glyphName="N" x="0" y="0" flags="0x0"/>
      <component glyphName="acute" x="192" y="144" flags="0x4"/>
    </TTGlyph>
    <TTGlyph name="Ncaron" xMin="82" yMin="0" xMax="584" yMax="874">
      <component glyphName="N" x="0" y="0" flags="0x0"/>
      <component glyphName="caron" x="173" y="144" flags="0x4"/>
    </TTGlyph>
    <TTGlyph name="Ntilde" xMin="82" yMin="0" xMax="584" yMax="829">
      <component glyphName="N" x="0" y="0" flags="0x0"/>
      <component glyphName="tilde" x="188" y="144" flags="0x4"/>
    </TTGlyph>
    <TTGlyph name="O" xMin="54" yMin="-8" xMax="736" yMax="708">
      <contour>
        <pt x="298" y="-8" on="0"/>
        <pt x="142" y="83" on="0"/>
        <pt x="54" y="247" on="0"/>
        <pt x="54" y="350" on="1"/>
        <pt x="54" y="454" on="0"/>
        <pt x="142" y="617" on="0"/>
        <pt x="298" y="708" on="0"/>
        <pt x="395" y="708" on="1"/>
        <pt x="492" y="708" on="0"/>
        <pt x="648" y="617" on="0"/>
        <pt x="736" y="454" on="0"/>
        <pt x="736" y="350" on="1"/>
        <pt x="736" y="247" on="0"/>
        <pt x="648" y="83" on="0"/>
        <pt x="492" y="-8" on="0"/>
        <pt x="395" y="-8" on="1"/>
      </contour>
      <contour>
        <pt x="478" y="32" on="0"/>
        <pt x="612" y="110" on="0"/>
        <pt x="689" y="254" on="0"/>
        <pt x="689" y="350" on="1"/>
        <pt x="689" y="447" on="0"/>
        <pt x="612" y="591" on="0"/>
        <pt x="478" y="669" on="0"/>
        <pt x="395" y="669" on="1"/>
        <pt x="312" y="669" on="0"/>
        <pt x="178" y="591" on="0"/>
        <pt x="100" y="447" on="0"/>
        <pt x="100" y="350" on="1"/>
        <pt x="100" y="254" on="0"/>
        <pt x="178" y="110" on="0"/>
        <pt x="312" y="32" on="0"/>
        <pt x="395" y="32" on="1"/>
      </contour>
    </TTGlyph>
    <TTGlyph name="OE" xMin="54" yMin="-8" xMax="1045" yMax="708">
      <contour>
        <pt x="735" y="370" on="1"/>
        <pt x="1015" y="370" on="1"/>
        <pt x="1015" y="333" on="1"/>
        <pt x="735" y="333" on="1"/>
        <pt x="735" y="37" on="1"/>
        <pt x="1045" y="37" on="1"/>
        <pt x="1045" y="0" on="1"/>
        <pt x="690" y="0" on="1"/>
        <pt x="690" y="206" on="1"/>
        <pt x="661" y="108" on="0"/>
        <pt x="499" y="-8" on="0"/>
        <pt x="393" y="-8" on="1"/>
        <pt x="297" y="-8" on="0"/>
        <pt x="142" y="84" on="0"/>
        <pt x="54" y="247" on="0"/>
        <pt x="54" y="350" on="1"/>
        <pt x="54" y="454" on="0"/>
        <pt x="142" y="617" on="0"/>
        <pt x="296" y="708" on="0"/>
        <pt x="392" y="708" on="1"/>
        <pt x="499" y="708" on="0"/>
        <pt x="661" y="593" on="0"/>
        <pt x="690" y="496" on="1"/>
        <pt x="690" y="702" on="1"/>
        <pt x="1045" y="702" on="1"/>
        <pt x="1045" y="665" on="1"/>
        <pt x="735" y="665" on="1"/>
      </contour>
      <contour>
        <pt x="100" y="254" on="0"/>
        <pt x="178" y="110" on="0"/>
        <pt x="312" y="33" on="0"/>
        <pt x="395" y="33" on="1"/>
        <pt x="478" y="33" on="0"/>
        <pt x="612" y="110" on="0"/>
        <pt x="689" y="254" on="0"/>
        <pt x="689" y="350" on="1"/>
        <pt x="689" y="446" on="0"/>
        <pt x="612" y="590" on="0"/>
        <pt x="478" y="668" on="0"/>
        <pt x="395" y="668" on="1"/>
        <pt x="312" y="668" on="0"/>
        <pt x="178" y="590" on="0"/>
        <pt x="100" y="446" on="0"/>
        <pt x="100" y="350" on="1"/>
      </contour>
    </TTGlyph>
    <TTGlyph name="Oacute" xMin="54" yMin="-8" xMax="736" yMax="899">
      <component glyphName="O" x="0" y="0" flags="0x0"/>
      <component glyphName="acute" x="261" y="144" flags="0x4"/>
    </TTGlyph>
    <TTGlyph name="Ocircumflex" xMin="54" yMin="-8" xMax="736" yMax="876">
      <component glyphName="O" x="0" y="0" flags="0x0"/>
      <component glyphName="circumflex" x="242" y="144" flags="0x4"/>
    </TTGlyph>
    <TTGlyph name="Odieresis" xMin="54" yMin="-8" xMax="736" yMax="845">
      <component glyphName="O" x="0" y="0" flags="0x0"/>
      <component glyphName="dieresis" x="245" y="144" flags="0x4"/>
    </TTGlyph>
    <TTGlyph name="Ograve" xMin="54" yMin="-8" xMax="736" yMax="899">
      <component glyphName="O" x="0" y="0" flags="0x0"/>
      <component glyphName="grave" x="261" y="144" flags="0x4"/>
    </TTGlyph>
    <TTGlyph name="Ohungarumlaut" xMin="54" yMin="-8" xMax="736" yMax="867">
      <component glyphName="O" x="0" y="0" flags="0x0"/>
      <component glyphName="hungarumlaut" x="284" y="144" flags="0x4"/>
    </TTGlyph>
    <TTGlyph name="Omacron" xMin="54" yMin="-8" xMax="736" yMax="832">
      <component glyphName="O" x="0" y="0" flags="0x0"/>
      <component glyphName="macron" x="209" y="144" flags="0x4"/>
    </TTGlyph>
    <TTGlyph name="Oslash" xMin="52" yMin="-8" xMax="738" yMax="708">
      <contour>
        <pt x="645" y="601" on="1"/>
        <pt x="689" y="554" on="0"/>
        <pt x="736" y="425" on="0"/>
        <pt x="736" y="350" on="1"/>
        <pt x="736" y="247" on="0"/>
        <pt x="648" y="83" on="0"/>
        <pt x="492" y="-8" on="0"/>
        <pt x="395" y="-8" on="1"/>
        <pt x="328" y="-8" on="0"/>
        <pt x="211" y="36" on="0"/>
        <pt x="166" y="78" on="1"/>
        <pt x="94" y="0" on="1"/>
        <pt x="52" y="0" on="1"/>
        <pt x="144" y="100" on="1"/>
        <pt x="101" y="148" on="0"/>
        <pt x="54" y="275" on="0"/>
        <pt x="54" y="350" on="1"/>
        <pt x="54" y="454" on="0"/>
        <pt x="142" y="617" on="0"/>
        <pt x="298" y="708" on="0"/>
        <pt x="395" y="708" on="1"/>
        <pt x="462" y="708" on="0"/>
        <pt x="578" y="664" on="0"/>
        <pt x="624" y="623" on="1"/>
        <pt x="696" y="702" on="1"/>
        <pt x="738" y="702" on="1"/>
      </contour>
      <contour>
        <pt x="100" y="218" on="0"/>
        <pt x="173" y="132" on="1"/>
        <pt x="595" y="592" on="1"/>
        <pt x="556" y="630" on="0"/>
        <pt x="453" y="669" on="0"/>
        <pt x="395" y="669" on="1"/>
        <pt x="312" y="669" on="0"/>
        <pt x="178" y="591" on="0"/>
        <pt x="100" y="447" on="0"/>
        <pt x="100" y="350" on="1"/>
      </contour>
      <contour>
        <pt x="689" y="482" on="0"/>
        <pt x="617" y="570" on="1"/>
        <pt x="194" y="109" on="1"/>
        <pt x="233" y="72" on="0"/>
        <pt x="336" y="32" on="0"/>
        <pt x="395" y="32" on="1"/>
        <pt x="478" y="32" on="0"/>
        <pt x="612" y="110" on="0"/>
        <pt x="689" y="254" on="0"/>
        <pt x="689" y="350" on="1"/>
      </contour>
    </TTGlyph>
    <TTGlyph name="Otilde" xMin="54" yMin="-8" xMax="736" yMax="829">
      <component glyphName="O" x="0" y="0" flags="0x0"/>
      <component glyphName="tilde" x="257" y="144" flags="0x4"/>
    </TTGlyph>
    <TTGlyph name="P" xMin="82" yMin="0" xMax="507" yMax="702">
      <contour>
        <pt x="507" y="411" on="0"/>
        <pt x="391" y="308" on="0"/>
        <pt x="277" y="308" on="1"/>
        <pt x="127" y="308" on="1"/>
        <pt x="127" y="0" on="1"/>
        <pt x="82" y="0" on="1"/>
        <pt x="82" y="702" on="1"/>
        <pt x="277" y="702" on="1"/>
        <pt x="393" y="702" on="0"/>
        <pt x="507" y="595" on="0"/>
        <pt x="507" y="504" on="1"/>
      </contour>
      <contour>
        <pt x="462" y="348" on="0"/>
        <pt x="462" y="504" on="1"/>
        <pt x="462" y="581" on="0"/>
        <pt x="374" y="662" on="0"/>
        <pt x="277" y="662" on="1"/>
        <pt x="127" y="662" on="1"/>
        <pt x="127" y="348" on="1"/>
        <pt x="277" y="348" on="1"/>
      </contour>
    </TTGlyph>
    <TTGlyph name="Q" xMin="54" yMin="-143" xMax="747" yMax="708">
      <contour>
        <pt x="683" y="-143" on="1"/>
        <pt x="505" y="9" on="1"/>
        <pt x="452" y="-8" on="0"/>
        <pt x="395" y="-8" on="1"/>
        <pt x="298" y="-8" on="0"/>
        <pt x="142" y="83" on="0"/>
        <pt x="54" y="247" on="0"/>
        <pt x="54" y="350" on="1"/>
        <pt x="54" y="454" on="0"/>
        <pt x="142" y="617" on="0"/>
        <pt x="298" y="708" on="0"/>
        <pt x="395" y="708" on="1"/>
        <pt x="492" y="708" on="0"/>
        <pt x="648" y="617" on="0"/>
        <pt x="736" y="454" on="0"/>
        <pt x="736" y="350" on="1"/>
        <pt x="736" y="239" on="0"/>
        <pt x="635" y="69" on="0"/>
        <pt x="549" y="26" on="1"/>
        <pt x="747" y="-143" on="1"/>
      </contour>
      <contour>
        <pt x="100" y="254" on="0"/>
        <pt x="178" y="110" on="0"/>
        <pt x="312" y="32" on="0"/>
        <pt x="395" y="32" on="1"/>
        <pt x="478" y="32" on="0"/>
        <pt x="612" y="110" on="0"/>
        <pt x="689" y="254" on="0"/>
        <pt x="689" y="350" on="1"/>
        <pt x="689" y="447" on="0"/>
        <pt x="612" y="591" on="0"/>
        <pt x="478" y="669" on="0"/>
        <pt x="395" y="669" on="1"/>
        <pt x="312" y="669" on="0"/>
        <pt x="178" y="591" on="0"/>
        <pt x="100" y="447" on="0"/>
        <pt x="100" y="350" on="1"/>
      </contour>
    </TTGlyph>
    <TTGlyph name="R" xMin="82" yMin="0" xMax="515" yMax="702">
      <contour>
        <pt x="461" y="0" on="1"/>
        <pt x="281" y="299" on="1"/>
        <pt x="277" y="299" on="1"/>
        <pt x="127" y="299" on="1"/>
        <pt x="127" y="0" on="1"/>
        <pt x="82" y="0" on="1"/>
        <pt x="82" y="702" on="1"/>
        <pt x="275" y="702" on="1"/>
        <pt x="392" y="702" on="0"/>
        <pt x="509" y="592" on="0"/>
        <pt x="509" y="501" on="1"/>
        <pt x="509" y="420" on="0"/>
        <pt x="418" y="315" on="0"/>
        <pt x="331" y="303" on="1"/>
        <pt x="515" y="0" on="1"/>
      </contour>
      <contour>
        <pt x="127" y="337" on="1"/>
        <pt x="277" y="337" on="1"/>
        <pt x="370" y="337" on="0"/>
        <pt x="462" y="427" on="0"/>
        <pt x="462" y="501" on="1"/>
        <pt x="462" y="662" on="0"/>
        <pt x="275" y="662" on="1"/>
        <pt x="127" y="662" on="1"/>
      </contour>
    </TTGlyph>
    <TTGlyph name="Racute" xMin="82" yMin="0" xMax="515" yMax="899">
      <component glyphName="R" x="0" y="0" flags="0x0"/>
      <component glyphName="acute" x="159" y="144" flags="0x4"/>
    </TTGlyph>
    <TTGlyph name="Rcaron" xMin="82" yMin="0" xMax="515" yMax="874">
      <component glyphName="R" x="0" y="0" flags="0x0"/>
      <component glyphName="caron" x="140" y="144" flags="0x4"/>
    </TTGlyph>
    <TTGlyph name="S" xMin="54" yMin="-7" xMax="501" yMax="709">
      <contour>
        <pt x="217" y="-7" on="0"/>
        <pt x="115" y="41" on="0"/>
        <pt x="58" y="123" on="0"/>
        <pt x="54" y="173" on="1"/>
        <pt x="101" y="173" on="1"/>
        <pt x="109" y="118" on="0"/>
        <pt x="196" y="32" on="0"/>
        <pt x="285" y="32" on="1"/>
        <pt x="337" y="32" on="0"/>
        <pt x="414" y="70" on="0"/>
        <pt x="456" y="136" on="0"/>
        <pt x="456" y="176" on="1"/>
        <pt x="456" y="227" on="0"/>
        <pt x="407" y="287" on="0"/>
        <pt x="334" y="317" on="0"/>
        <pt x="272" y="334" on="1"/>
        <pt x="204" y="352" on="0"/>
        <pt x="121" y="388" on="0"/>
        <pt x="64" y="463" on="0"/>
        <pt x="64" y="528" on="1"/>
        <pt x="64" y="578" on="0"/>
        <pt x="117" y="661" on="0"/>
        <pt x="215" y="709" on="0"/>
        <pt x="279" y="709" on="1"/>
        <pt x="372" y="709" on="0"/>
        <pt x="486" y="617" on="0"/>
        <pt x="497" y="550" on="1"/>
        <pt x="449" y="550" on="1"/>
        <pt x="443" y="577" on="0"/>
        <pt x="402" y="633" on="0"/>
        <pt x="327" y="670" on="0"/>
        <pt x="275" y="670" on="1"/>
        <pt x="205" y="670" on="0"/>
        <pt x="109" y="593" on="0"/>
        <pt x="109" y="529" on="1"/>
        <pt x="109" y="478" on="0"/>
        <pt x="159" y="417" on="0"/>
        <pt x="232" y="386" on="0"/>
        <pt x="294" y="370" on="1"/>
        <pt x="363" y="351" on="0"/>
        <pt x="444" y="316" on="0"/>
        <pt x="501" y="241" on="0"/>
        <pt x="501" y="177" on="1"/>
        <pt x="501" y="130" on="0"/>
        <pt x="451" y="46" on="0"/>
        <pt x="354" y="-7" on="0"/>
        <pt x="285" y="-7" on="1"/>
      </contour>
    </TTGlyph>
    <TTGlyph name="Sacute" xMin="54" yMin="-7" xMax="501" yMax="901">
      <component glyphName="S" x="0" y="0" flags="0x0"/>
      <component glyphName="acute" x="134" y="146" flags="0x4"/>
    </TTGlyph>
    <TTGlyph name="Scaron" xMin="54" yMin="-7" xMax="501" yMax="876">
      <component glyphName="S" x="0" y="0" flags="0x0"/>
      <component glyphName="caron" x="114" y="146" flags="0x4"/>
    </TTGlyph>
    <TTGlyph name="T" xMin="25" yMin="0" xMax="470" yMax="702">
      <contour>
        <pt x="470" y="702" on="1"/>
        <pt x="470" y="664" on="1"/>
        <pt x="270" y="664" on="1"/>
        <pt x="270" y="0" on="1"/>
        <pt x="225" y="0" on="1"/>
        <pt x="225" y="664" on="1"/>
        <pt x="25" y="664" on="1"/>
        <pt x="25" y="702" on="1"/>
      </contour>
    </TTGlyph>
    <TTGlyph name="Tcaron" xMin="25" yMin="0" xMax="470" yMax="874">
      <component glyphName="T" x="0" y="0" flags="0x0"/>
      <component glyphName="caron" x="87" y="144" flags="0x4"/>
    </TTGlyph>
    <TTGlyph name="Thorn" xMin="82" yMin="0" xMax="507" yMax="702">
      <contour>
        <pt x="507" y="257" on="0"/>
        <pt x="391" y="154" on="0"/>
        <pt x="277" y="154" on="1"/>
        <pt x="127" y="154" on="1"/>
        <pt x="127" y="0" on="1"/>
        <pt x="82" y="0" on="1"/>
        <pt x="82" y="702" on="1"/>
        <pt x="127" y="702" on="1"/>
        <pt x="127" y="548" on="1"/>
        <pt x="277" y="548" on="1"/>
        <pt x="393" y="548" on="0"/>
        <pt x="507" y="442" on="0"/>
        <pt x="507" y="351" on="1"/>
      </contour>
      <contour>
        <pt x="462" y="194" on="0"/>
        <pt x="462" y="351" on="1"/>
        <pt x="462" y="428" on="0"/>
        <pt x="374" y="510" on="0"/>
        <pt x="277" y="510" on="1"/>
        <pt x="127" y="510" on="1"/>
        <pt x="127" y="194" on="1"/>
        <pt x="277" y="194" on="1"/>
      </contour>
    </TTGlyph>
    <TTGlyph name="U" xMin="78" yMin="-7" xMax="567" yMax="702">
      <contour>
        <pt x="123" y="702" on="1"/>
        <pt x="123" y="263" on="1"/>
        <pt x="123" y="144" on="0"/>
        <pt x="231" y="33" on="0"/>
        <pt x="324" y="33" on="1"/>
        <pt x="416" y="33" on="0"/>
        <pt x="522" y="143" on="0"/>
        <pt x="522" y="263" on="1"/>
        <pt x="522" y="702" on="1"/>
        <pt x="567" y="702" on="1"/>
        <pt x="567" y="264" on="1"/>
        <pt x="567" y="127" on="0"/>
        <pt x="435" y="-7" on="0"/>
        <pt x="324" y="-7" on="1"/>
        <pt x="213" y="-7" on="0"/>
        <pt x="78" y="128" on="0"/>
        <pt x="78" y="264" on="1"/>
        <pt x="78" y="702" on="1"/>
      </contour>
    </TTGlyph>
    <TTGlyph name="Uacute" xMin="78" yMin="-7" xMax="567" yMax="899">
      <component glyphName="U" x="0" y="0" flags="0x0"/>
      <component glyphName="acute" x="180" y="144" flags="0x4"/>
    </TTGlyph>
    <TTGlyph name="Ubreve" xMin="78" yMin="-7" xMax="567" yMax="877">
      <component glyphName="U" x="0" y="0" flags="0x0"/>
      <component glyphName="breve" x="164" y="144" flags="0x4"/>
    </TTGlyph>
    <TTGlyph name="Ucircumflex" xMin="78" yMin="-7" xMax="567" yMax="876">
      <component glyphName="U" x="0" y="0" flags="0x0"/>
      <component glyphName="circumflex" x="161" y="144" flags="0x4"/>
    </TTGlyph>
    <TTGlyph name="Udieresis" xMin="78" yMin="-7" xMax="567" yMax="845">
      <component glyphName="U" x="0" y="0" flags="0x0"/>
      <component glyphName="dieresis" x="164" y="144" flags="0x4"/>
    </TTGlyph>
    <TTGlyph name="Ugrave" xMin="78" yMin="-7" xMax="567" yMax="899">
      <component glyphName="U" x="0" y="0" flags="0x0"/>
      <component glyphName="grave" x="180" y="144" flags="0x4"/>
    </TTGlyph>
    <TTGlyph name="Uhungarumlaut" xMin="78" yMin="-7" xMax="567" yMax="867">
      <component glyphName="U" x="0" y="0" flags="0x0"/>
      <component glyphName="hungarumlaut" x="203" y="144" flags="0x4"/>
    </TTGlyph>
    <TTGlyph name="Umacron" xMin="78" yMin="-7" xMax="567" yMax="832">
      <component glyphName="U" x="0" y="0" flags="0x0"/>
      <component glyphName="macron" x="128" y="144" flags="0x4"/>
    </TTGlyph>
    <TTGlyph name="Uogonek" xMin="78" yMin="-196" xMax="567" yMax="702">
      <contour>
        <pt x="567" y="702" on="1"/>
        <pt x="567" y="264" on="1"/>
        <pt x="567" y="148" on="0"/>
        <pt x="471" y="16" on="0"/>
        <pt x="387" y="-1" on="1"/>
        <pt x="323" y="-31" on="1"/>
        <pt x="257" y="-61" on="0"/>
        <pt x="257" y="-109" on="1"/>
        <pt x="257" y="-135" on="0"/>
        <pt x="292" y="-162" on="0"/>
        <pt x="322" y="-162" on="1"/>
        <pt x="350" y="-162" on="0"/>
        <pt x="386" y="-149" on="1"/>
        <pt x="386" y="-183" on="1"/>
        <pt x="350" y="-196" on="0"/>
        <pt x="318" y="-196" on="1"/>
        <pt x="274" y="-196" on="0"/>
        <pt x="217" y="-154" on="0"/>
        <pt x="217" y="-113" on="1"/>
        <pt x="217" y="-48" on="0"/>
        <pt x="303" y="-6" on="1"/>
        <pt x="200" y="0" on="0"/>
        <pt x="78" y="135" on="0"/>
        <pt x="78" y="264" on="1"/>
        <pt x="78" y="702" on="1"/>
        <pt x="123" y="702" on="1"/>
        <pt x="123" y="263" on="1"/>
        <pt x="123" y="144" on="0"/>
        <pt x="231" y="33" on="0"/>
        <pt x="324" y="33" on="1"/>
        <pt x="416" y="33" on="0"/>
        <pt x="522" y="143" on="0"/>
        <pt x="522" y="263" on="1"/>
        <pt x="522" y="702" on="1"/>
      </contour>
    </TTGlyph>
    <TTGlyph name="Uring" xMin="78" yMin="-7" xMax="567" yMax="947">
      <component glyphName="U" x="0" y="0" flags="0x0"/>
      <component glyphName="ring" x="195" y="144" flags="0x4"/>
    </TTGlyph>
    <TTGlyph name="Utilde" xMin="78" yMin="-7" xMax="567" yMax="829">
      <component glyphName="U" x="0" y="0" flags="0x0"/>
      <component glyphName="tilde" x="176" y="144" flags="0x4"/>
    </TTGlyph>
    <TTGlyph name="V" xMin="27" yMin="0" xMax="612" yMax="702">
      <contour>
        <pt x="612" y="702" on="1"/>
        <pt x="344" y="0" on="1"/>
        <pt x="294" y="0" on="1"/>
        <pt x="27" y="702" on="1"/>
        <pt x="76" y="702" on="1"/>
        <pt x="319" y="53" on="1"/>
        <pt x="564" y="702" on="1"/>
      </contour>
    </TTGlyph>
    <TTGlyph name="W" xMin="31" yMin="0" xMax="899" yMax="702">
      <contour>
        <pt x="899" y="702" on="1"/>
        <pt x="705" y="0" on="1"/>
        <pt x="656" y="0" on="1"/>
        <pt x="464" y="632" on="1"/>
        <pt x="269" y="0" on="1"/>
        <pt x="222" y="0" on="1"/>
        <pt x="31" y="702" on="1"/>
        <pt x="79" y="702" on="1"/>
        <pt x="247" y="63" on="1"/>
        <pt x="440" y="702" on="1"/>
        <pt x="490" y="702" on="1"/>
        <pt x="681" y="59" on="1"/>
        <pt x="850" y="702" on="1"/>
      </contour>
    </TTGlyph>
    <TTGlyph name="Wacute" xMin="31" yMin="0" xMax="899" yMax="915">
      <component glyphName="W" x="0" y="0" flags="0x0"/>
      <component glyphName="acute" x="415" y="160" flags="0x4"/>
    </TTGlyph>
    <TTGlyph name="Wcircumflex" xMin="31" yMin="0" xMax="899" yMax="892">
      <component glyphName="W" x="0" y="0" flags="0x0"/>
      <component glyphName="circumflex" x="303" y="160" flags="0x4"/>
    </TTGlyph>
    <TTGlyph name="Wdieresis" xMin="31" yMin="0" xMax="899" yMax="860">
      <component glyphName="W" x="0" y="0" flags="0x0"/>
      <component glyphName="dieresis" x="305" y="159" flags="0x4"/>
    </TTGlyph>
    <TTGlyph name="Wgrave" xMin="31" yMin="0" xMax="899" yMax="914">
      <component glyphName="W" x="0" y="0" flags="0x0"/>
      <component glyphName="grave" x="251" y="159" flags="0x4"/>
    </TTGlyph>
    <TTGlyph name="X" xMin="35" yMin="0" xMax="508" yMax="702">
      <contour>
        <pt x="296" y="351" on="1"/>
        <pt x="507" y="0" on="1"/>
        <pt x="456" y="0" on="1"/>
        <pt x="267" y="315" on="1"/>
        <pt x="86" y="0" on="1"/>
        <pt x="36" y="0" on="1"/>
        <pt x="244" y="354" on="1"/>
        <pt x="35" y="702" on="1"/>
        <pt x="86" y="702" on="1"/>
        <pt x="273" y="390" on="1"/>
        <pt x="457" y="702" on="1"/>
        <pt x="508" y="702" on="1"/>
      </contour>
    </TTGlyph>
    <TTGlyph name="Y" xMin="26" yMin="0" xMax="515" yMax="702">
      <contour>
        <pt x="515" y="702" on="1"/>
        <pt x="294" y="284" on="1"/>
        <pt x="294" y="0" on="1"/>
        <pt x="249" y="0" on="1"/>
        <pt x="249" y="284" on="1"/>
        <pt x="26" y="702" on="1"/>
        <pt x="77" y="702" on="1"/>
        <pt x="271" y="326" on="1"/>
        <pt x="464" y="702" on="1"/>
      </contour>
    </TTGlyph>
    <TTGlyph name="Yacute" xMin="26" yMin="0" xMax="515" yMax="899">
      <component glyphName="Y" x="0" y="0" flags="0x0"/>
      <component glyphName="acute" x="129" y="144" flags="0x4"/>
    </TTGlyph>
    <TTGlyph name="Ycircumflex" xMin="26" yMin="0" xMax="515" yMax="876">
      <component glyphName="Y" x="0" y="0" flags="0x0"/>
      <component glyphName="circumflex" x="110" y="144" flags="0x4"/>
    </TTGlyph>
    <TTGlyph name="Ydieresis" xMin="26" yMin="0" xMax="515" yMax="845">
      <component glyphName="Y" x="0" y="0" flags="0x0"/>
      <component glyphName="dieresis" x="113" y="144" flags="0x4"/>
    </TTGlyph>
    <TTGlyph name="Ygrave" xMin="26" yMin="0" xMax="515" yMax="899">
      <component glyphName="Y" x="0" y="0" flags="0x0"/>
      <component glyphName="grave" x="129" y="144" flags="0x4"/>
    </TTGlyph>
    <TTGlyph name="Z" xMin="39" yMin="0" xMax="467" yMax="702">
      <contour>
        <pt x="91" y="40" on="1"/>
        <pt x="467" y="40" on="1"/>
        <pt x="467" y="0" on="1"/>
        <pt x="39" y="0" on="1"/>
        <pt x="39" y="38" on="1"/>
        <pt x="408" y="661" on="1"/>
        <pt x="49" y="661" on="1"/>
        <pt x="49" y="702" on="1"/>
        <pt x="460" y="702" on="1"/>
        <pt x="460" y="663" on="1"/>
      </contour>
    </TTGlyph>
    <TTGlyph name="Zacute" xMin="39" yMin="0" xMax="467" yMax="899">
      <component glyphName="Z" x="0" y="0" flags="0x0"/>
      <component glyphName="acute" x="112" y="144" flags="0x4"/>
    </TTGlyph>
    <TTGlyph name="Zcaron" xMin="39" yMin="0" xMax="467" yMax="874">
      <component glyphName="Z" x="0" y="0" flags="0x0"/>
      <component glyphName="caron" x="93" y="144" flags="0x4"/>
    </TTGlyph>
    <TTGlyph name="Zdotaccent" xMin="39" yMin="0" xMax="467" yMax="828">
      <component glyphName="Z" x="0" y="0" flags="0x0"/>
      <component glyphName="dotaccent" x="179" y="127" flags="0x4"/>
    </TTGlyph>
    <TTGlyph name="a" xMin="54" yMin="-8" xMax="591" yMax="550">
      <contour>
        <pt x="54" y="356" on="0"/>
        <pt x="121" y="482" on="0"/>
        <pt x="240" y="550" on="0"/>
        <pt x="316" y="550" on="1"/>
        <pt x="402" y="550" on="0"/>
        <pt x="522" y="466" on="0"/>
        <pt x="546" y="401" on="1"/>
        <pt x="546" y="543" on="1"/>
        <pt x="591" y="543" on="1"/>
        <pt x="591" y="0" on="1"/>
        <pt x="546" y="0" on="1"/>
        <pt x="546" y="143" on="1"/>
        <pt x="522" y="77" on="0"/>
        <pt x="401" y="-8" on="0"/>
        <pt x="316" y="-8" on="1"/>
        <pt x="240" y="-8" on="0"/>
        <pt x="121" y="61" on="0"/>
        <pt x="54" y="188" on="0"/>
        <pt x="54" y="272" on="1"/>
      </contour>
      <contour>
        <pt x="546" y="343" on="0"/>
        <pt x="487" y="452" on="0"/>
        <pt x="385" y="511" on="0"/>
        <pt x="322" y="511" on="1"/>
        <pt x="256" y="511" on="0"/>
        <pt x="156" y="454" on="0"/>
        <pt x="100" y="346" on="0"/>
        <pt x="100" y="272" on="1"/>
        <pt x="100" y="198" on="0"/>
        <pt x="156" y="90" on="0"/>
        <pt x="257" y="32" on="0"/>
        <pt x="322" y="32" on="1"/>
        <pt x="385" y="32" on="0"/>
        <pt x="488" y="91" on="0"/>
        <pt x="546" y="200" on="0"/>
        <pt x="546" y="272" on="1"/>
      </contour>
    </TTGlyph>
    <TTGlyph name="a.ss02" xMin="54" yMin="-10" xMax="499" yMax="549">
      <contour>
        <pt x="431" y="71" on="0"/>
        <pt x="310" y="-10" on="0"/>
        <pt x="233" y="-10" on="1"/>
        <pt x="153" y="-10" on="0"/>
        <pt x="54" y="77" on="0"/>
        <pt x="54" y="148" on="1"/>
        <pt x="54" y="223" on="0"/>
        <pt x="160" y="314" on="0"/>
        <pt x="259" y="314" on="1"/>
        <pt x="455" y="314" on="1"/>
        <pt x="449" y="510" on="0"/>
        <pt x="286" y="510" on="1"/>
        <pt x="216" y="510" on="0"/>
        <pt x="123" y="430" on="0"/>
        <pt x="112" y="360" on="1"/>
        <pt x="69" y="360" on="1"/>
        <pt x="81" y="444" on="0"/>
        <pt x="196" y="549" on="0"/>
        <pt x="288" y="549" on="1"/>
        <pt x="385" y="549" on="0"/>
        <pt x="499" y="428" on="0"/>
        <pt x="499" y="316" on="1"/>
        <pt x="499" y="0" on="1"/>
        <pt x="455" y="0" on="1"/>
        <pt x="455" y="136" on="1"/>
      </contour>
      <contour>
        <pt x="299" y="29" on="0"/>
        <pt x="397" y="84" on="0"/>
        <pt x="455" y="184" on="0"/>
        <pt x="455" y="249" on="1"/>
        <pt x="455" y="276" on="1"/>
        <pt x="259" y="276" on="1"/>
        <pt x="181" y="276" on="0"/>
        <pt x="98" y="208" on="0"/>
        <pt x="98" y="150" on="1"/>
        <pt x="98" y="95" on="0"/>
        <pt x="176" y="29" on="0"/>
        <pt x="240" y="29" on="1"/>
      </contour>
    </TTGlyph>
    <TTGlyph name="aacute" xMin="54" yMin="-8" xMax="591" yMax="755">
      <component glyphName="a" x="0" y="0" flags="0x0"/>
      <component glyphName="acute" x="197" y="0" flags="0x0"/>
    </TTGlyph>
    <TTGlyph name="aacute.ss02" xMin="54" yMin="-10" xMax="499" yMax="755">
      <component glyphName="acute" x="197" y="0" flags="0x0"/>
      <component glyphName="a.ss02" x="0" y="0" flags="0x0"/>
    </TTGlyph>
    <TTGlyph name="abreve" xMin="54" yMin="-8" xMax="591" yMax="733">
      <component glyphName="a" x="0" y="0" flags="0x0"/>
      <component glyphName="breve" x="180" y="0" flags="0x0"/>
    </TTGlyph>
    <TTGlyph name="abreve.ss02" xMin="54" yMin="-10" xMax="499" yMax="733">
      <component glyphName="breve" x="180" y="0" flags="0x0"/>
      <component glyphName="a.ss02" x="0" y="0" flags="0x0"/>
    </TTGlyph>
    <TTGlyph name="acircumflex" xMin="54" yMin="-8" xMax="591" yMax="732">
      <component glyphName="a" x="0" y="0" flags="0x0"/>
      <component glyphName="circumflex" x="178" y="0" flags="0x0"/>
    </TTGlyph>
    <TTGlyph name="acircumflex.ss02" xMin="54" yMin="-10" xMax="499" yMax="732">
      <component glyphName="circumflex" x="178" y="0" flags="0x0"/>
      <component glyphName="a.ss02" x="0" y="0" flags="0x0"/>
    </TTGlyph>
    <TTGlyph name="acute" xMin="32" yMin="587" xMax="228" yMax="755">
      <contour>
        <pt x="228" y="711" on="1"/>
        <pt x="32" y="587" on="1"/>
        <pt x="32" y="624" on="1"/>
        <pt x="228" y="755" on="1"/>
      </contour>
    </TTGlyph>
    <TTGlyph name="adieresis" xMin="54" yMin="-8" xMax="591" yMax="701">
      <component glyphName="a" x="0" y="0" flags="0x0"/>
      <component glyphName="dieresis" x="181" y="0" flags="0x0"/>
    </TTGlyph>
    <TTGlyph name="adieresis.ss02" xMin="54" yMin="-10" xMax="499" yMax="701">
      <component glyphName="dieresis" x="181" y="0" flags="0x0"/>
      <component glyphName="a.ss02" x="0" y="0" flags="0x0"/>
    </TTGlyph>
    <TTGlyph name="ae" xMin="54" yMin="-8" xMax="1068" yMax="550">
      <contour>
        <pt x="1068" y="279" on="0"/>
        <pt x="1064" y="255" on="1"/>
        <pt x="591" y="255" on="1"/>
        <pt x="593" y="182" on="0"/>
        <pt x="656" y="81" on="0"/>
        <pt x="755" y="31" on="0"/>
        <pt x="812" y="31" on="1"/>
        <pt x="893" y="31" on="0"/>
        <pt x="1003" y="110" on="0"/>
        <pt x="1016" y="178" on="1"/>
        <pt x="1064" y="178" on="1"/>
        <pt x="1047" y="95" on="0"/>
        <pt x="917" y="-8" on="0"/>
        <pt x="817" y="-8" on="1"/>
        <pt x="736" y="-8" on="0"/>
        <pt x="610" y="75" on="0"/>
        <pt x="587" y="151" on="1"/>
        <pt x="587" y="0" on="1"/>
        <pt x="547" y="0" on="1"/>
        <pt x="547" y="150" on="1"/>
        <pt x="522" y="79" on="0"/>
        <pt x="401" y="-8" on="0"/>
        <pt x="316" y="-8" on="1"/>
        <pt x="240" y="-8" on="0"/>
        <pt x="121" y="61" on="0"/>
        <pt x="54" y="188" on="0"/>
        <pt x="54" y="272" on="1"/>
        <pt x="54" y="356" on="0"/>
        <pt x="121" y="482" on="0"/>
        <pt x="241" y="550" on="0"/>
        <pt x="318" y="550" on="1"/>
        <pt x="402" y="550" on="0"/>
        <pt x="522" y="466" on="0"/>
        <pt x="548" y="394" on="1"/>
        <pt x="548" y="543" on="1"/>
        <pt x="587" y="543" on="1"/>
        <pt x="587" y="394" on="1"/>
        <pt x="613" y="470" on="0"/>
        <pt x="736" y="550" on="0"/>
        <pt x="817" y="550" on="1"/>
        <pt x="895" y="550" on="0"/>
        <pt x="1009" y="483" on="0"/>
        <pt x="1068" y="372" on="0"/>
        <pt x="1068" y="309" on="1"/>
      </contour>
      <contour>
        <pt x="1026" y="362" on="0"/>
        <pt x="969" y="462" on="0"/>
        <pt x="870" y="512" on="0"/>
        <pt x="812" y="512" on="1"/>
        <pt x="754" y="512" on="0"/>
        <pt x="655" y="462" on="0"/>
        <pt x="593" y="362" on="0"/>
        <pt x="591" y="290" on="1"/>
        <pt x="1023" y="290" on="1"/>
      </contour>
      <contour>
        <pt x="385" y="32" on="0"/>
        <pt x="488" y="91" on="0"/>
        <pt x="546" y="200" on="0"/>
        <pt x="546" y="272" on="1"/>
        <pt x="546" y="343" on="0"/>
        <pt x="487" y="452" on="0"/>
        <pt x="385" y="511" on="0"/>
        <pt x="322" y="511" on="1"/>
        <pt x="256" y="511" on="0"/>
        <pt x="156" y="454" on="0"/>
        <pt x="100" y="346" on="0"/>
        <pt x="100" y="272" on="1"/>
        <pt x="100" y="198" on="0"/>
        <pt x="156" y="90" on="0"/>
        <pt x="257" y="32" on="0"/>
        <pt x="322" y="32" on="1"/>
      </contour>
    </TTGlyph>
    <TTGlyph name="agrave" xMin="54" yMin="-8" xMax="591" yMax="755">
      <component glyphName="a" x="0" y="0" flags="0x0"/>
      <component glyphName="grave" x="197" y="0" flags="0x0"/>
    </TTGlyph>
    <TTGlyph name="agrave.ss02" xMin="54" yMin="-10" xMax="499" yMax="755">
      <component glyphName="grave" x="197" y="0" flags="0x0"/>
      <component glyphName="a.ss02" x="0" y="0" flags="0x0"/>
    </TTGlyph>
    <TTGlyph name="amacron" xMin="54" yMin="-8" xMax="591" yMax="688">
      <component glyphName="a" x="0" y="0" flags="0x0"/>
      <component glyphName="macron" x="145" y="0" flags="0x0"/>
    </TTGlyph>
    <TTGlyph name="amacron.ss02" xMin="54" yMin="-10" xMax="501" yMax="688">
      <component glyphName="macron" x="145" y="0" flags="0x0"/>
      <component glyphName="a.ss02" x="0" y="0" flags="0x0"/>
    </TTGlyph>
    <TTGlyph name="ampersand" xMin="41" yMin="-11" xMax="675" yMax="710">
      <contour>
        <pt x="571" y="180" on="0"/>
        <pt x="538" y="136" on="1"/>
        <pt x="670" y="0" on="1"/>
        <pt x="613" y="0" on="1"/>
        <pt x="512" y="103" on="1"/>
        <pt x="461" y="44" on="0"/>
        <pt x="346" y="-11" on="0"/>
        <pt x="273" y="-11" on="1"/>
        <pt x="206" y="-11" on="0"/>
        <pt x="100" y="42" on="0"/>
        <pt x="41" y="137" on="0"/>
        <pt x="41" y="199" on="1"/>
        <pt x="41" y="274" on="0"/>
        <pt x="126" y="383" on="0"/>
        <pt x="207" y="414" on="1"/>
        <pt x="168" y="455" on="0"/>
        <pt x="133" y="526" on="0"/>
        <pt x="133" y="566" on="1"/>
        <pt x="133" y="630" on="0"/>
        <pt x="224" y="710" on="0"/>
        <pt x="298" y="710" on="1"/>
        <pt x="342" y="710" on="0"/>
        <pt x="416" y="674" on="0"/>
        <pt x="458" y="608" on="0"/>
        <pt x="458" y="564" on="1"/>
        <pt x="413" y="564" on="1"/>
        <pt x="413" y="614" on="0"/>
        <pt x="345" y="672" on="0"/>
        <pt x="297" y="672" on="1"/>
        <pt x="244" y="672" on="0"/>
        <pt x="178" y="613" on="0"/>
        <pt x="178" y="566" on="1"/>
        <pt x="178" y="531" on="0"/>
        <pt x="214" y="468" on="0"/>
        <pt x="253" y="428" on="1"/>
        <pt x="508" y="166" on="1"/>
        <pt x="536" y="206" on="0"/>
        <pt x="571" y="264" on="1"/>
        <pt x="627" y="361" on="1"/>
        <pt x="675" y="361" on="1"/>
        <pt x="607" y="243" on="1"/>
      </contour>
      <contour>
        <pt x="337" y="29" on="0"/>
        <pt x="436" y="79" on="0"/>
        <pt x="482" y="134" on="1"/>
        <pt x="236" y="384" on="1"/>
        <pt x="233" y="383" on="1"/>
        <pt x="86" y="329" on="0"/>
        <pt x="86" y="200" on="1"/>
        <pt x="86" y="151" on="0"/>
        <pt x="134" y="73" on="0"/>
        <pt x="219" y="29" on="0"/>
        <pt x="273" y="29" on="1"/>
      </contour>
    </TTGlyph>
    <TTGlyph name="ampersand.ss03" xMin="39" yMin="-7" xMax="663" yMax="719">
      <contour>
        <pt x="609" y="0" on="1"/>
        <pt x="429" y="201" on="1"/>
        <pt x="430" y="193" on="0"/>
        <pt x="430" y="174" on="1"/>
        <pt x="428" y="123" on="0"/>
        <pt x="377" y="40" on="0"/>
        <pt x="292" y="-7" on="0"/>
        <pt x="239" y="-7" on="1"/>
        <pt x="185" y="-7" on="0"/>
        <pt x="93" y="42" on="0"/>
        <pt x="39" y="135" on="0"/>
        <pt x="39" y="196" on="1"/>
        <pt x="39" y="257" on="0"/>
        <pt x="88" y="346" on="0"/>
        <pt x="171" y="392" on="0"/>
        <pt x="221" y="392" on="1"/>
        <pt x="250" y="392" on="0"/>
        <pt x="274" y="381" on="1"/>
        <pt x="249" y="408" on="1"/>
        <pt x="210" y="451" on="0"/>
        <pt x="172" y="521" on="0"/>
        <pt x="172" y="568" on="1"/>
        <pt x="172" y="607" on="0"/>
        <pt x="210" y="676" on="0"/>
        <pt x="284" y="719" on="0"/>
        <pt x="337" y="719" on="1"/>
        <pt x="394" y="719" on="0"/>
        <pt x="471" y="673" on="0"/>
        <pt x="508" y="599" on="0"/>
        <pt x="508" y="557" on="1"/>
        <pt x="508" y="540" on="0"/>
        <pt x="505" y="523" on="1"/>
        <pt x="460" y="523" on="1"/>
        <pt x="463" y="538" on="0"/>
        <pt x="463" y="552" on="1"/>
        <pt x="463" y="611" on="0"/>
        <pt x="395" y="680" on="0"/>
        <pt x="337" y="680" on="1"/>
        <pt x="281" y="680" on="0"/>
        <pt x="217" y="614" on="0"/>
        <pt x="217" y="567" on="1"/>
        <pt x="217" y="530" on="0"/>
        <pt x="245" y="476" on="0"/>
        <pt x="275" y="442" on="1"/>
        <pt x="663" y="0" on="1"/>
      </contour>
      <contour>
        <pt x="283" y="32" on="0"/>
        <pt x="352" y="72" on="0"/>
        <pt x="391" y="143" on="0"/>
        <pt x="391" y="186" on="1"/>
        <pt x="391" y="233" on="0"/>
        <pt x="343" y="310" on="0"/>
        <pt x="266" y="354" on="0"/>
        <pt x="225" y="354" on="1"/>
        <pt x="162" y="354" on="0"/>
        <pt x="80" y="271" on="0"/>
        <pt x="80" y="197" on="1"/>
        <pt x="80" y="147" on="0"/>
        <pt x="124" y="72" on="0"/>
        <pt x="197" y="32" on="0"/>
        <pt x="240" y="32" on="1"/>
      </contour>
    </TTGlyph>
    <TTGlyph name="aogonek" xMin="54" yMin="-196" xMax="591" yMax="550">
      <contour>
        <pt x="459" y="-61" on="0"/>
        <pt x="459" y="-109" on="1"/>
        <pt x="459" y="-135" on="0"/>
        <pt x="494" y="-162" on="0"/>
        <pt x="524" y="-162" on="1"/>
        <pt x="552" y="-162" on="0"/>
        <pt x="588" y="-149" on="1"/>
        <pt x="588" y="-183" on="1"/>
        <pt x="552" y="-196" on="0"/>
        <pt x="520" y="-196" on="1"/>
        <pt x="476" y="-196" on="0"/>
        <pt x="419" y="-154" on="0"/>
        <pt x="419" y="-113" on="1"/>
        <pt x="419" y="-45" on="0"/>
        <pt x="516" y="-1" on="1"/>
        <pt x="546" y="12" on="1"/>
        <pt x="546" y="143" on="1"/>
        <pt x="522" y="77" on="0"/>
        <pt x="401" y="-8" on="0"/>
        <pt x="316" y="-8" on="1"/>
        <pt x="240" y="-8" on="0"/>
        <pt x="121" y="61" on="0"/>
        <pt x="54" y="188" on="0"/>
        <pt x="54" y="272" on="1"/>
        <pt x="54" y="356" on="0"/>
        <pt x="121" y="482" on="0"/>
        <pt x="240" y="550" on="0"/>
        <pt x="316" y="550" on="1"/>
        <pt x="402" y="550" on="0"/>
        <pt x="522" y="466" on="0"/>
        <pt x="546" y="401" on="1"/>
        <pt x="546" y="543" on="1"/>
        <pt x="591" y="543" on="1"/>
        <pt x="591" y="0" on="1"/>
        <pt x="525" y="-31" on="1"/>
      </contour>
      <contour>
        <pt x="385" y="32" on="0"/>
        <pt x="488" y="91" on="0"/>
        <pt x="546" y="200" on="0"/>
        <pt x="546" y="272" on="1"/>
        <pt x="546" y="343" on="0"/>
        <pt x="487" y="452" on="0"/>
        <pt x="385" y="511" on="0"/>
        <pt x="322" y="511" on="1"/>
        <pt x="256" y="511" on="0"/>
        <pt x="156" y="454" on="0"/>
        <pt x="100" y="346" on="0"/>
        <pt x="100" y="272" on="1"/>
        <pt x="100" y="198" on="0"/>
        <pt x="156" y="90" on="0"/>
        <pt x="257" y="32" on="0"/>
        <pt x="322" y="32" on="1"/>
      </contour>
    </TTGlyph>
    <TTGlyph name="aogonek.ss02" xMin="54" yMin="-196" xMax="500" yMax="549">
      <contour>
        <pt x="368" y="-135" on="0"/>
        <pt x="403" y="-162" on="0"/>
        <pt x="433" y="-162" on="1"/>
        <pt x="461" y="-162" on="0"/>
        <pt x="497" y="-149" on="1"/>
        <pt x="497" y="-183" on="1"/>
        <pt x="461" y="-196" on="0"/>
        <pt x="429" y="-196" on="1"/>
        <pt x="385" y="-196" on="0"/>
        <pt x="328" y="-154" on="0"/>
        <pt x="328" y="-113" on="1"/>
        <pt x="328" y="-45" on="0"/>
        <pt x="425" y="-1" on="1"/>
        <pt x="455" y="12" on="1"/>
        <pt x="455" y="136" on="1"/>
        <pt x="431" y="71" on="0"/>
        <pt x="310" y="-10" on="0"/>
        <pt x="233" y="-10" on="1"/>
        <pt x="153" y="-10" on="0"/>
        <pt x="54" y="77" on="0"/>
        <pt x="54" y="148" on="1"/>
        <pt x="54" y="223" on="0"/>
        <pt x="160" y="314" on="0"/>
        <pt x="259" y="314" on="1"/>
        <pt x="455" y="314" on="1"/>
        <pt x="449" y="510" on="0"/>
        <pt x="286" y="510" on="1"/>
        <pt x="216" y="510" on="0"/>
        <pt x="123" y="430" on="0"/>
        <pt x="112" y="360" on="1"/>
        <pt x="69" y="360" on="1"/>
        <pt x="81" y="444" on="0"/>
        <pt x="196" y="549" on="0"/>
        <pt x="288" y="549" on="1"/>
        <pt x="385" y="549" on="0"/>
        <pt x="499" y="428" on="0"/>
        <pt x="499" y="316" on="1"/>
        <pt x="499" y="2" on="1"/>
        <pt x="500" y="0" on="1"/>
        <pt x="434" y="-31" on="1"/>
        <pt x="368" y="-61" on="0"/>
        <pt x="368" y="-109" on="1"/>
      </contour>
      <contour>
        <pt x="299" y="29" on="0"/>
        <pt x="397" y="84" on="0"/>
        <pt x="455" y="184" on="0"/>
        <pt x="455" y="249" on="1"/>
        <pt x="455" y="276" on="1"/>
        <pt x="259" y="276" on="1"/>
        <pt x="181" y="276" on="0"/>
        <pt x="98" y="208" on="0"/>
        <pt x="98" y="150" on="1"/>
        <pt x="98" y="95" on="0"/>
        <pt x="176" y="29" on="0"/>
        <pt x="240" y="29" on="1"/>
      </contour>
    </TTGlyph>
    <TTGlyph name="apostrophemod.ss01" xMin="27" yMin="588" xMax="106" yMax="756">
      <component glyphName="quoteright.ss01" x="0" y="0" flags="0x0"/>
    </TTGlyph>
    <TTGlyph name="approxequal" xMin="39" yMin="244" xMax="411" yMax="541">
      <component glyphName="asciitilde" x="0" y="-24" flags="0x4"/>
      <component glyphName="asciitilde" x="0" y="164" flags="0x4"/>
    </TTGlyph>
    <TTGlyph name="aring" xMin="54" yMin="-8" xMax="591" yMax="803">
      <component glyphName="a" x="0" y="0" flags="0x0"/>
      <component glyphName="ring" x="212" y="0" flags="0x0"/>
    </TTGlyph>
    <TTGlyph name="aring.ss02" xMin="54" yMin="-10" xMax="499" yMax="803">
      <component glyphName="ring" x="212" y="0" flags="0x0"/>
      <component glyphName="a.ss02" x="0" y="0" flags="0x0"/>
    </TTGlyph>
    <TTGlyph name="asciicircum" xMin="39" yMin="172" xMax="540" yMax="686">
      <contour>
        <pt x="85" y="172" on="1"/>
        <pt x="39" y="172" on="1"/>
        <pt x="271" y="686" on="1"/>
        <pt x="308" y="686" on="1"/>
        <pt x="540" y="172" on="1"/>
        <pt x="494" y="172" on="1"/>
        <pt x="291" y="628" on="1"/>
      </contour>
    </TTGlyph>
    <TTGlyph name="asciitilde" xMin="39" yMin="268" xMax="411" yMax="377">
      <contour>
        <pt x="60" y="377" on="0"/>
        <pt x="144" y="377" on="1"/>
        <pt x="169" y="377" on="0"/>
        <pt x="210" y="358" on="0"/>
        <pt x="237" y="340" on="1"/>
        <pt x="261" y="324" on="0"/>
        <pt x="292" y="309" on="0"/>
        <pt x="309" y="309" on="1"/>
        <pt x="337" y="309" on="0"/>
        <pt x="370" y="346" on="0"/>
        <pt x="374" y="376" on="1"/>
        <pt x="411" y="376" on="1"/>
        <pt x="394" y="268" on="0"/>
        <pt x="307" y="268" on="1"/>
        <pt x="283" y="268" on="0"/>
        <pt x="244" y="286" on="0"/>
        <pt x="217" y="304" on="1"/>
        <pt x="193" y="320" on="0"/>
        <pt x="160" y="336" on="0"/>
        <pt x="141" y="336" on="1"/>
        <pt x="114" y="336" on="0"/>
        <pt x="80" y="297" on="0"/>
        <pt x="75" y="268" on="1"/>
        <pt x="39" y="268" on="1"/>
      </contour>
    </TTGlyph>
    <TTGlyph name="asterisk" xMin="56" yMin="360" xMax="397" yMax="730">
      <contour>
        <pt x="376" y="652" on="1"/>
        <pt x="395" y="617" on="1"/>
        <pt x="251" y="546" on="1"/>
        <pt x="397" y="475" on="1"/>
        <pt x="377" y="440" on="1"/>
        <pt x="240" y="524" on="1"/>
        <pt x="247" y="360" on="1"/>
        <pt x="207" y="360" on="1"/>
        <pt x="214" y="524" on="1"/>
        <pt x="77" y="439" on="1"/>
        <pt x="56" y="475" on="1"/>
        <pt x="202" y="546" on="1"/>
        <pt x="58" y="617" on="1"/>
        <pt x="77" y="652" on="1"/>
        <pt x="214" y="567" on="1"/>
        <pt x="207" y="730" on="1"/>
        <pt x="247" y="730" on="1"/>
        <pt x="240" y="567" on="1"/>
      </contour>
    </TTGlyph>
    <TTGlyph name="at" xMin="77" yMin="-191" xMax="911" yMax="630">
      <contour>
        <pt x="661" y="630" on="0"/>
        <pt x="822" y="546" on="0"/>
        <pt x="911" y="396" on="0"/>
        <pt x="911" y="299" on="1"/>
        <pt x="911" y="221" on="0"/>
        <pt x="864" y="81" on="0"/>
        <pt x="776" y="-6" on="0"/>
        <pt x="716" y="-6" on="1"/>
        <pt x="668" y="-6" on="0"/>
        <pt x="621" y="53" on="0"/>
        <pt x="623" y="102" on="1"/>
        <pt x="593" y="51" on="0"/>
        <pt x="494" y="-6" on="0"/>
        <pt x="438" y="-6" on="1"/>
        <pt x="363" y="-6" on="0"/>
        <pt x="278" y="86" on="0"/>
        <pt x="278" y="164" on="1"/>
        <pt x="278" y="237" on="0"/>
        <pt x="339" y="364" on="0"/>
        <pt x="449" y="441" on="0"/>
        <pt x="518" y="441" on="1"/>
        <pt x="572" y="441" on="0"/>
        <pt x="645" y="389" on="0"/>
        <pt x="658" y="340" on="1"/>
        <pt x="673" y="428" on="1"/>
        <pt x="713" y="428" on="1"/>
        <pt x="662" y="135" on="1"/>
        <pt x="659" y="119" on="0"/>
        <pt x="659" y="103" on="1"/>
        <pt x="659" y="68" on="0"/>
        <pt x="692" y="28" on="0"/>
        <pt x="723" y="28" on="1"/>
        <pt x="768" y="28" on="0"/>
        <pt x="836" y="108" on="0"/>
        <pt x="872" y="231" on="0"/>
        <pt x="872" y="294" on="1"/>
        <pt x="872" y="386" on="0"/>
        <pt x="793" y="522" on="0"/>
        <pt x="647" y="596" on="0"/>
        <pt x="549" y="596" on="1"/>
        <pt x="428" y="596" on="0"/>
        <pt x="230" y="475" on="0"/>
        <pt x="117" y="268" on="0"/>
        <pt x="117" y="145" on="1"/>
        <pt x="117" y="51" on="0"/>
        <pt x="195" y="-84" on="0"/>
        <pt x="340" y="-156" on="0"/>
        <pt x="436" y="-156" on="1"/>
        <pt x="525" y="-156" on="0"/>
        <pt x="601" y="-123" on="1"/>
        <pt x="608" y="-157" on="1"/>
        <pt x="523" y="-191" on="0"/>
        <pt x="426" y="-191" on="1"/>
        <pt x="323" y="-191" on="0"/>
        <pt x="165" y="-110" on="0"/>
        <pt x="77" y="39" on="0"/>
        <pt x="77" y="139" on="1"/>
        <pt x="77" y="276" on="0"/>
        <pt x="201" y="500" on="0"/>
        <pt x="419" y="630" on="0"/>
        <pt x="555" y="630" on="1"/>
      </contour>
      <contour>
        <pt x="496" y="31" on="0"/>
        <pt x="576" y="78" on="0"/>
        <pt x="631" y="167" on="0"/>
        <pt x="639" y="227" on="1"/>
        <pt x="643" y="247" on="0"/>
        <pt x="643" y="269" on="1"/>
        <pt x="643" y="330" on="0"/>
        <pt x="578" y="405" on="0"/>
        <pt x="516" y="405" on="1"/>
        <pt x="458" y="405" on="0"/>
        <pt x="369" y="338" on="0"/>
        <pt x="321" y="230" on="0"/>
        <pt x="321" y="170" on="1"/>
        <pt x="321" y="106" on="0"/>
        <pt x="389" y="31" on="0"/>
        <pt x="450" y="31" on="1"/>
      </contour>
    </TTGlyph>
    <TTGlyph name="atilde" xMin="54" yMin="-8" xMax="591" yMax="685">
      <component glyphName="a" x="0" y="0" flags="0x0"/>
      <component glyphName="tilde" x="193" y="0" flags="0x0"/>
    </TTGlyph>
    <TTGlyph name="atilde.ss02" xMin="54" yMin="-10" xMax="499" yMax="685">
      <component glyphName="tilde" x="193" y="0" flags="0x0"/>
      <component glyphName="a.ss02" x="0" y="0" flags="0x0"/>
    </TTGlyph>
    <TTGlyph name="b" xMin="82" yMin="-8" xMax="619" yMax="740">
      <contour>
        <pt x="152" y="466" on="0"/>
        <pt x="272" y="550" on="0"/>
        <pt x="357" y="550" on="1"/>
        <pt x="433" y="550" on="0"/>
        <pt x="552" y="482" on="0"/>
        <pt x="619" y="356" on="0"/>
        <pt x="619" y="272" on="1"/>
        <pt x="619" y="188" on="0"/>
        <pt x="552" y="61" on="0"/>
        <pt x="433" y="-8" on="0"/>
        <pt x="357" y="-8" on="1"/>
        <pt x="272" y="-8" on="0"/>
        <pt x="151" y="76" on="0"/>
        <pt x="127" y="142" on="1"/>
        <pt x="127" y="0" on="1"/>
        <pt x="82" y="0" on="1"/>
        <pt x="82" y="740" on="1"/>
        <pt x="127" y="740" on="1"/>
        <pt x="127" y="400" on="1"/>
      </contour>
      <contour>
        <pt x="573" y="346" on="0"/>
        <pt x="517" y="454" on="0"/>
        <pt x="416" y="511" on="0"/>
        <pt x="350" y="511" on="1"/>
        <pt x="287" y="511" on="0"/>
        <pt x="185" y="452" on="0"/>
        <pt x="127" y="343" on="0"/>
        <pt x="127" y="272" on="1"/>
        <pt x="127" y="200" on="0"/>
        <pt x="185" y="91" on="0"/>
        <pt x="287" y="32" on="0"/>
        <pt x="350" y="32" on="1"/>
        <pt x="416" y="32" on="0"/>
        <pt x="517" y="90" on="0"/>
        <pt x="573" y="198" on="0"/>
        <pt x="573" y="272" on="1"/>
      </contour>
    </TTGlyph>
    <TTGlyph name="backslash" xMin="66" yMin="-161" xMax="450" yMax="937">
      <contour>
        <pt x="405" y="-161" on="1"/>
        <pt x="66" y="937" on="1"/>
        <pt x="112" y="937" on="1"/>
        <pt x="450" y="-161" on="1"/>
      </contour>
    </TTGlyph>
    <TTGlyph name="bar" xMin="90" yMin="-93" xMax="135" yMax="784">
      <contour>
        <pt x="135" y="-93" on="1"/>
        <pt x="90" y="-93" on="1"/>
        <pt x="90" y="784" on="1"/>
        <pt x="135" y="784" on="1"/>
      </contour>
    </TTGlyph>
    <TTGlyph name="braceleft" xMin="63" yMin="-186" xMax="329" yMax="931">
      <contour>
        <pt x="63" y="393" on="1"/>
        <pt x="128" y="411" on="0"/>
        <pt x="172" y="480" on="0"/>
        <pt x="172" y="524" on="1"/>
        <pt x="172" y="570" on="0"/>
        <pt x="159" y="650" on="1"/>
        <pt x="158" y="658" on="0"/>
        <pt x="146" y="748" on="0"/>
        <pt x="146" y="789" on="1"/>
        <pt x="146" y="862" on="0"/>
        <pt x="221" y="931" on="0"/>
        <pt x="289" y="931" on="1"/>
        <pt x="329" y="931" on="1"/>
        <pt x="329" y="891" on="1"/>
        <pt x="295" y="891" on="1"/>
        <pt x="244" y="891" on="0"/>
        <pt x="191" y="842" on="0"/>
        <pt x="191" y="787" on="1"/>
        <pt x="191" y="756" on="0"/>
        <pt x="199" y="681" on="0"/>
        <pt x="204" y="646" on="1"/>
        <pt x="209" y="614" on="0"/>
        <pt x="216" y="548" on="0"/>
        <pt x="216" y="523" on="1"/>
        <pt x="216" y="466" on="0"/>
        <pt x="159" y="388" on="0"/>
        <pt x="100" y="374" on="1"/>
        <pt x="100" y="372" on="1"/>
        <pt x="159" y="358" on="0"/>
        <pt x="216" y="279" on="0"/>
        <pt x="216" y="222" on="1"/>
        <pt x="216" y="197" on="0"/>
        <pt x="209" y="131" on="0"/>
        <pt x="204" y="99" on="1"/>
        <pt x="199" y="64" on="0"/>
        <pt x="191" y="-11" on="0"/>
        <pt x="191" y="-42" on="1"/>
        <pt x="191" y="-97" on="0"/>
        <pt x="244" y="-146" on="0"/>
        <pt x="295" y="-146" on="1"/>
        <pt x="329" y="-146" on="1"/>
        <pt x="329" y="-186" on="1"/>
        <pt x="289" y="-186" on="1"/>
        <pt x="221" y="-186" on="0"/>
        <pt x="146" y="-117" on="0"/>
        <pt x="146" y="-44" on="1"/>
        <pt x="146" y="-3" on="0"/>
        <pt x="158" y="87" on="0"/>
        <pt x="159" y="95" on="1"/>
        <pt x="172" y="175" on="0"/>
        <pt x="172" y="221" on="1"/>
        <pt x="172" y="265" on="0"/>
        <pt x="128" y="334" on="0"/>
        <pt x="63" y="352" on="1"/>
      </contour>
    </TTGlyph>
    <TTGlyph name="braceright" xMin="25" yMin="-186" xMax="291" yMax="931">
      <contour>
        <pt x="226" y="334" on="0"/>
        <pt x="182" y="265" on="0"/>
        <pt x="182" y="221" on="1"/>
        <pt x="182" y="175" on="0"/>
        <pt x="195" y="95" on="1"/>
        <pt x="196" y="87" on="0"/>
        <pt x="208" y="-3" on="0"/>
        <pt x="208" y="-44" on="1"/>
        <pt x="208" y="-117" on="0"/>
        <pt x="133" y="-186" on="0"/>
        <pt x="65" y="-186" on="1"/>
        <pt x="25" y="-186" on="1"/>
        <pt x="25" y="-146" on="1"/>
        <pt x="59" y="-146" on="1"/>
        <pt x="110" y="-146" on="0"/>
        <pt x="163" y="-97" on="0"/>
        <pt x="163" y="-42" on="1"/>
        <pt x="163" y="-11" on="0"/>
        <pt x="155" y="64" on="0"/>
        <pt x="150" y="99" on="1"/>
        <pt x="145" y="131" on="0"/>
        <pt x="138" y="197" on="0"/>
        <pt x="138" y="222" on="1"/>
        <pt x="138" y="279" on="0"/>
        <pt x="195" y="358" on="0"/>
        <pt x="254" y="372" on="1"/>
        <pt x="254" y="374" on="1"/>
        <pt x="195" y="388" on="0"/>
        <pt x="138" y="466" on="0"/>
        <pt x="138" y="523" on="1"/>
        <pt x="138" y="548" on="0"/>
        <pt x="145" y="614" on="0"/>
        <pt x="150" y="646" on="1"/>
        <pt x="155" y="681" on="0"/>
        <pt x="163" y="756" on="0"/>
        <pt x="163" y="787" on="1"/>
        <pt x="163" y="842" on="0"/>
        <pt x="110" y="891" on="0"/>
        <pt x="59" y="891" on="1"/>
        <pt x="25" y="891" on="1"/>
        <pt x="25" y="931" on="1"/>
        <pt x="65" y="931" on="1"/>
        <pt x="133" y="931" on="0"/>
        <pt x="208" y="862" on="0"/>
        <pt x="208" y="789" on="1"/>
        <pt x="208" y="748" on="0"/>
        <pt x="196" y="658" on="0"/>
        <pt x="195" y="650" on="1"/>
        <pt x="182" y="570" on="0"/>
        <pt x="182" y="524" on="1"/>
        <pt x="182" y="480" on="0"/>
        <pt x="226" y="411" on="0"/>
        <pt x="291" y="393" on="1"/>
        <pt x="291" y="352" on="1"/>
      </contour>
    </TTGlyph>
    <TTGlyph name="bracketleft" xMin="102" yMin="-185" xMax="226" yMax="934">
      <contour>
        <pt x="226" y="934" on="1"/>
        <pt x="226" y="896" on="1"/>
        <pt x="145" y="896" on="1"/>
        <pt x="145" y="-147" on="1"/>
        <pt x="226" y="-147" on="1"/>
        <pt x="226" y="-185" on="1"/>
        <pt x="102" y="-185" on="1"/>
        <pt x="102" y="934" on="1"/>
      </contour>
    </TTGlyph>
    <TTGlyph name="bracketright" xMin="74" yMin="-185" xMax="198" yMax="934">
      <contour>
        <pt x="198" y="-185" on="1"/>
        <pt x="74" y="-185" on="1"/>
        <pt x="74" y="-147" on="1"/>
        <pt x="155" y="-147" on="1"/>
        <pt x="155" y="896" on="1"/>
        <pt x="74" y="896" on="1"/>
        <pt x="74" y="934" on="1"/>
        <pt x="198" y="934" on="1"/>
      </contour>
    </TTGlyph>
    <TTGlyph name="breve" xMin="32" yMin="611" xMax="285" yMax="733">
      <contour>
        <pt x="285" y="677" on="0"/>
        <pt x="220" y="611" on="0"/>
        <pt x="159" y="611" on="1"/>
        <pt x="97" y="611" on="0"/>
        <pt x="32" y="677" on="0"/>
        <pt x="32" y="725" on="1"/>
        <pt x="32" y="733" on="1"/>
        <pt x="64" y="733" on="1"/>
        <pt x="64" y="692" on="0"/>
        <pt x="112" y="648" on="0"/>
        <pt x="159" y="648" on="1"/>
        <pt x="205" y="648" on="0"/>
        <pt x="253" y="692" on="0"/>
        <pt x="253" y="733" on="1"/>
        <pt x="285" y="733" on="1"/>
        <pt x="285" y="724" on="1"/>
      </contour>
    </TTGlyph>
    <TTGlyph name="brokenbar" xMin="90" yMin="-93" xMax="135" yMax="784">
      <contour>
        <pt x="90" y="784" on="1"/>
        <pt x="135" y="784" on="1"/>
        <pt x="135" y="424" on="1"/>
        <pt x="90" y="424" on="1"/>
      </contour>
      <contour>
        <pt x="135" y="-93" on="1"/>
        <pt x="90" y="-93" on="1"/>
        <pt x="90" y="268" on="1"/>
        <pt x="135" y="268" on="1"/>
      </contour>
    </TTGlyph>
    <TTGlyph name="bullet" xMin="49" yMin="227" xMax="262" yMax="441">
      <contour>
        <pt x="111" y="227" on="0"/>
        <pt x="49" y="289" on="0"/>
        <pt x="49" y="333" on="1"/>
        <pt x="49" y="378" on="0"/>
        <pt x="111" y="441" on="0"/>
        <pt x="155" y="441" on="1"/>
        <pt x="200" y="441" on="0"/>
        <pt x="262" y="378" on="0"/>
        <pt x="262" y="333" on="1"/>
        <pt x="262" y="289" on="0"/>
        <pt x="200" y="227" on="0"/>
        <pt x="155" y="227" on="1"/>
      </contour>
    </TTGlyph>
    <TTGlyph name="c" xMin="54" yMin="-8" xMax="566" yMax="550">
      <contour>
        <pt x="54" y="357" on="0"/>
        <pt x="121" y="483" on="0"/>
        <pt x="240" y="550" on="0"/>
        <pt x="317" y="550" on="1"/>
        <pt x="419" y="550" on="0"/>
        <pt x="550" y="448" on="0"/>
        <pt x="566" y="362" on="1"/>
        <pt x="519" y="362" on="1"/>
        <pt x="506" y="432" on="0"/>
        <pt x="397" y="512" on="0"/>
        <pt x="317" y="512" on="1"/>
        <pt x="257" y="512" on="0"/>
        <pt x="159" y="459" on="0"/>
        <pt x="100" y="350" on="0"/>
        <pt x="100" y="272" on="1"/>
        <pt x="100" y="193" on="0"/>
        <pt x="159" y="85" on="0"/>
        <pt x="257" y="31" on="0"/>
        <pt x="317" y="31" on="1"/>
        <pt x="397" y="31" on="0"/>
        <pt x="506" y="111" on="0"/>
        <pt x="519" y="181" on="1"/>
        <pt x="566" y="181" on="1"/>
        <pt x="550" y="96" on="0"/>
        <pt x="418" y="-8" on="0"/>
        <pt x="317" y="-8" on="1"/>
        <pt x="240" y="-8" on="0"/>
        <pt x="121" y="60" on="0"/>
        <pt x="54" y="187" on="0"/>
        <pt x="54" y="272" on="1"/>
      </contour>
    </TTGlyph>
    <TTGlyph name="cacute" xMin="54" yMin="-8" xMax="566" yMax="755">
      <component glyphName="c" x="0" y="0" flags="0x0"/>
      <component glyphName="acute" x="171" y="0" flags="0x0"/>
    </TTGlyph>
    <TTGlyph name="caron" xMin="32" yMin="610" xMax="289" yMax="730">
      <contour>
        <pt x="289" y="691" on="1"/>
        <pt x="161" y="610" on="1"/>
        <pt x="32" y="691" on="1"/>
        <pt x="32" y="730" on="1"/>
        <pt x="161" y="647" on="1"/>
        <pt x="289" y="730" on="1"/>
      </contour>
    </TTGlyph>
    <TTGlyph name="ccaron" xMin="54" yMin="-8" xMax="566" yMax="730">
      <component glyphName="c" x="0" y="0" flags="0x0"/>
      <component glyphName="caron" x="151" y="0" flags="0x0"/>
    </TTGlyph>
    <TTGlyph name="ccedilla" xMin="54" yMin="-256" xMax="566" yMax="550">
      <contour>
        <pt x="397" y="31" on="0"/>
        <pt x="506" y="111" on="0"/>
        <pt x="519" y="181" on="1"/>
        <pt x="566" y="181" on="1"/>
        <pt x="551" y="99" on="0"/>
        <pt x="428" y="-4" on="0"/>
        <pt x="332" y="-8" on="1"/>
        <pt x="332" y="-78" on="1"/>
        <pt x="393" y="-75" on="0"/>
        <pt x="459" y="-120" on="0"/>
        <pt x="459" y="-164" on="1"/>
        <pt x="459" y="-206" on="0"/>
        <pt x="400" y="-256" on="0"/>
        <pt x="347" y="-256" on="1"/>
        <pt x="266" y="-256" on="1"/>
        <pt x="266" y="-223" on="1"/>
        <pt x="339" y="-223" on="1"/>
        <pt x="382" y="-223" on="0"/>
        <pt x="419" y="-193" on="0"/>
        <pt x="419" y="-164" on="1"/>
        <pt x="419" y="-109" on="0"/>
        <pt x="339" y="-109" on="1"/>
        <pt x="297" y="-109" on="1"/>
        <pt x="297" y="-7" on="1"/>
        <pt x="226" y="-3" on="0"/>
        <pt x="116" y="67" on="0"/>
        <pt x="54" y="191" on="0"/>
        <pt x="54" y="272" on="1"/>
        <pt x="54" y="357" on="0"/>
        <pt x="121" y="483" on="0"/>
        <pt x="240" y="550" on="0"/>
        <pt x="317" y="550" on="1"/>
        <pt x="419" y="550" on="0"/>
        <pt x="550" y="448" on="0"/>
        <pt x="566" y="362" on="1"/>
        <pt x="519" y="362" on="1"/>
        <pt x="506" y="432" on="0"/>
        <pt x="397" y="512" on="0"/>
        <pt x="317" y="512" on="1"/>
        <pt x="257" y="512" on="0"/>
        <pt x="159" y="459" on="0"/>
        <pt x="100" y="350" on="0"/>
        <pt x="100" y="272" on="1"/>
        <pt x="100" y="193" on="0"/>
        <pt x="159" y="85" on="0"/>
        <pt x="257" y="31" on="0"/>
        <pt x="317" y="31" on="1"/>
      </contour>
    </TTGlyph>
    <TTGlyph name="cdotaccent" xMin="54" yMin="-8" xMax="566" yMax="685">
      <component glyphName="c" x="0" y="0" flags="0x0"/>
      <component glyphName="dotaccent" x="237" y="-16" flags="0x4"/>
    </TTGlyph>
    <TTGlyph name="cedilla" xMin="32" yMin="-256" xMax="225" yMax="7">
      <contour>
        <pt x="159" y="-75" on="0"/>
        <pt x="225" y="-120" on="0"/>
        <pt x="225" y="-164" on="1"/>
        <pt x="225" y="-206" on="0"/>
        <pt x="166" y="-256" on="0"/>
        <pt x="113" y="-256" on="1"/>
        <pt x="32" y="-256" on="1"/>
        <pt x="32" y="-223" on="1"/>
        <pt x="105" y="-223" on="1"/>
        <pt x="148" y="-223" on="0"/>
        <pt x="185" y="-193" on="0"/>
        <pt x="185" y="-164" on="1"/>
        <pt x="185" y="-109" on="0"/>
        <pt x="105" y="-109" on="1"/>
        <pt x="63" y="-109" on="1"/>
        <pt x="63" y="7" on="1"/>
        <pt x="98" y="7" on="1"/>
        <pt x="98" y="-78" on="1"/>
      </contour>
    </TTGlyph>
    <TTGlyph name="cent" xMin="62" yMin="-92" xMax="538" yMax="619">
      <contour>
        <pt x="383" y="55" on="0"/>
        <pt x="483" y="134" on="0"/>
        <pt x="495" y="203" on="1"/>
        <pt x="538" y="203" on="1"/>
        <pt x="526" y="122" on="0"/>
        <pt x="409" y="19" on="0"/>
        <pt x="318" y="16" on="1"/>
        <pt x="318" y="-92" on="1"/>
        <pt x="286" y="-92" on="1"/>
        <pt x="286" y="17" on="1"/>
        <pt x="184" y="24" on="0"/>
        <pt x="62" y="159" on="0"/>
        <pt x="62" y="267" on="1"/>
        <pt x="62" y="375" on="0"/>
        <pt x="184" y="510" on="0"/>
        <pt x="286" y="517" on="1"/>
        <pt x="286" y="619" on="1"/>
        <pt x="318" y="619" on="1"/>
        <pt x="318" y="518" on="1"/>
        <pt x="409" y="515" on="0"/>
        <pt x="526" y="413" on="0"/>
        <pt x="538" y="332" on="1"/>
        <pt x="495" y="332" on="1"/>
        <pt x="483" y="400" on="0"/>
        <pt x="383" y="480" on="0"/>
        <pt x="308" y="480" on="1"/>
        <pt x="252" y="480" on="0"/>
        <pt x="160" y="432" on="0"/>
        <pt x="105" y="336" on="0"/>
        <pt x="105" y="267" on="1"/>
        <pt x="105" y="198" on="0"/>
        <pt x="160" y="102" on="0"/>
        <pt x="252" y="55" on="0"/>
        <pt x="308" y="55" on="1"/>
      </contour>
    </TTGlyph>
    <TTGlyph name="circumflex" xMin="32" yMin="612" xMax="289" yMax="732">
      <contour>
        <pt x="161" y="694" on="1"/>
        <pt x="32" y="612" on="1"/>
        <pt x="32" y="650" on="1"/>
        <pt x="161" y="732" on="1"/>
        <pt x="289" y="650" on="1"/>
        <pt x="289" y="612" on="1"/>
      </contour>
    </TTGlyph>
    <TTGlyph name="colon" xMin="36" yMin="-3" xMax="113" yMax="519">
      <component glyphName="period" x="0" y="0" flags="0x0"/>
      <component glyphName="period" x="0" y="444" flags="0x4"/>
    </TTGlyph>
    <TTGlyph name="colon.ss01" xMin="41" yMin="0" xMax="112" yMax="516">
      <contour>
        <pt x="112" y="516" on="1"/>
        <pt x="112" y="445" on="1"/>
        <pt x="41" y="445" on="1"/>
        <pt x="41" y="516" on="1"/>
      </contour>
      <contour>
        <pt x="112" y="71" on="1"/>
        <pt x="112" y="0" on="1"/>
        <pt x="41" y="0" on="1"/>
        <pt x="41" y="71" on="1"/>
      </contour>
    </TTGlyph>
    <TTGlyph name="comma" xMin="-16" yMin="-151" xMax="112" yMax="105">
      <contour>
        <pt x="112" y="105" on="1"/>
        <pt x="18" y="-151" on="1"/>
        <pt x="-16" y="-151" on="1"/>
        <pt x="60" y="105" on="1"/>
      </contour>
    </TTGlyph>
    <TTGlyph name="comma.ss01" xMin="29" yMin="-100" xMax="110" yMax="53">
      <contour>
        <pt x="110" y="23" on="0"/>
        <pt x="110" y="-1" on="1"/>
        <pt x="110" y="-100" on="0"/>
        <pt x="29" y="-100" on="1"/>
        <pt x="29" y="-72" on="1"/>
        <pt x="75" y="-72" on="0"/>
        <pt x="75" y="-15" on="1"/>
        <pt x="75" y="-4" on="1"/>
        <pt x="36" y="-4" on="1"/>
        <pt x="36" y="53" on="1"/>
        <pt x="104" y="53" on="1"/>
      </contour>
    </TTGlyph>
    <TTGlyph name="copyright" xMin="56" yMin="-1" xMax="743" yMax="703">
      <contour>
        <pt x="501" y="703" on="0"/>
        <pt x="657" y="613" on="0"/>
        <pt x="743" y="453" on="0"/>
        <pt x="743" y="351" on="1"/>
        <pt x="743" y="249" on="0"/>
        <pt x="657" y="89" on="0"/>
        <pt x="501" y="-1" on="0"/>
        <pt x="400" y="-1" on="1"/>
        <pt x="299" y="-1" on="0"/>
        <pt x="143" y="89" on="0"/>
        <pt x="56" y="249" on="0"/>
        <pt x="56" y="351" on="1"/>
        <pt x="56" y="453" on="0"/>
        <pt x="143" y="613" on="0"/>
        <pt x="299" y="703" on="0"/>
        <pt x="400" y="703" on="1"/>
      </contour>
      <contour>
        <pt x="305" y="676" on="0"/>
        <pt x="161" y="593" on="0"/>
        <pt x="84" y="445" on="0"/>
        <pt x="84" y="351" on="1"/>
        <pt x="84" y="257" on="0"/>
        <pt x="161" y="109" on="0"/>
        <pt x="305" y="25" on="0"/>
        <pt x="400" y="25" on="1"/>
        <pt x="495" y="25" on="0"/>
        <pt x="638" y="109" on="0"/>
        <pt x="715" y="257" on="0"/>
        <pt x="715" y="351" on="1"/>
        <pt x="715" y="445" on="0"/>
        <pt x="638" y="593" on="0"/>
        <pt x="495" y="676" on="0"/>
        <pt x="400" y="676" on="1"/>
      </contour>
      <contour>
        <pt x="343" y="587" on="0"/>
        <pt x="244" y="532" on="0"/>
        <pt x="186" y="425" on="0"/>
        <pt x="186" y="352" on="1"/>
        <pt x="186" y="278" on="0"/>
        <pt x="244" y="171" on="0"/>
        <pt x="343" y="115" on="0"/>
        <pt x="402" y="115" on="1"/>
        <pt x="474" y="115" on="0"/>
        <pt x="585" y="196" on="0"/>
        <pt x="605" y="268" on="1"/>
        <pt x="562" y="268" on="1"/>
        <pt x="544" y="212" on="0"/>
        <pt x="458" y="151" on="0"/>
        <pt x="402" y="151" on="1"/>
        <pt x="355" y="151" on="0"/>
        <pt x="275" y="197" on="0"/>
        <pt x="228" y="287" on="0"/>
        <pt x="228" y="350" on="1"/>
        <pt x="228" y="414" on="0"/>
        <pt x="275" y="505" on="0"/>
        <pt x="355" y="551" on="0"/>
        <pt x="402" y="551" on="1"/>
        <pt x="457" y="551" on="0"/>
        <pt x="545" y="490" on="0"/>
        <pt x="562" y="434" on="1"/>
        <pt x="605" y="434" on="1"/>
        <pt x="585" y="507" on="0"/>
        <pt x="475" y="587" on="0"/>
        <pt x="402" y="587" on="1"/>
      </contour>
    </TTGlyph>
    <TTGlyph name="currency" xMin="69" yMin="183" xMax="443" yMax="573">
      <contour>
        <pt x="417" y="312" on="0"/>
        <pt x="382" y="266" on="1"/>
        <pt x="443" y="206" on="1"/>
        <pt x="420" y="183" on="1"/>
        <pt x="361" y="242" on="1"/>
        <pt x="316" y="203" on="0"/>
        <pt x="256" y="203" on="1"/>
        <pt x="193" y="203" on="0"/>
        <pt x="151" y="242" on="1"/>
        <pt x="93" y="183" on="1"/>
        <pt x="69" y="206" on="1"/>
        <pt x="130" y="266" on="1"/>
        <pt x="97" y="312" on="0"/>
        <pt x="97" y="377" on="1"/>
        <pt x="97" y="442" on="0"/>
        <pt x="131" y="489" on="1"/>
        <pt x="69" y="550" on="1"/>
        <pt x="93" y="573" on="1"/>
        <pt x="153" y="513" on="1"/>
        <pt x="197" y="551" on="0"/>
        <pt x="256" y="551" on="1"/>
        <pt x="315" y="551" on="0"/>
        <pt x="359" y="513" on="1"/>
        <pt x="420" y="573" on="1"/>
        <pt x="443" y="550" on="1"/>
        <pt x="382" y="489" on="1"/>
        <pt x="417" y="443" on="0"/>
        <pt x="417" y="377" on="1"/>
      </contour>
      <contour>
        <pt x="288" y="236" on="0"/>
        <pt x="343" y="270" on="0"/>
        <pt x="377" y="334" on="0"/>
        <pt x="377" y="377" on="1"/>
        <pt x="377" y="420" on="0"/>
        <pt x="344" y="485" on="0"/>
        <pt x="288" y="519" on="0"/>
        <pt x="256" y="519" on="1"/>
        <pt x="204" y="519" on="0"/>
        <pt x="137" y="442" on="0"/>
        <pt x="137" y="377" on="1"/>
        <pt x="137" y="311" on="0"/>
        <pt x="204" y="236" on="0"/>
        <pt x="256" y="236" on="1"/>
      </contour>
    </TTGlyph>
    <TTGlyph name="d" xMin="54" yMin="-8" xMax="591" yMax="740">
      <contour>
        <pt x="54" y="356" on="0"/>
        <pt x="121" y="482" on="0"/>
        <pt x="240" y="550" on="0"/>
        <pt x="316" y="550" on="1"/>
        <pt x="399" y="550" on="0"/>
        <pt x="521" y="467" on="0"/>
        <pt x="546" y="401" on="1"/>
        <pt x="546" y="740" on="1"/>
        <pt x="591" y="740" on="1"/>
        <pt x="591" y="0" on="1"/>
        <pt x="546" y="0" on="1"/>
        <pt x="546" y="144" on="1"/>
        <pt x="522" y="77" on="0"/>
        <pt x="402" y="-8" on="0"/>
        <pt x="316" y="-8" on="1"/>
        <pt x="240" y="-8" on="0"/>
        <pt x="121" y="61" on="0"/>
        <pt x="54" y="188" on="0"/>
        <pt x="54" y="272" on="1"/>
      </contour>
      <contour>
        <pt x="546" y="343" on="0"/>
        <pt x="487" y="452" on="0"/>
        <pt x="385" y="511" on="0"/>
        <pt x="322" y="511" on="1"/>
        <pt x="256" y="511" on="0"/>
        <pt x="156" y="454" on="0"/>
        <pt x="100" y="346" on="0"/>
        <pt x="100" y="272" on="1"/>
        <pt x="100" y="198" on="0"/>
        <pt x="156" y="90" on="0"/>
        <pt x="257" y="32" on="0"/>
        <pt x="322" y="32" on="1"/>
        <pt x="385" y="32" on="0"/>
        <pt x="488" y="91" on="0"/>
        <pt x="546" y="200" on="0"/>
        <pt x="546" y="272" on="1"/>
      </contour>
    </TTGlyph>
    <TTGlyph name="dagger" xMin="35" yMin="-256" xMax="435" yMax="776">
      <contour>
        <pt x="435" y="505" on="1"/>
        <pt x="253" y="509" on="1"/>
        <pt x="257" y="-256" on="1"/>
        <pt x="214" y="-256" on="1"/>
        <pt x="218" y="509" on="1"/>
        <pt x="35" y="505" on="1"/>
        <pt x="35" y="543" on="1"/>
        <pt x="218" y="538" on="1"/>
        <pt x="214" y="776" on="1"/>
        <pt x="257" y="776" on="1"/>
        <pt x="253" y="538" on="1"/>
        <pt x="435" y="543" on="1"/>
      </contour>
    </TTGlyph>
    <TTGlyph name="daggerdbl" xMin="35" yMin="-256" xMax="436" yMax="776">
      <contour>
        <pt x="253" y="509" on="1"/>
        <pt x="253" y="11" on="1"/>
        <pt x="436" y="17" on="1"/>
        <pt x="436" y="-22" on="1"/>
        <pt x="253" y="-18" on="1"/>
        <pt x="257" y="-256" on="1"/>
        <pt x="214" y="-256" on="1"/>
        <pt x="218" y="-18" on="1"/>
        <pt x="35" y="-22" on="1"/>
        <pt x="35" y="17" on="1"/>
        <pt x="218" y="11" on="1"/>
        <pt x="218" y="509" on="1"/>
        <pt x="35" y="505" on="1"/>
        <pt x="35" y="543" on="1"/>
        <pt x="218" y="538" on="1"/>
        <pt x="214" y="776" on="1"/>
        <pt x="257" y="776" on="1"/>
        <pt x="253" y="538" on="1"/>
        <pt x="436" y="543" on="1"/>
        <pt x="436" y="505" on="1"/>
      </contour>
    </TTGlyph>
    <TTGlyph name="danda" xMin="162" yMin="0" xMax="202" yMax="742">
      <contour>
        <pt x="202" y="742" on="1"/>
        <pt x="202" y="0" on="1"/>
        <pt x="162" y="0" on="1"/>
        <pt x="162" y="742" on="1"/>
      </contour>
    </TTGlyph>
    <TTGlyph name="dcaron" xMin="54" yMin="-8" xMax="720" yMax="740">
      <contour>
        <pt x="54" y="356" on="0"/>
        <pt x="121" y="482" on="0"/>
        <pt x="240" y="550" on="0"/>
        <pt x="316" y="550" on="1"/>
        <pt x="399" y="550" on="0"/>
        <pt x="521" y="467" on="0"/>
        <pt x="546" y="401" on="1"/>
        <pt x="546" y="740" on="1"/>
        <pt x="591" y="740" on="1"/>
        <pt x="591" y="0" on="1"/>
        <pt x="546" y="0" on="1"/>
        <pt x="546" y="144" on="1"/>
        <pt x="522" y="77" on="0"/>
        <pt x="402" y="-8" on="0"/>
        <pt x="316" y="-8" on="1"/>
        <pt x="240" y="-8" on="0"/>
        <pt x="121" y="61" on="0"/>
        <pt x="54" y="188" on="0"/>
        <pt x="54" y="272" on="1"/>
      </contour>
      <contour>
        <pt x="720" y="694" on="0"/>
        <pt x="720" y="663" on="1"/>
        <pt x="720" y="614" on="0"/>
        <pt x="680" y="573" on="0"/>
        <pt x="641" y="573" on="1"/>
        <pt x="641" y="601" on="1"/>
        <pt x="666" y="601" on="0"/>
        <pt x="687" y="624" on="0"/>
        <pt x="687" y="648" on="1"/>
        <pt x="687" y="675" on="1"/>
        <pt x="645" y="675" on="1"/>
        <pt x="645" y="740" on="1"/>
        <pt x="714" y="740" on="1"/>
      </contour>
      <contour>
        <pt x="546" y="343" on="0"/>
        <pt x="487" y="452" on="0"/>
        <pt x="385" y="511" on="0"/>
        <pt x="322" y="511" on="1"/>
        <pt x="256" y="511" on="0"/>
        <pt x="156" y="454" on="0"/>
        <pt x="100" y="346" on="0"/>
        <pt x="100" y="272" on="1"/>
        <pt x="100" y="198" on="0"/>
        <pt x="156" y="90" on="0"/>
        <pt x="257" y="32" on="0"/>
        <pt x="322" y="32" on="1"/>
        <pt x="385" y="32" on="0"/>
        <pt x="488" y="91" on="0"/>
        <pt x="546" y="200" on="0"/>
        <pt x="546" y="272" on="1"/>
      </contour>
    </TTGlyph>
    <TTGlyph name="dcroat" xMin="54" yMin="-8" xMax="656" yMax="740">
      <contour>
        <pt x="656" y="634" on="1"/>
        <pt x="591" y="634" on="1"/>
        <pt x="591" y="0" on="1"/>
        <pt x="546" y="0" on="1"/>
        <pt x="546" y="144" on="1"/>
        <pt x="522" y="77" on="0"/>
        <pt x="402" y="-8" on="0"/>
        <pt x="316" y="-8" on="1"/>
        <pt x="240" y="-8" on="0"/>
        <pt x="121" y="61" on="0"/>
        <pt x="54" y="188" on="0"/>
        <pt x="54" y="272" on="1"/>
        <pt x="54" y="356" on="0"/>
        <pt x="121" y="482" on="0"/>
        <pt x="240" y="550" on="0"/>
        <pt x="316" y="550" on="1"/>
        <pt x="399" y="550" on="0"/>
        <pt x="521" y="467" on="0"/>
        <pt x="546" y="401" on="1"/>
        <pt x="546" y="634" on="1"/>
        <pt x="374" y="634" on="1"/>
        <pt x="374" y="665" on="1"/>
        <pt x="546" y="665" on="1"/>
        <pt x="546" y="740" on="1"/>
        <pt x="591" y="740" on="1"/>
        <pt x="591" y="665" on="1"/>
        <pt x="656" y="665" on="1"/>
      </contour>
      <contour>
        <pt x="385" y="32" on="0"/>
        <pt x="488" y="91" on="0"/>
        <pt x="546" y="200" on="0"/>
        <pt x="546" y="272" on="1"/>
        <pt x="546" y="343" on="0"/>
        <pt x="487" y="452" on="0"/>
        <pt x="385" y="511" on="0"/>
        <pt x="322" y="511" on="1"/>
        <pt x="256" y="511" on="0"/>
        <pt x="156" y="454" on="0"/>
        <pt x="100" y="346" on="0"/>
        <pt x="100" y="272" on="1"/>
        <pt x="100" y="198" on="0"/>
        <pt x="156" y="90" on="0"/>
        <pt x="257" y="32" on="0"/>
        <pt x="322" y="32" on="1"/>
      </contour>
    </TTGlyph>
    <TTGlyph name="degree" xMin="29" yMin="347" xMax="345" yMax="694">
      <contour>
        <pt x="29" y="599" on="0"/>
        <pt x="117" y="694" on="0"/>
        <pt x="188" y="694" on="1"/>
        <pt x="258" y="694" on="0"/>
        <pt x="345" y="599" on="0"/>
        <pt x="345" y="521" on="1"/>
        <pt x="345" y="443" on="0"/>
        <pt x="258" y="347" on="0"/>
        <pt x="187" y="347" on="1"/>
        <pt x="116" y="347" on="0"/>
        <pt x="29" y="443" on="0"/>
        <pt x="29" y="521" on="1"/>
      </contour>
      <contour>
        <pt x="307" y="587" on="0"/>
        <pt x="241" y="663" on="0"/>
        <pt x="187" y="663" on="1"/>
        <pt x="134" y="663" on="0"/>
        <pt x="68" y="587" on="0"/>
        <pt x="68" y="521" on="1"/>
        <pt x="68" y="453" on="0"/>
        <pt x="133" y="378" on="0"/>
        <pt x="187" y="378" on="1"/>
        <pt x="241" y="378" on="0"/>
        <pt x="307" y="454" on="0"/>
        <pt x="307" y="521" on="1"/>
      </contour>
    </TTGlyph>
    <TTGlyph name="dieresis" xMin="49" yMin="625" xMax="268" yMax="701">
      <contour>
        <pt x="71" y="625" on="0"/>
        <pt x="49" y="647" on="0"/>
        <pt x="49" y="663" on="1"/>
        <pt x="49" y="679" on="0"/>
        <pt x="71" y="701" on="0"/>
        <pt x="87" y="701" on="1"/>
        <pt x="102" y="701" on="0"/>
        <pt x="125" y="679" on="0"/>
        <pt x="125" y="663" on="1"/>
        <pt x="125" y="647" on="0"/>
        <pt x="102" y="625" on="0"/>
        <pt x="87" y="625" on="1"/>
      </contour>
      <contour>
        <pt x="215" y="625" on="0"/>
        <pt x="193" y="647" on="0"/>
        <pt x="193" y="663" on="1"/>
        <pt x="193" y="679" on="0"/>
        <pt x="215" y="701" on="0"/>
        <pt x="231" y="701" on="1"/>
        <pt x="247" y="701" on="0"/>
        <pt x="268" y="679" on="0"/>
        <pt x="268" y="663" on="1"/>
        <pt x="268" y="647" on="0"/>
        <pt x="247" y="625" on="0"/>
        <pt x="231" y="625" on="1"/>
      </contour>
    </TTGlyph>
    <TTGlyph name="divide" xMin="53" yMin="123" xMax="563" yMax="630">
      <contour>
        <pt x="293" y="552" on="0"/>
        <pt x="271" y="574" on="0"/>
        <pt x="271" y="591" on="1"/>
        <pt x="271" y="608" on="0"/>
        <pt x="293" y="630" on="0"/>
        <pt x="310" y="630" on="1"/>
        <pt x="326" y="630" on="0"/>
        <pt x="348" y="608" on="0"/>
        <pt x="348" y="591" on="1"/>
        <pt x="348" y="574" on="0"/>
        <pt x="326" y="552" on="0"/>
        <pt x="310" y="552" on="1"/>
      </contour>
      <contour>
        <pt x="563" y="395" on="1"/>
        <pt x="563" y="356" on="1"/>
        <pt x="53" y="356" on="1"/>
        <pt x="53" y="395" on="1"/>
      </contour>
      <contour>
        <pt x="293" y="123" on="0"/>
        <pt x="271" y="145" on="0"/>
        <pt x="271" y="162" on="1"/>
        <pt x="271" y="179" on="0"/>
        <pt x="293" y="201" on="0"/>
        <pt x="310" y="201" on="1"/>
        <pt x="326" y="201" on="0"/>
        <pt x="348" y="179" on="0"/>
        <pt x="348" y="162" on="1"/>
        <pt x="348" y="145" on="0"/>
        <pt x="326" y="123" on="0"/>
        <pt x="310" y="123" on="1"/>
      </contour>
    </TTGlyph>
    <TTGlyph name="divide.ss01" xMin="53" yMin="128" xMax="563" yMax="624">
      <contour>
        <pt x="344" y="624" on="1"/>
        <pt x="344" y="553" on="1"/>
        <pt x="273" y="553" on="1"/>
        <pt x="273" y="624" on="1"/>
      </contour>
      <contour>
        <pt x="563" y="395" on="1"/>
        <pt x="563" y="355" on="1"/>
        <pt x="53" y="355" on="1"/>
        <pt x="53" y="395" on="1"/>
      </contour>
      <contour>
        <pt x="344" y="200" on="1"/>
        <pt x="344" y="128" on="1"/>
        <pt x="273" y="128" on="1"/>
        <pt x="273" y="200" on="1"/>
      </contour>
    </TTGlyph>
    <TTGlyph name="dollar" xMin="60" yMin="-87" xMax="494" yMax="796">
      <contour>
        <pt x="494" y="131" on="0"/>
        <pt x="451" y="47" on="0"/>
        <pt x="360" y="-7" on="0"/>
        <pt x="293" y="-7" on="1"/>
        <pt x="293" y="-87" on="1"/>
        <pt x="261" y="-87" on="1"/>
        <pt x="261" y="-6" on="1"/>
        <pt x="175" y="2" on="0"/>
        <pt x="67" y="103" on="0"/>
        <pt x="62" y="173" on="1"/>
        <pt x="109" y="173" on="1"/>
        <pt x="115" y="125" on="0"/>
        <pt x="192" y="41" on="0"/>
        <pt x="261" y="33" on="1"/>
        <pt x="261" y="341" on="1"/>
        <pt x="195" y="360" on="0"/>
        <pt x="115" y="396" on="0"/>
        <pt x="60" y="470" on="0"/>
        <pt x="60" y="532" on="1"/>
        <pt x="60" y="582" on="0"/>
        <pt x="107" y="662" on="0"/>
        <pt x="198" y="709" on="0"/>
        <pt x="261" y="709" on="1"/>
        <pt x="261" y="796" on="1"/>
        <pt x="293" y="796" on="1"/>
        <pt x="293" y="708" on="1"/>
        <pt x="373" y="700" on="0"/>
        <pt x="469" y="610" on="0"/>
        <pt x="480" y="548" on="1"/>
        <pt x="433" y="548" on="1"/>
        <pt x="424" y="589" on="0"/>
        <pt x="354" y="661" on="0"/>
        <pt x="293" y="669" on="1"/>
        <pt x="293" y="374" on="1"/>
        <pt x="357" y="356" on="0"/>
        <pt x="439" y="318" on="0"/>
        <pt x="494" y="241" on="0"/>
        <pt x="494" y="177" on="1"/>
      </contour>
      <contour>
        <pt x="106" y="488" on="0"/>
        <pt x="147" y="430" on="0"/>
        <pt x="212" y="397" on="0"/>
        <pt x="261" y="383" on="1"/>
        <pt x="261" y="671" on="1"/>
        <pt x="190" y="670" on="0"/>
        <pt x="106" y="599" on="0"/>
        <pt x="106" y="534" on="1"/>
      </contour>
      <contour>
        <pt x="368" y="32" on="0"/>
        <pt x="449" y="114" on="0"/>
        <pt x="449" y="175" on="1"/>
        <pt x="449" y="243" on="0"/>
        <pt x="368" y="309" on="0"/>
        <pt x="293" y="331" on="1"/>
        <pt x="293" y="31" on="1"/>
      </contour>
    </TTGlyph>
    <TTGlyph name="dotaccent" xMin="37" yMin="625" xMax="113" yMax="701">
      <contour>
        <pt x="59" y="625" on="0"/>
        <pt x="37" y="647" on="0"/>
        <pt x="37" y="663" on="1"/>
        <pt x="37" y="679" on="0"/>
        <pt x="59" y="701" on="0"/>
        <pt x="75" y="701" on="1"/>
        <pt x="91" y="701" on="0"/>
        <pt x="113" y="679" on="0"/>
        <pt x="113" y="663" on="1"/>
        <pt x="113" y="647" on="0"/>
        <pt x="91" y="625" on="0"/>
        <pt x="75" y="625" on="1"/>
      </contour>
    </TTGlyph>
    <TTGlyph name="dotlessi" xMin="82" yMin="0" xMax="127" yMax="543">
      <contour>
        <pt x="127" y="543" on="1"/>
        <pt x="127" y="0" on="1"/>
        <pt x="82" y="0" on="1"/>
        <pt x="82" y="543" on="1"/>
      </contour>
    </TTGlyph>
    <TTGlyph name="dottedcircle" xMin="50" yMin="-9" xMax="601" yMax="540">
      <contour>
        <pt x="344" y="479" on="0"/>
        <pt x="320" y="456" on="0"/>
        <pt x="301" y="456" on="1"/>
        <pt x="282" y="456" on="0"/>
        <pt x="258" y="479" on="0"/>
        <pt x="258" y="498" on="1"/>
        <pt x="258" y="517" on="0"/>
        <pt x="282" y="540" on="0"/>
        <pt x="301" y="540" on="1"/>
        <pt x="320" y="540" on="0"/>
        <pt x="344" y="517" on="0"/>
        <pt x="344" y="498" on="1"/>
      </contour>
      <contour>
        <pt x="465" y="464" on="0"/>
        <pt x="441" y="441" on="0"/>
        <pt x="422" y="441" on="1"/>
        <pt x="403" y="441" on="0"/>
        <pt x="379" y="464" on="0"/>
        <pt x="379" y="483" on="1"/>
        <pt x="379" y="502" on="0"/>
        <pt x="403" y="525" on="0"/>
        <pt x="422" y="525" on="1"/>
        <pt x="441" y="525" on="0"/>
        <pt x="465" y="502" on="0"/>
        <pt x="465" y="483" on="1"/>
      </contour>
      <contour>
        <pt x="227" y="437" on="0"/>
        <pt x="203" y="414" on="0"/>
        <pt x="184" y="414" on="1"/>
        <pt x="165" y="414" on="0"/>
        <pt x="141" y="437" on="0"/>
        <pt x="141" y="456" on="1"/>
        <pt x="141" y="475" on="0"/>
        <pt x="165" y="498" on="0"/>
        <pt x="184" y="498" on="1"/>
        <pt x="203" y="498" on="0"/>
        <pt x="227" y="475" on="0"/>
        <pt x="227" y="456" on="1"/>
      </contour>
      <contour>
        <pt x="557" y="390" on="0"/>
        <pt x="533" y="367" on="0"/>
        <pt x="514" y="367" on="1"/>
        <pt x="495" y="367" on="0"/>
        <pt x="471" y="390" on="0"/>
        <pt x="471" y="409" on="1"/>
        <pt x="471" y="428" on="0"/>
        <pt x="495" y="451" on="0"/>
        <pt x="514" y="451" on="1"/>
        <pt x="533" y="451" on="0"/>
        <pt x="557" y="428" on="0"/>
        <pt x="557" y="409" on="1"/>
      </contour>
      <contour>
        <pt x="151" y="338" on="0"/>
        <pt x="127" y="315" on="0"/>
        <pt x="108" y="315" on="1"/>
        <pt x="89" y="315" on="0"/>
        <pt x="65" y="338" on="0"/>
        <pt x="65" y="357" on="1"/>
        <pt x="65" y="376" on="0"/>
        <pt x="89" y="399" on="0"/>
        <pt x="108" y="399" on="1"/>
        <pt x="127" y="399" on="0"/>
        <pt x="151" y="376" on="0"/>
        <pt x="151" y="357" on="1"/>
      </contour>
      <contour>
        <pt x="601" y="276" on="0"/>
        <pt x="577" y="253" on="0"/>
        <pt x="558" y="253" on="1"/>
        <pt x="539" y="253" on="0"/>
        <pt x="515" y="276" on="0"/>
        <pt x="515" y="295" on="1"/>
        <pt x="515" y="314" on="0"/>
        <pt x="539" y="337" on="0"/>
        <pt x="558" y="337" on="1"/>
        <pt x="577" y="337" on="0"/>
        <pt x="601" y="314" on="0"/>
        <pt x="601" y="295" on="1"/>
      </contour>
      <contour>
        <pt x="136" y="217" on="0"/>
        <pt x="112" y="194" on="0"/>
        <pt x="93" y="194" on="1"/>
        <pt x="74" y="194" on="0"/>
        <pt x="50" y="217" on="0"/>
        <pt x="50" y="236" on="1"/>
        <pt x="50" y="255" on="0"/>
        <pt x="74" y="278" on="0"/>
        <pt x="93" y="278" on="1"/>
        <pt x="112" y="278" on="0"/>
        <pt x="136" y="255" on="0"/>
        <pt x="136" y="236" on="1"/>
      </contour>
      <contour>
        <pt x="591" y="156" on="0"/>
        <pt x="567" y="133" on="0"/>
        <pt x="548" y="133" on="1"/>
        <pt x="529" y="133" on="0"/>
        <pt x="505" y="156" on="0"/>
        <pt x="505" y="175" on="1"/>
        <pt x="505" y="194" on="0"/>
        <pt x="529" y="217" on="0"/>
        <pt x="548" y="217" on="1"/>
        <pt x="567" y="217" on="0"/>
        <pt x="591" y="194" on="0"/>
        <pt x="591" y="175" on="1"/>
      </contour>
      <contour>
        <pt x="181" y="104" on="0"/>
        <pt x="157" y="81" on="0"/>
        <pt x="138" y="81" on="1"/>
        <pt x="119" y="81" on="0"/>
        <pt x="95" y="104" on="0"/>
        <pt x="95" y="123" on="1"/>
        <pt x="95" y="142" on="0"/>
        <pt x="119" y="165" on="0"/>
        <pt x="138" y="165" on="1"/>
        <pt x="157" y="165" on="0"/>
        <pt x="181" y="142" on="0"/>
        <pt x="181" y="123" on="1"/>
      </contour>
      <contour>
        <pt x="518" y="60" on="0"/>
        <pt x="494" y="37" on="0"/>
        <pt x="475" y="37" on="1"/>
        <pt x="456" y="37" on="0"/>
        <pt x="432" y="60" on="0"/>
        <pt x="432" y="79" on="1"/>
        <pt x="432" y="98" on="0"/>
        <pt x="456" y="121" on="0"/>
        <pt x="475" y="121" on="1"/>
        <pt x="494" y="121" on="0"/>
        <pt x="518" y="98" on="0"/>
        <pt x="518" y="79" on="1"/>
      </contour>
      <contour>
        <pt x="279" y="28" on="0"/>
        <pt x="255" y="5" on="0"/>
        <pt x="236" y="5" on="1"/>
        <pt x="217" y="5" on="0"/>
        <pt x="193" y="28" on="0"/>
        <pt x="193" y="47" on="1"/>
        <pt x="193" y="66" on="0"/>
        <pt x="217" y="89" on="0"/>
        <pt x="236" y="89" on="1"/>
        <pt x="255" y="89" on="0"/>
        <pt x="279" y="66" on="0"/>
        <pt x="279" y="47" on="1"/>
      </contour>
      <contour>
        <pt x="403" y="14" on="0"/>
        <pt x="379" y="-9" on="0"/>
        <pt x="360" y="-9" on="1"/>
        <pt x="341" y="-9" on="0"/>
        <pt x="317" y="14" on="0"/>
        <pt x="317" y="33" on="1"/>
        <pt x="317" y="52" on="0"/>
        <pt x="341" y="75" on="0"/>
        <pt x="360" y="75" on="1"/>
        <pt x="379" y="75" on="0"/>
        <pt x="403" y="52" on="0"/>
        <pt x="403" y="33" on="1"/>
      </contour>
    </TTGlyph>
    <TTGlyph name="doubledanda" xMin="162" yMin="0" xMax="377" yMax="742">
      <contour>
        <pt x="202" y="742" on="1"/>
        <pt x="202" y="0" on="1"/>
        <pt x="162" y="0" on="1"/>
        <pt x="162" y="742" on="1"/>
      </contour>
      <contour>
        <pt x="377" y="742" on="1"/>
        <pt x="377" y="0" on="1"/>
        <pt x="336" y="0" on="1"/>
        <pt x="336" y="742" on="1"/>
      </contour>
    </TTGlyph>
    <TTGlyph name="dvA" xMin="82" yMin="0" xMax="853" yMax="749">
      <contour>
        <pt x="853" y="740" on="1"/>
        <pt x="853" y="705" on="1"/>
        <pt x="701" y="705" on="1"/>
        <pt x="701" y="0" on="1"/>
        <pt x="661" y="0" on="1"/>
        <pt x="661" y="365" on="1"/>
        <pt x="449" y="366" on="1"/>
        <pt x="472" y="342" on="0"/>
        <pt x="496" y="277" on="0"/>
        <pt x="496" y="241" on="1"/>
        <pt x="496" y="155" on="0"/>
        <pt x="387" y="50" on="0"/>
        <pt x="296" y="50" on="1"/>
        <pt x="235" y="50" on="0"/>
        <pt x="137" y="100" on="0"/>
        <pt x="82" y="190" on="0"/>
        <pt x="82" y="248" on="1"/>
        <pt x="120" y="248" on="1"/>
        <pt x="120" y="201" on="0"/>
        <pt x="165" y="127" on="0"/>
        <pt x="244" y="86" on="0"/>
        <pt x="293" y="86" on="1"/>
        <pt x="368" y="86" on="0"/>
        <pt x="458" y="173" on="0"/>
        <pt x="458" y="243" on="1"/>
        <pt x="458" y="282" on="0"/>
        <pt x="423" y="353" on="0"/>
        <pt x="348" y="398" on="0"/>
        <pt x="290" y="398" on="1"/>
        <pt x="254" y="398" on="1"/>
        <pt x="254" y="433" on="1"/>
        <pt x="290" y="433" on="1"/>
        <pt x="341" y="433" on="0"/>
        <pt x="411" y="472" on="0"/>
        <pt x="445" y="534" on="0"/>
        <pt x="445" y="568" on="1"/>
        <pt x="445" y="635" on="0"/>
        <pt x="357" y="714" on="0"/>
        <pt x="291" y="714" on="1"/>
        <pt x="221" y="714" on="0"/>
        <pt x="128" y="637" on="0"/>
        <pt x="128" y="572" on="1"/>
        <pt x="90" y="572" on="1"/>
        <pt x="90" y="653" on="0"/>
        <pt x="203" y="749" on="0"/>
        <pt x="291" y="749" on="1"/>
        <pt x="345" y="749" on="0"/>
        <pt x="432" y="706" on="0"/>
        <pt x="482" y="626" on="0"/>
        <pt x="482" y="574" on="1"/>
        <pt x="482" y="514" on="0"/>
        <pt x="416" y="429" on="0"/>
        <pt x="351" y="417" on="1"/>
        <pt x="351" y="416" on="1"/>
        <pt x="380" y="412" on="0"/>
        <pt x="405" y="399" on="1"/>
        <pt x="661" y="399" on="1"/>
        <pt x="661" y="740" on="1"/>
      </contour>
    </TTGlyph>
    <TTGlyph name="dvAA" xMin="82" yMin="0" xMax="1132" yMax="749">
      <contour>
        <pt x="1132" y="705" on="1"/>
        <pt x="981" y="705" on="1"/>
        <pt x="981" y="0" on="1"/>
        <pt x="940" y="0" on="1"/>
        <pt x="940" y="705" on="1"/>
        <pt x="701" y="705" on="1"/>
        <pt x="701" y="0" on="1"/>
        <pt x="661" y="0" on="1"/>
        <pt x="661" y="365" on="1"/>
        <pt x="449" y="366" on="1"/>
        <pt x="472" y="342" on="0"/>
        <pt x="496" y="277" on="0"/>
        <pt x="496" y="241" on="1"/>
        <pt x="496" y="155" on="0"/>
        <pt x="387" y="50" on="0"/>
        <pt x="296" y="50" on="1"/>
        <pt x="235" y="50" on="0"/>
        <pt x="137" y="100" on="0"/>
        <pt x="82" y="190" on="0"/>
        <pt x="82" y="248" on="1"/>
        <pt x="120" y="248" on="1"/>
        <pt x="120" y="201" on="0"/>
        <pt x="165" y="127" on="0"/>
        <pt x="244" y="86" on="0"/>
        <pt x="293" y="86" on="1"/>
        <pt x="368" y="86" on="0"/>
        <pt x="458" y="173" on="0"/>
        <pt x="458" y="243" on="1"/>
        <pt x="458" y="282" on="0"/>
        <pt x="423" y="353" on="0"/>
        <pt x="348" y="398" on="0"/>
        <pt x="290" y="398" on="1"/>
        <pt x="254" y="398" on="1"/>
        <pt x="254" y="433" on="1"/>
        <pt x="290" y="433" on="1"/>
        <pt x="341" y="433" on="0"/>
        <pt x="411" y="472" on="0"/>
        <pt x="445" y="534" on="0"/>
        <pt x="445" y="568" on="1"/>
        <pt x="445" y="635" on="0"/>
        <pt x="357" y="714" on="0"/>
        <pt x="291" y="714" on="1"/>
        <pt x="221" y="714" on="0"/>
        <pt x="128" y="637" on="0"/>
        <pt x="128" y="572" on="1"/>
        <pt x="90" y="572" on="1"/>
        <pt x="90" y="653" on="0"/>
        <pt x="203" y="749" on="0"/>
        <pt x="291" y="749" on="1"/>
        <pt x="345" y="749" on="0"/>
        <pt x="432" y="706" on="0"/>
        <pt x="482" y="626" on="0"/>
        <pt x="482" y="574" on="1"/>
        <pt x="482" y="514" on="0"/>
        <pt x="416" y="429" on="0"/>
        <pt x="351" y="417" on="1"/>
        <pt x="351" y="416" on="1"/>
        <pt x="380" y="412" on="0"/>
        <pt x="405" y="399" on="1"/>
        <pt x="661" y="399" on="1"/>
        <pt x="661" y="740" on="1"/>
        <pt x="1132" y="740" on="1"/>
      </contour>
    </TTGlyph>
    <TTGlyph name="dvAI" xMin="-32" yMin="19" xMax="683" yMax="970">
      <contour>
        <pt x="376" y="407" on="0"/>
        <pt x="390" y="407" on="1"/>
        <pt x="458" y="407" on="0"/>
        <pt x="517" y="484" on="0"/>
        <pt x="517" y="569" on="1"/>
        <pt x="517" y="705" on="1"/>
        <pt x="154" y="705" on="1"/>
        <pt x="154" y="276" on="1"/>
        <pt x="154" y="172" on="0"/>
        <pt x="251" y="55" on="0"/>
        <pt x="347" y="55" on="1"/>
        <pt x="435" y="55" on="0"/>
        <pt x="531" y="157" on="0"/>
        <pt x="531" y="249" on="1"/>
        <pt x="571" y="249" on="1"/>
        <pt x="571" y="141" on="0"/>
        <pt x="453" y="19" on="0"/>
        <pt x="348" y="19" on="1"/>
        <pt x="231" y="19" on="0"/>
        <pt x="114" y="156" on="0"/>
        <pt x="114" y="276" on="1"/>
        <pt x="114" y="705" on="1"/>
        <pt x="-32" y="705" on="1"/>
        <pt x="-32" y="740" on="1"/>
        <pt x="516" y="740" on="1"/>
        <pt x="458" y="831" on="0"/>
        <pt x="382" y="913" on="0"/>
        <pt x="314" y="936" on="0"/>
        <pt x="257" y="936" on="1"/>
        <pt x="221" y="936" on="1"/>
        <pt x="221" y="970" on="1"/>
        <pt x="256" y="970" on="1"/>
        <pt x="323" y="970" on="0"/>
        <pt x="402" y="944" on="0"/>
        <pt x="490" y="847" on="0"/>
        <pt x="555" y="740" on="1"/>
        <pt x="683" y="740" on="1"/>
        <pt x="683" y="705" on="1"/>
        <pt x="557" y="705" on="1"/>
        <pt x="557" y="568" on="1"/>
        <pt x="557" y="465" on="0"/>
        <pt x="483" y="371" on="0"/>
        <pt x="398" y="371" on="1"/>
        <pt x="378" y="371" on="0"/>
        <pt x="368" y="372" on="1"/>
        <pt x="368" y="408" on="1"/>
      </contour>
    </TTGlyph>
    <TTGlyph name="dvAU" xMin="82" yMin="0" xMax="1132" yMax="1024">
      <contour>
        <pt x="1132" y="740" on="1"/>
        <pt x="1132" y="705" on="1"/>
        <pt x="981" y="705" on="1"/>
        <pt x="981" y="0" on="1"/>
        <pt x="940" y="0" on="1"/>
        <pt x="940" y="705" on="1"/>
        <pt x="701" y="705" on="1"/>
        <pt x="701" y="0" on="1"/>
        <pt x="661" y="0" on="1"/>
        <pt x="661" y="365" on="1"/>
        <pt x="449" y="366" on="1"/>
        <pt x="472" y="342" on="0"/>
        <pt x="496" y="277" on="0"/>
        <pt x="496" y="241" on="1"/>
        <pt x="496" y="155" on="0"/>
        <pt x="387" y="50" on="0"/>
        <pt x="296" y="50" on="1"/>
        <pt x="235" y="50" on="0"/>
        <pt x="137" y="100" on="0"/>
        <pt x="82" y="190" on="0"/>
        <pt x="82" y="248" on="1"/>
        <pt x="120" y="248" on="1"/>
        <pt x="120" y="201" on="0"/>
        <pt x="165" y="127" on="0"/>
        <pt x="244" y="86" on="0"/>
        <pt x="293" y="86" on="1"/>
        <pt x="368" y="86" on="0"/>
        <pt x="458" y="173" on="0"/>
        <pt x="458" y="243" on="1"/>
        <pt x="458" y="282" on="0"/>
        <pt x="423" y="353" on="0"/>
        <pt x="348" y="398" on="0"/>
        <pt x="290" y="398" on="1"/>
        <pt x="254" y="398" on="1"/>
        <pt x="254" y="433" on="1"/>
        <pt x="290" y="433" on="1"/>
        <pt x="341" y="433" on="0"/>
        <pt x="411" y="472" on="0"/>
        <pt x="445" y="534" on="0"/>
        <pt x="445" y="568" on="1"/>
        <pt x="445" y="635" on="0"/>
        <pt x="357" y="714" on="0"/>
        <pt x="291" y="714" on="1"/>
        <pt x="221" y="714" on="0"/>
        <pt x="128" y="637" on="0"/>
        <pt x="128" y="572" on="1"/>
        <pt x="90" y="572" on="1"/>
        <pt x="90" y="653" on="0"/>
        <pt x="203" y="749" on="0"/>
        <pt x="291" y="749" on="1"/>
        <pt x="345" y="749" on="0"/>
        <pt x="432" y="706" on="0"/>
        <pt x="482" y="626" on="0"/>
        <pt x="482" y="574" on="1"/>
        <pt x="482" y="514" on="0"/>
        <pt x="416" y="429" on="0"/>
        <pt x="351" y="417" on="1"/>
        <pt x="351" y="416" on="1"/>
        <pt x="380" y="412" on="0"/>
        <pt x="405" y="399" on="1"/>
        <pt x="661" y="399" on="1"/>
        <pt x="661" y="740" on="1"/>
        <pt x="941" y="740" on="1"/>
        <pt x="881" y="792" on="0"/>
        <pt x="805" y="837" on="0"/>
        <pt x="737" y="850" on="0"/>
        <pt x="678" y="850" on="1"/>
        <pt x="642" y="850" on="1"/>
        <pt x="642" y="879" on="1"/>
        <pt x="677" y="879" on="1"/>
        <pt x="736" y="879" on="0"/>
        <pt x="803" y="869" on="0"/>
        <pt x="876" y="827" on="0"/>
        <pt x="929" y="780" on="1"/>
        <pt x="875" y="880" on="0"/>
        <pt x="800" y="970" on="0"/>
        <pt x="734" y="994" on="0"/>
        <pt x="678" y="994" on="1"/>
        <pt x="642" y="994" on="1"/>
        <pt x="642" y="1024" on="1"/>
        <pt x="678" y="1024" on="1"/>
        <pt x="745" y="1024" on="0"/>
        <pt x="822" y="993" on="0"/>
        <pt x="910" y="875" on="0"/>
        <pt x="978" y="740" on="1"/>
      </contour>
    </TTGlyph>
    <TTGlyph name="dvAbbreviationsign" xMin="89" yMin="198" xMax="414" yMax="514">
      <contour>
        <pt x="325" y="514" on="0"/>
        <pt x="414" y="425" on="0"/>
        <pt x="414" y="354" on="1"/>
        <pt x="414" y="286" on="0"/>
        <pt x="324" y="198" on="0"/>
        <pt x="254" y="198" on="1"/>
        <pt x="207" y="198" on="0"/>
        <pt x="131" y="239" on="0"/>
        <pt x="89" y="311" on="0"/>
        <pt x="89" y="356" on="1"/>
        <pt x="89" y="401" on="0"/>
        <pt x="131" y="473" on="0"/>
        <pt x="207" y="514" on="0"/>
        <pt x="254" y="514" on="1"/>
      </contour>
      <contour>
        <pt x="195" y="485" on="0"/>
        <pt x="119" y="413" on="0"/>
        <pt x="119" y="356" on="1"/>
        <pt x="119" y="299" on="0"/>
        <pt x="195" y="227" on="0"/>
        <pt x="254" y="227" on="1"/>
        <pt x="311" y="227" on="0"/>
        <pt x="384" y="298" on="0"/>
        <pt x="384" y="354" on="1"/>
        <pt x="384" y="412" on="0"/>
        <pt x="311" y="485" on="0"/>
        <pt x="254" y="485" on="1"/>
      </contour>
    </TTGlyph>
    <TTGlyph name="dvAcandra" xMin="82" yMin="0" xMax="872" yMax="1005">
      <component glyphName="dvA" x="0" y="0" flags="0x0"/>
      <component glyphName="dvmEcandra" x="831" y="27" flags="0x4"/>
    </TTGlyph>
    <TTGlyph name="dvAnusvara" xMin="-175" yMin="848" xMax="-104" yMax="918">
      <contour>
        <pt x="-104" y="868" on="0"/>
        <pt x="-124" y="848" on="0"/>
        <pt x="-139" y="848" on="1"/>
        <pt x="-155" y="848" on="0"/>
        <pt x="-175" y="868" on="0"/>
        <pt x="-175" y="883" on="1"/>
        <pt x="-175" y="898" on="0"/>
        <pt x="-155" y="918" on="0"/>
        <pt x="-139" y="918" on="1"/>
        <pt x="-124" y="918" on="0"/>
        <pt x="-104" y="898" on="0"/>
        <pt x="-104" y="883" on="1"/>
      </contour>
    </TTGlyph>
    <TTGlyph name="dvAnusvara.amI" xMin="81" yMin="848" xMax="152" yMax="918">
      <component glyphName="dvAnusvara" x="256" y="0" flags="0x0"/>
    </TTGlyph>
    <TTGlyph name="dvAvagraha" xMin="87" yMin="70" xMax="472" yMax="672">
      <contour>
        <pt x="87" y="70" on="1"/>
        <pt x="87" y="106" on="1"/>
        <pt x="319" y="106" on="1"/>
        <pt x="367" y="106" on="0"/>
        <pt x="419" y="150" on="0"/>
        <pt x="419" y="184" on="1"/>
        <pt x="419" y="225" on="0"/>
        <pt x="355" y="300" on="0"/>
        <pt x="291" y="353" on="1"/>
        <pt x="242" y="395" on="0"/>
        <pt x="183" y="454" on="0"/>
        <pt x="142" y="525" on="0"/>
        <pt x="142" y="564" on="1"/>
        <pt x="142" y="622" on="0"/>
        <pt x="220" y="672" on="0"/>
        <pt x="282" y="672" on="1"/>
        <pt x="472" y="672" on="1"/>
        <pt x="472" y="637" on="1"/>
        <pt x="290" y="637" on="1"/>
        <pt x="241" y="637" on="0"/>
        <pt x="183" y="603" on="0"/>
        <pt x="183" y="560" on="1"/>
        <pt x="183" y="517" on="0"/>
        <pt x="248" y="440" on="0"/>
        <pt x="314" y="384" on="1"/>
        <pt x="386" y="323" on="0"/>
        <pt x="460" y="233" on="0"/>
        <pt x="460" y="180" on="1"/>
        <pt x="460" y="134" on="0"/>
        <pt x="393" y="70" on="0"/>
        <pt x="326" y="70" on="1"/>
      </contour>
    </TTGlyph>
    <TTGlyph name="dvB" xMin="-32" yMin="110" xMax="566" yMax="740">
      <contour>
        <pt x="566" y="740" on="1"/>
        <pt x="566" y="705" on="1"/>
        <pt x="-32" y="705" on="1"/>
        <pt x="-32" y="740" on="1"/>
      </contour>
      <contour>
        <pt x="402" y="585" on="0"/>
        <pt x="512" y="514" on="0"/>
        <pt x="565" y="405" on="0"/>
        <pt x="565" y="347" on="1"/>
        <pt x="565" y="283" on="0"/>
        <pt x="507" y="175" on="0"/>
        <pt x="398" y="110" on="0"/>
        <pt x="325" y="110" on="1"/>
        <pt x="257" y="110" on="0"/>
        <pt x="145" y="168" on="0"/>
        <pt x="80" y="274" on="0"/>
        <pt x="80" y="345" on="1"/>
        <pt x="80" y="417" on="0"/>
        <pt x="143" y="526" on="0"/>
        <pt x="254" y="585" on="0"/>
        <pt x="323" y="585" on="1"/>
      </contour>
      <contour>
        <pt x="508" y="242" on="0"/>
        <pt x="531" y="312" on="0"/>
        <pt x="531" y="346" on="1"/>
        <pt x="531" y="398" on="0"/>
        <pt x="485" y="493" on="0"/>
        <pt x="391" y="554" on="0"/>
        <pt x="324" y="554" on="1"/>
        <pt x="282" y="554" on="0"/>
        <pt x="208" y="526" on="0"/>
        <pt x="179" y="500" on="1"/>
        <pt x="486" y="214" on="1"/>
      </contour>
      <contour>
        <pt x="116" y="282" on="0"/>
        <pt x="173" y="190" on="0"/>
        <pt x="269" y="141" on="0"/>
        <pt x="326" y="141" on="1"/>
        <pt x="415" y="141" on="0"/>
        <pt x="470" y="196" on="1"/>
        <pt x="163" y="482" on="1"/>
        <pt x="116" y="425" on="0"/>
        <pt x="116" y="344" on="1"/>
      </contour>
    </TTGlyph>
    <TTGlyph name="dvBA" xMin="-32" yMin="0" xMax="722" yMax="740">
      <contour>
        <pt x="722" y="740" on="1"/>
        <pt x="722" y="705" on="1"/>
        <pt x="570" y="705" on="1"/>
        <pt x="570" y="0" on="1"/>
        <pt x="531" y="0" on="1"/>
        <pt x="531" y="239" on="1"/>
        <pt x="507" y="182" on="0"/>
        <pt x="399" y="110" on="0"/>
        <pt x="322" y="110" on="1"/>
        <pt x="256" y="110" on="0"/>
        <pt x="145" y="167" on="0"/>
        <pt x="80" y="274" on="0"/>
        <pt x="80" y="345" on="1"/>
        <pt x="80" y="417" on="0"/>
        <pt x="143" y="525" on="0"/>
        <pt x="252" y="584" on="0"/>
        <pt x="319" y="584" on="1"/>
        <pt x="398" y="584" on="0"/>
        <pt x="507" y="509" on="0"/>
        <pt x="531" y="451" on="1"/>
        <pt x="531" y="705" on="1"/>
        <pt x="-32" y="705" on="1"/>
        <pt x="-32" y="740" on="1"/>
      </contour>
      <contour>
        <pt x="283" y="554" on="0"/>
        <pt x="209" y="527" on="0"/>
        <pt x="180" y="501" on="1"/>
        <pt x="487" y="215" on="1"/>
        <pt x="509" y="243" on="0"/>
        <pt x="532" y="313" on="0"/>
        <pt x="532" y="347" on="1"/>
        <pt x="532" y="398" on="0"/>
        <pt x="486" y="493" on="0"/>
        <pt x="392" y="554" on="0"/>
        <pt x="325" y="554" on="1"/>
      </contour>
      <contour>
        <pt x="117" y="283" on="0"/>
        <pt x="173" y="190" on="0"/>
        <pt x="269" y="142" on="0"/>
        <pt x="327" y="142" on="1"/>
        <pt x="416" y="142" on="0"/>
        <pt x="471" y="197" on="1"/>
        <pt x="164" y="483" on="1"/>
        <pt x="117" y="426" on="0"/>
        <pt x="117" y="345" on="1"/>
      </contour>
    </TTGlyph>
    <TTGlyph name="dvBH" xMin="88" yMin="124" xMax="609" yMax="749">
      <contour>
        <pt x="609" y="414" on="1"/>
        <pt x="414" y="414" on="1"/>
        <pt x="414" y="319" on="1"/>
        <pt x="414" y="223" on="0"/>
        <pt x="330" y="124" on="0"/>
        <pt x="253" y="124" on="1"/>
        <pt x="179" y="124" on="0"/>
        <pt x="88" y="213" on="0"/>
        <pt x="88" y="286" on="1"/>
        <pt x="88" y="361" on="0"/>
        <pt x="185" y="448" on="0"/>
        <pt x="263" y="448" on="1"/>
        <pt x="376" y="448" on="1"/>
        <pt x="376" y="553" on="1"/>
        <pt x="376" y="629" on="0"/>
        <pt x="320" y="713" on="0"/>
        <pt x="262" y="713" on="1"/>
        <pt x="211" y="713" on="0"/>
        <pt x="149" y="645" on="0"/>
        <pt x="149" y="585" on="1"/>
        <pt x="149" y="563" on="0"/>
        <pt x="153" y="543" on="1"/>
        <pt x="113" y="543" on="1"/>
        <pt x="109" y="571" on="0"/>
        <pt x="109" y="586" on="1"/>
        <pt x="109" y="661" on="0"/>
        <pt x="192" y="749" on="0"/>
        <pt x="261" y="749" on="1"/>
        <pt x="338" y="749" on="0"/>
        <pt x="414" y="644" on="0"/>
        <pt x="414" y="549" on="1"/>
        <pt x="414" y="448" on="1"/>
        <pt x="609" y="448" on="1"/>
      </contour>
      <contour>
        <pt x="376" y="414" on="1"/>
        <pt x="264" y="414" on="1"/>
        <pt x="203" y="414" on="0"/>
        <pt x="127" y="344" on="0"/>
        <pt x="127" y="286" on="1"/>
        <pt x="127" y="229" on="0"/>
        <pt x="198" y="159" on="0"/>
        <pt x="253" y="159" on="1"/>
        <pt x="310" y="159" on="0"/>
        <pt x="376" y="242" on="0"/>
        <pt x="376" y="317" on="1"/>
      </contour>
    </TTGlyph>
    <TTGlyph name="dvBHA" xMin="88" yMin="0" xMax="793" yMax="749">
      <contour>
        <pt x="793" y="740" on="1"/>
        <pt x="793" y="705" on="1"/>
        <pt x="642" y="705" on="1"/>
        <pt x="642" y="0" on="1"/>
        <pt x="601" y="0" on="1"/>
        <pt x="601" y="414" on="1"/>
        <pt x="414" y="414" on="1"/>
        <pt x="414" y="319" on="1"/>
        <pt x="414" y="223" on="0"/>
        <pt x="330" y="124" on="0"/>
        <pt x="253" y="124" on="1"/>
        <pt x="179" y="124" on="0"/>
        <pt x="88" y="213" on="0"/>
        <pt x="88" y="286" on="1"/>
        <pt x="88" y="361" on="0"/>
        <pt x="185" y="448" on="0"/>
        <pt x="263" y="448" on="1"/>
        <pt x="376" y="448" on="1"/>
        <pt x="376" y="553" on="1"/>
        <pt x="376" y="629" on="0"/>
        <pt x="320" y="713" on="0"/>
        <pt x="262" y="713" on="1"/>
        <pt x="211" y="713" on="0"/>
        <pt x="149" y="645" on="0"/>
        <pt x="149" y="585" on="1"/>
        <pt x="149" y="563" on="0"/>
        <pt x="153" y="543" on="1"/>
        <pt x="113" y="543" on="1"/>
        <pt x="109" y="571" on="0"/>
        <pt x="109" y="586" on="1"/>
        <pt x="109" y="661" on="0"/>
        <pt x="192" y="749" on="0"/>
        <pt x="261" y="749" on="1"/>
        <pt x="338" y="749" on="0"/>
        <pt x="414" y="644" on="0"/>
        <pt x="414" y="549" on="1"/>
        <pt x="414" y="448" on="1"/>
        <pt x="601" y="448" on="1"/>
        <pt x="601" y="740" on="1"/>
      </contour>
      <contour>
        <pt x="376" y="414" on="1"/>
        <pt x="264" y="414" on="1"/>
        <pt x="203" y="414" on="0"/>
        <pt x="127" y="344" on="0"/>
        <pt x="127" y="286" on="1"/>
        <pt x="127" y="229" on="0"/>
        <pt x="198" y="159" on="0"/>
        <pt x="253" y="159" on="1"/>
        <pt x="310" y="159" on="0"/>
        <pt x="376" y="242" on="0"/>
        <pt x="376" y="317" on="1"/>
      </contour>
    </TTGlyph>
    <TTGlyph name="dvBH_LA" xMin="88" yMin="92" xMax="1428" yMax="749">
      <contour>
        <pt x="1151" y="705" on="1"/>
        <pt x="1151" y="553" on="1"/>
        <pt x="1229" y="544" on="0"/>
        <pt x="1316" y="424" on="0"/>
        <pt x="1316" y="331" on="1"/>
        <pt x="1316" y="262" on="0"/>
        <pt x="1265" y="154" on="0"/>
        <pt x="1163" y="92" on="0"/>
        <pt x="1090" y="92" on="1"/>
        <pt x="1080" y="92" on="0"/>
        <pt x="1056" y="94" on="1"/>
        <pt x="1056" y="130" on="1"/>
        <pt x="1078" y="128" on="0"/>
        <pt x="1087" y="128" on="1"/>
        <pt x="1178" y="128" on="0"/>
        <pt x="1275" y="241" on="0"/>
        <pt x="1275" y="331" on="1"/>
        <pt x="1275" y="412" on="0"/>
        <pt x="1196" y="518" on="0"/>
        <pt x="1123" y="518" on="1"/>
        <pt x="1046" y="518" on="0"/>
        <pt x="965" y="400" on="0"/>
        <pt x="965" y="297" on="1"/>
        <pt x="965" y="286" on="1"/>
        <pt x="929" y="286" on="1"/>
        <pt x="929" y="297" on="1"/>
        <pt x="929" y="398" on="0"/>
        <pt x="851" y="518" on="0"/>
        <pt x="778" y="518" on="1"/>
        <pt x="701" y="518" on="0"/>
        <pt x="618" y="414" on="0"/>
        <pt x="618" y="331" on="1"/>
        <pt x="618" y="241" on="0"/>
        <pt x="716" y="128" on="0"/>
        <pt x="807" y="128" on="1"/>
        <pt x="815" y="128" on="0"/>
        <pt x="837" y="130" on="1"/>
        <pt x="837" y="94" on="1"/>
        <pt x="813" y="92" on="0"/>
        <pt x="804" y="92" on="1"/>
        <pt x="731" y="92" on="0"/>
        <pt x="628" y="154" on="0"/>
        <pt x="577" y="262" on="0"/>
        <pt x="577" y="331" on="1"/>
        <pt x="577" y="375" on="0"/>
        <pt x="588" y="414" on="1"/>
        <pt x="414" y="414" on="1"/>
        <pt x="414" y="319" on="1"/>
        <pt x="414" y="223" on="0"/>
        <pt x="330" y="124" on="0"/>
        <pt x="253" y="124" on="1"/>
        <pt x="179" y="124" on="0"/>
        <pt x="88" y="213" on="0"/>
        <pt x="88" y="286" on="1"/>
        <pt x="88" y="361" on="0"/>
        <pt x="185" y="448" on="0"/>
        <pt x="263" y="448" on="1"/>
        <pt x="376" y="448" on="1"/>
        <pt x="376" y="553" on="1"/>
        <pt x="376" y="629" on="0"/>
        <pt x="320" y="713" on="0"/>
        <pt x="262" y="713" on="1"/>
        <pt x="211" y="713" on="0"/>
        <pt x="149" y="645" on="0"/>
        <pt x="149" y="585" on="1"/>
        <pt x="149" y="563" on="0"/>
        <pt x="153" y="543" on="1"/>
        <pt x="113" y="543" on="1"/>
        <pt x="109" y="571" on="0"/>
        <pt x="109" y="586" on="1"/>
        <pt x="109" y="661" on="0"/>
        <pt x="192" y="749" on="0"/>
        <pt x="261" y="749" on="1"/>
        <pt x="338" y="749" on="0"/>
        <pt x="414" y="644" on="0"/>
        <pt x="414" y="549" on="1"/>
        <pt x="414" y="448" on="1"/>
        <pt x="601" y="448" on="1"/>
        <pt x="624" y="498" on="0"/>
        <pt x="713" y="554" on="0"/>
        <pt x="774" y="554" on="1"/>
        <pt x="850" y="554" on="0"/>
        <pt x="934" y="457" on="0"/>
        <pt x="946" y="391" on="1"/>
        <pt x="948" y="391" on="1"/>
        <pt x="960" y="454" on="0"/>
        <pt x="1038" y="548" on="0"/>
        <pt x="1111" y="553" on="1"/>
        <pt x="1111" y="705" on="1"/>
        <pt x="546" y="705" on="1"/>
        <pt x="546" y="740" on="1"/>
        <pt x="1428" y="740" on="1"/>
        <pt x="1428" y="705" on="1"/>
      </contour>
      <contour>
        <pt x="376" y="414" on="1"/>
        <pt x="264" y="414" on="1"/>
        <pt x="203" y="414" on="0"/>
        <pt x="127" y="344" on="0"/>
        <pt x="127" y="286" on="1"/>
        <pt x="127" y="229" on="0"/>
        <pt x="198" y="159" on="0"/>
        <pt x="253" y="159" on="1"/>
        <pt x="310" y="159" on="0"/>
        <pt x="376" y="242" on="0"/>
        <pt x="376" y="317" on="1"/>
      </contour>
    </TTGlyph>
    <TTGlyph name="dvBH_NA" xMin="88" yMin="0" xMax="1309" yMax="749">
      <contour>
        <pt x="1309" y="705" on="1"/>
        <pt x="1158" y="705" on="1"/>
        <pt x="1158" y="0" on="1"/>
        <pt x="1117" y="0" on="1"/>
        <pt x="1117" y="474" on="1"/>
        <pt x="870" y="474" on="1"/>
        <pt x="907" y="453" on="0"/>
        <pt x="953" y="375" on="0"/>
        <pt x="953" y="324" on="1"/>
        <pt x="953" y="271" on="0"/>
        <pt x="905" y="190" on="0"/>
        <pt x="821" y="145" on="0"/>
        <pt x="768" y="145" on="1"/>
        <pt x="712" y="145" on="0"/>
        <pt x="625" y="191" on="0"/>
        <pt x="577" y="273" on="0"/>
        <pt x="577" y="325" on="1"/>
        <pt x="577" y="376" on="0"/>
        <pt x="597" y="414" on="1"/>
        <pt x="414" y="414" on="1"/>
        <pt x="414" y="319" on="1"/>
        <pt x="414" y="223" on="0"/>
        <pt x="330" y="124" on="0"/>
        <pt x="253" y="124" on="1"/>
        <pt x="179" y="124" on="0"/>
        <pt x="88" y="213" on="0"/>
        <pt x="88" y="286" on="1"/>
        <pt x="88" y="361" on="0"/>
        <pt x="185" y="448" on="0"/>
        <pt x="263" y="448" on="1"/>
        <pt x="376" y="448" on="1"/>
        <pt x="376" y="553" on="1"/>
        <pt x="376" y="629" on="0"/>
        <pt x="320" y="713" on="0"/>
        <pt x="262" y="713" on="1"/>
        <pt x="211" y="713" on="0"/>
        <pt x="149" y="645" on="0"/>
        <pt x="149" y="585" on="1"/>
        <pt x="149" y="563" on="0"/>
        <pt x="153" y="543" on="1"/>
        <pt x="113" y="543" on="1"/>
        <pt x="109" y="571" on="0"/>
        <pt x="109" y="586" on="1"/>
        <pt x="109" y="661" on="0"/>
        <pt x="192" y="749" on="0"/>
        <pt x="261" y="749" on="1"/>
        <pt x="338" y="749" on="0"/>
        <pt x="414" y="644" on="0"/>
        <pt x="414" y="549" on="1"/>
        <pt x="414" y="448" on="1"/>
        <pt x="621" y="448" on="1"/>
        <pt x="647" y="477" on="0"/>
        <pt x="725" y="509" on="0"/>
        <pt x="772" y="509" on="1"/>
        <pt x="1117" y="509" on="1"/>
        <pt x="1117" y="705" on="1"/>
        <pt x="577" y="705" on="1"/>
        <pt x="577" y="740" on="1"/>
        <pt x="1309" y="740" on="1"/>
      </contour>
      <contour>
        <pt x="918" y="391" on="0"/>
        <pt x="833" y="473" on="0"/>
        <pt x="768" y="473" on="1"/>
        <pt x="700" y="473" on="0"/>
        <pt x="615" y="391" on="0"/>
        <pt x="615" y="325" on="1"/>
        <pt x="615" y="261" on="0"/>
        <pt x="700" y="180" on="0"/>
        <pt x="768" y="180" on="1"/>
        <pt x="833" y="180" on="0"/>
        <pt x="918" y="263" on="0"/>
        <pt x="918" y="327" on="1"/>
      </contour>
      <contour>
        <pt x="376" y="414" on="1"/>
        <pt x="264" y="414" on="1"/>
        <pt x="203" y="414" on="0"/>
        <pt x="127" y="344" on="0"/>
        <pt x="127" y="286" on="1"/>
        <pt x="127" y="229" on="0"/>
        <pt x="198" y="159" on="0"/>
        <pt x="253" y="159" on="1"/>
        <pt x="310" y="159" on="0"/>
        <pt x="376" y="242" on="0"/>
        <pt x="376" y="317" on="1"/>
      </contour>
    </TTGlyph>
    <TTGlyph name="dvBH_R" xMin="88" yMin="-65" xMax="609" yMax="749">
      <contour>
        <pt x="609" y="449" on="1"/>
        <pt x="609" y="415" on="1"/>
        <pt x="414" y="415" on="1"/>
        <pt x="414" y="339" on="1"/>
        <pt x="414" y="246" on="0"/>
        <pt x="327" y="144" on="0"/>
        <pt x="253" y="144" on="1"/>
        <pt x="179" y="144" on="0"/>
        <pt x="88" y="228" on="0"/>
        <pt x="88" y="296" on="1"/>
        <pt x="88" y="366" on="0"/>
        <pt x="185" y="449" on="0"/>
        <pt x="263" y="449" on="1"/>
        <pt x="376" y="449" on="1"/>
        <pt x="376" y="553" on="1"/>
        <pt x="376" y="629" on="0"/>
        <pt x="320" y="713" on="0"/>
        <pt x="261" y="713" on="1"/>
        <pt x="210" y="713" on="0"/>
        <pt x="148" y="645" on="0"/>
        <pt x="148" y="585" on="1"/>
        <pt x="148" y="564" on="0"/>
        <pt x="152" y="544" on="1"/>
        <pt x="113" y="544" on="1"/>
        <pt x="109" y="572" on="0"/>
        <pt x="109" y="587" on="1"/>
        <pt x="109" y="661" on="0"/>
        <pt x="192" y="749" on="0"/>
        <pt x="261" y="749" on="1"/>
        <pt x="338" y="749" on="0"/>
        <pt x="414" y="644" on="0"/>
        <pt x="414" y="549" on="1"/>
        <pt x="414" y="449" on="1"/>
      </contour>
      <contour>
        <pt x="376" y="415" on="1"/>
        <pt x="264" y="415" on="1"/>
        <pt x="203" y="415" on="0"/>
        <pt x="127" y="350" on="0"/>
        <pt x="127" y="296" on="1"/>
        <pt x="127" y="243" on="0"/>
        <pt x="198" y="179" on="0"/>
        <pt x="253" y="179" on="1"/>
        <pt x="311" y="179" on="0"/>
        <pt x="376" y="262" on="0"/>
        <pt x="376" y="337" on="1"/>
      </contour>
      <contour>
        <pt x="270" y="-65" on="1"/>
        <pt x="609" y="270" on="1"/>
        <pt x="609" y="227" on="1"/>
        <pt x="318" y="-65" on="1"/>
      </contour>
    </TTGlyph>
    <TTGlyph name="dvBH_RA" xMin="88" yMin="-65" xMax="813" yMax="749">
      <contour>
        <pt x="813" y="740" on="1"/>
        <pt x="813" y="705" on="1"/>
        <pt x="662" y="705" on="1"/>
        <pt x="662" y="0" on="1"/>
        <pt x="624" y="0" on="1"/>
        <pt x="624" y="243" on="1"/>
        <pt x="318" y="-65" on="1"/>
        <pt x="270" y="-65" on="1"/>
        <pt x="623" y="285" on="1"/>
        <pt x="623" y="415" on="1"/>
        <pt x="414" y="415" on="1"/>
        <pt x="414" y="339" on="1"/>
        <pt x="414" y="246" on="0"/>
        <pt x="327" y="144" on="0"/>
        <pt x="253" y="144" on="1"/>
        <pt x="179" y="144" on="0"/>
        <pt x="88" y="228" on="0"/>
        <pt x="88" y="296" on="1"/>
        <pt x="88" y="366" on="0"/>
        <pt x="185" y="449" on="0"/>
        <pt x="263" y="449" on="1"/>
        <pt x="376" y="449" on="1"/>
        <pt x="376" y="553" on="1"/>
        <pt x="376" y="629" on="0"/>
        <pt x="320" y="713" on="0"/>
        <pt x="261" y="713" on="1"/>
        <pt x="210" y="713" on="0"/>
        <pt x="148" y="645" on="0"/>
        <pt x="148" y="585" on="1"/>
        <pt x="148" y="564" on="0"/>
        <pt x="152" y="544" on="1"/>
        <pt x="113" y="544" on="1"/>
        <pt x="109" y="572" on="0"/>
        <pt x="109" y="587" on="1"/>
        <pt x="109" y="661" on="0"/>
        <pt x="192" y="749" on="0"/>
        <pt x="261" y="749" on="1"/>
        <pt x="338" y="749" on="0"/>
        <pt x="414" y="644" on="0"/>
        <pt x="414" y="549" on="1"/>
        <pt x="414" y="449" on="1"/>
        <pt x="623" y="449" on="1"/>
        <pt x="623" y="740" on="1"/>
      </contour>
      <contour>
        <pt x="376" y="415" on="1"/>
        <pt x="264" y="415" on="1"/>
        <pt x="203" y="415" on="0"/>
        <pt x="127" y="350" on="0"/>
        <pt x="127" y="296" on="1"/>
        <pt x="127" y="243" on="0"/>
        <pt x="198" y="179" on="0"/>
        <pt x="253" y="179" on="1"/>
        <pt x="311" y="179" on="0"/>
        <pt x="376" y="262" on="0"/>
        <pt x="376" y="337" on="1"/>
      </contour>
    </TTGlyph>
    <TTGlyph name="dvBH_R_YA" xMin="88" yMin="-65" xMax="1248" yMax="749">
      <contour>
        <pt x="1248" y="705" on="1"/>
        <pt x="1097" y="705" on="1"/>
        <pt x="1097" y="0" on="1"/>
        <pt x="1057" y="0" on="1"/>
        <pt x="1057" y="262" on="1"/>
        <pt x="1033" y="206" on="0"/>
        <pt x="914" y="129" on="0"/>
        <pt x="828" y="129" on="1"/>
        <pt x="756" y="129" on="0"/>
        <pt x="648" y="182" on="0"/>
        <pt x="615" y="232" on="1"/>
        <pt x="318" y="-65" on="1"/>
        <pt x="270" y="-65" on="1"/>
        <pt x="598" y="260" on="1"/>
        <pt x="567" y="325" on="0"/>
        <pt x="567" y="411" on="1"/>
        <pt x="567" y="415" on="1"/>
        <pt x="414" y="415" on="1"/>
        <pt x="414" y="339" on="1"/>
        <pt x="414" y="246" on="0"/>
        <pt x="327" y="144" on="0"/>
        <pt x="253" y="144" on="1"/>
        <pt x="179" y="144" on="0"/>
        <pt x="88" y="228" on="0"/>
        <pt x="88" y="296" on="1"/>
        <pt x="88" y="366" on="0"/>
        <pt x="185" y="448" on="0"/>
        <pt x="263" y="448" on="1"/>
        <pt x="376" y="448" on="1"/>
        <pt x="376" y="553" on="1"/>
        <pt x="376" y="629" on="0"/>
        <pt x="320" y="713" on="0"/>
        <pt x="261" y="713" on="1"/>
        <pt x="210" y="713" on="0"/>
        <pt x="148" y="645" on="0"/>
        <pt x="148" y="585" on="1"/>
        <pt x="148" y="564" on="0"/>
        <pt x="152" y="544" on="1"/>
        <pt x="113" y="544" on="1"/>
        <pt x="109" y="572" on="0"/>
        <pt x="109" y="587" on="1"/>
        <pt x="109" y="661" on="0"/>
        <pt x="192" y="749" on="0"/>
        <pt x="261" y="749" on="1"/>
        <pt x="338" y="749" on="0"/>
        <pt x="414" y="644" on="0"/>
        <pt x="414" y="549" on="1"/>
        <pt x="414" y="448" on="1"/>
        <pt x="592" y="448" on="1"/>
        <pt x="680" y="448" on="0"/>
        <pt x="783" y="527" on="0"/>
        <pt x="783" y="623" on="1"/>
        <pt x="783" y="705" on="1"/>
        <pt x="552" y="705" on="1"/>
        <pt x="552" y="740" on="1"/>
        <pt x="1248" y="740" on="1"/>
      </contour>
      <contour>
        <pt x="1057" y="705" on="1"/>
        <pt x="823" y="705" on="1"/>
        <pt x="823" y="618" on="1"/>
        <pt x="823" y="417" on="0"/>
        <pt x="606" y="415" on="1"/>
        <pt x="606" y="408" on="1"/>
        <pt x="606" y="294" on="0"/>
        <pt x="727" y="164" on="0"/>
        <pt x="834" y="164" on="1"/>
        <pt x="895" y="164" on="0"/>
        <pt x="997" y="215" on="0"/>
        <pt x="1057" y="309" on="0"/>
        <pt x="1057" y="369" on="1"/>
      </contour>
      <contour>
        <pt x="376" y="415" on="1"/>
        <pt x="264" y="415" on="1"/>
        <pt x="203" y="415" on="0"/>
        <pt x="127" y="350" on="0"/>
        <pt x="127" y="296" on="1"/>
        <pt x="127" y="243" on="0"/>
        <pt x="198" y="179" on="0"/>
        <pt x="253" y="179" on="1"/>
        <pt x="311" y="179" on="0"/>
        <pt x="376" y="262" on="0"/>
        <pt x="376" y="337" on="1"/>
      </contour>
    </TTGlyph>
    <TTGlyph name="dvBH_VA" xMin="88" yMin="0" xMax="1208" yMax="749">
      <contour>
        <pt x="1208" y="740" on="1"/>
        <pt x="1208" y="705" on="1"/>
        <pt x="1057" y="705" on="1"/>
        <pt x="1057" y="0" on="1"/>
        <pt x="1017" y="0" on="1"/>
        <pt x="1017" y="247" on="1"/>
        <pt x="994" y="188" on="0"/>
        <pt x="888" y="115" on="0"/>
        <pt x="808" y="115" on="1"/>
        <pt x="741" y="115" on="0"/>
        <pt x="636" y="172" on="0"/>
        <pt x="577" y="278" on="0"/>
        <pt x="577" y="350" on="1"/>
        <pt x="577" y="382" on="0"/>
        <pt x="585" y="414" on="1"/>
        <pt x="414" y="414" on="1"/>
        <pt x="414" y="319" on="1"/>
        <pt x="414" y="223" on="0"/>
        <pt x="330" y="124" on="0"/>
        <pt x="253" y="124" on="1"/>
        <pt x="179" y="124" on="0"/>
        <pt x="88" y="213" on="0"/>
        <pt x="88" y="286" on="1"/>
        <pt x="88" y="361" on="0"/>
        <pt x="185" y="448" on="0"/>
        <pt x="263" y="448" on="1"/>
        <pt x="376" y="448" on="1"/>
        <pt x="376" y="553" on="1"/>
        <pt x="376" y="629" on="0"/>
        <pt x="320" y="713" on="0"/>
        <pt x="262" y="713" on="1"/>
        <pt x="211" y="713" on="0"/>
        <pt x="149" y="645" on="0"/>
        <pt x="149" y="585" on="1"/>
        <pt x="149" y="563" on="0"/>
        <pt x="153" y="543" on="1"/>
        <pt x="113" y="543" on="1"/>
        <pt x="109" y="571" on="0"/>
        <pt x="109" y="586" on="1"/>
        <pt x="109" y="661" on="0"/>
        <pt x="192" y="749" on="0"/>
        <pt x="261" y="749" on="1"/>
        <pt x="338" y="749" on="0"/>
        <pt x="414" y="644" on="0"/>
        <pt x="414" y="549" on="1"/>
        <pt x="414" y="448" on="1"/>
        <pt x="596" y="448" on="1"/>
        <pt x="623" y="509" on="0"/>
        <pt x="736" y="579" on="0"/>
        <pt x="808" y="579" on="1"/>
        <pt x="888" y="579" on="0"/>
        <pt x="994" y="506" on="0"/>
        <pt x="1017" y="447" on="1"/>
        <pt x="1017" y="705" on="1"/>
        <pt x="555" y="705" on="1"/>
        <pt x="555" y="740" on="1"/>
      </contour>
      <contour>
        <pt x="883" y="149" on="0"/>
        <pt x="974" y="208" on="0"/>
        <pt x="1017" y="298" on="0"/>
        <pt x="1017" y="345" on="1"/>
        <pt x="1017" y="346" on="1"/>
        <pt x="1017" y="396" on="0"/>
        <pt x="974" y="487" on="0"/>
        <pt x="883" y="545" on="0"/>
        <pt x="815" y="545" on="1"/>
        <pt x="761" y="545" on="0"/>
        <pt x="670" y="497" on="0"/>
        <pt x="617" y="408" on="0"/>
        <pt x="617" y="349" on="1"/>
        <pt x="617" y="287" on="0"/>
        <pt x="669" y="197" on="0"/>
        <pt x="759" y="149" on="0"/>
        <pt x="815" y="149" on="1"/>
      </contour>
      <contour>
        <pt x="376" y="414" on="1"/>
        <pt x="264" y="414" on="1"/>
        <pt x="203" y="414" on="0"/>
        <pt x="127" y="344" on="0"/>
        <pt x="127" y="286" on="1"/>
        <pt x="127" y="229" on="0"/>
        <pt x="198" y="159" on="0"/>
        <pt x="253" y="159" on="1"/>
        <pt x="310" y="159" on="0"/>
        <pt x="376" y="242" on="0"/>
        <pt x="376" y="317" on="1"/>
      </contour>
    </TTGlyph>
    <TTGlyph name="dvBH_YA" xMin="88" yMin="0" xMax="1248" yMax="749">
      <contour>
        <pt x="1248" y="705" on="1"/>
        <pt x="1097" y="705" on="1"/>
        <pt x="1097" y="0" on="1"/>
        <pt x="1057" y="0" on="1"/>
        <pt x="1057" y="262" on="1"/>
        <pt x="1033" y="206" on="0"/>
        <pt x="914" y="129" on="0"/>
        <pt x="828" y="129" on="1"/>
        <pt x="704" y="129" on="0"/>
        <pt x="567" y="281" on="0"/>
        <pt x="567" y="411" on="1"/>
        <pt x="567" y="414" on="1"/>
        <pt x="414" y="414" on="1"/>
        <pt x="414" y="319" on="1"/>
        <pt x="414" y="223" on="0"/>
        <pt x="330" y="124" on="0"/>
        <pt x="253" y="124" on="1"/>
        <pt x="179" y="124" on="0"/>
        <pt x="88" y="213" on="0"/>
        <pt x="88" y="286" on="1"/>
        <pt x="88" y="361" on="0"/>
        <pt x="185" y="448" on="0"/>
        <pt x="263" y="448" on="1"/>
        <pt x="376" y="448" on="1"/>
        <pt x="376" y="553" on="1"/>
        <pt x="376" y="629" on="0"/>
        <pt x="320" y="713" on="0"/>
        <pt x="262" y="713" on="1"/>
        <pt x="211" y="713" on="0"/>
        <pt x="149" y="645" on="0"/>
        <pt x="149" y="585" on="1"/>
        <pt x="149" y="563" on="0"/>
        <pt x="153" y="543" on="1"/>
        <pt x="113" y="543" on="1"/>
        <pt x="109" y="571" on="0"/>
        <pt x="109" y="586" on="1"/>
        <pt x="109" y="661" on="0"/>
        <pt x="192" y="749" on="0"/>
        <pt x="261" y="749" on="1"/>
        <pt x="338" y="749" on="0"/>
        <pt x="414" y="644" on="0"/>
        <pt x="414" y="549" on="1"/>
        <pt x="414" y="448" on="1"/>
        <pt x="592" y="448" on="1"/>
        <pt x="680" y="448" on="0"/>
        <pt x="783" y="527" on="0"/>
        <pt x="783" y="623" on="1"/>
        <pt x="783" y="705" on="1"/>
        <pt x="552" y="705" on="1"/>
        <pt x="552" y="740" on="1"/>
        <pt x="1248" y="740" on="1"/>
      </contour>
      <contour>
        <pt x="1057" y="705" on="1"/>
        <pt x="823" y="705" on="1"/>
        <pt x="823" y="618" on="1"/>
        <pt x="823" y="417" on="0"/>
        <pt x="606" y="415" on="1"/>
        <pt x="606" y="408" on="1"/>
        <pt x="606" y="294" on="0"/>
        <pt x="727" y="164" on="0"/>
        <pt x="834" y="164" on="1"/>
        <pt x="895" y="164" on="0"/>
        <pt x="997" y="215" on="0"/>
        <pt x="1057" y="309" on="0"/>
        <pt x="1057" y="369" on="1"/>
      </contour>
      <contour>
        <pt x="376" y="414" on="1"/>
        <pt x="264" y="414" on="1"/>
        <pt x="203" y="414" on="0"/>
        <pt x="127" y="344" on="0"/>
        <pt x="127" y="286" on="1"/>
        <pt x="127" y="229" on="0"/>
        <pt x="198" y="159" on="0"/>
        <pt x="253" y="159" on="1"/>
        <pt x="310" y="159" on="0"/>
        <pt x="376" y="242" on="0"/>
        <pt x="376" y="317" on="1"/>
      </contour>
    </TTGlyph>
    <TTGlyph name="dvB_BA" xMin="-32" yMin="0" xMax="1173" yMax="740">
      <contour>
        <pt x="1173" y="705" on="1"/>
        <pt x="1021" y="705" on="1"/>
        <pt x="1021" y="0" on="1"/>
        <pt x="982" y="0" on="1"/>
        <pt x="982" y="240" on="1"/>
        <pt x="959" y="183" on="0"/>
        <pt x="851" y="110" on="0"/>
        <pt x="773" y="110" on="1"/>
        <pt x="695" y="110" on="0"/>
        <pt x="572" y="188" on="0"/>
        <pt x="547" y="257" on="1"/>
        <pt x="523" y="191" on="0"/>
        <pt x="407" y="110" on="0"/>
        <pt x="325" y="110" on="1"/>
        <pt x="257" y="110" on="0"/>
        <pt x="145" y="168" on="0"/>
        <pt x="80" y="274" on="0"/>
        <pt x="80" y="345" on="1"/>
        <pt x="80" y="417" on="0"/>
        <pt x="143" y="526" on="0"/>
        <pt x="254" y="585" on="0"/>
        <pt x="323" y="585" on="1"/>
        <pt x="410" y="585" on="0"/>
        <pt x="523" y="501" on="0"/>
        <pt x="547" y="435" on="1"/>
        <pt x="572" y="505" on="0"/>
        <pt x="692" y="584" on="0"/>
        <pt x="770" y="584" on="1"/>
        <pt x="849" y="584" on="0"/>
        <pt x="958" y="509" on="0"/>
        <pt x="982" y="451" on="1"/>
        <pt x="982" y="705" on="1"/>
        <pt x="-32" y="705" on="1"/>
        <pt x="-32" y="740" on="1"/>
        <pt x="1173" y="740" on="1"/>
      </contour>
      <contour>
        <pt x="508" y="242" on="0"/>
        <pt x="531" y="312" on="0"/>
        <pt x="531" y="346" on="1"/>
        <pt x="531" y="398" on="0"/>
        <pt x="485" y="493" on="0"/>
        <pt x="391" y="554" on="0"/>
        <pt x="324" y="554" on="1"/>
        <pt x="282" y="554" on="0"/>
        <pt x="208" y="526" on="0"/>
        <pt x="179" y="500" on="1"/>
        <pt x="486" y="214" on="1"/>
      </contour>
      <contour>
        <pt x="734" y="554" on="0"/>
        <pt x="660" y="527" on="0"/>
        <pt x="631" y="501" on="1"/>
        <pt x="938" y="215" on="1"/>
        <pt x="960" y="243" on="0"/>
        <pt x="983" y="313" on="0"/>
        <pt x="983" y="347" on="1"/>
        <pt x="983" y="398" on="0"/>
        <pt x="937" y="493" on="0"/>
        <pt x="843" y="554" on="0"/>
        <pt x="776" y="554" on="1"/>
      </contour>
      <contour>
        <pt x="568" y="283" on="0"/>
        <pt x="624" y="190" on="0"/>
        <pt x="720" y="142" on="0"/>
        <pt x="778" y="142" on="1"/>
        <pt x="867" y="142" on="0"/>
        <pt x="922" y="197" on="1"/>
        <pt x="615" y="483" on="1"/>
        <pt x="568" y="426" on="0"/>
        <pt x="568" y="345" on="1"/>
      </contour>
      <contour>
        <pt x="116" y="282" on="0"/>
        <pt x="173" y="190" on="0"/>
        <pt x="269" y="141" on="0"/>
        <pt x="326" y="141" on="1"/>
        <pt x="415" y="141" on="0"/>
        <pt x="470" y="196" on="1"/>
        <pt x="163" y="482" on="1"/>
        <pt x="116" y="425" on="0"/>
        <pt x="116" y="344" on="1"/>
      </contour>
    </TTGlyph>
    <TTGlyph name="dvB_BHA" xMin="-32" yMin="0" xMax="1230" yMax="749">
      <contour>
        <pt x="1230" y="740" on="1"/>
        <pt x="1230" y="705" on="1"/>
        <pt x="1079" y="705" on="1"/>
        <pt x="1079" y="0" on="1"/>
        <pt x="1038" y="0" on="1"/>
        <pt x="1038" y="414" on="1"/>
        <pt x="851" y="414" on="1"/>
        <pt x="851" y="319" on="1"/>
        <pt x="851" y="223" on="0"/>
        <pt x="767" y="124" on="0"/>
        <pt x="690" y="124" on="1"/>
        <pt x="632" y="124" on="0"/>
        <pt x="550" y="181" on="0"/>
        <pt x="535" y="230" on="1"/>
        <pt x="506" y="175" on="0"/>
        <pt x="398" y="110" on="0"/>
        <pt x="325" y="110" on="1"/>
        <pt x="257" y="110" on="0"/>
        <pt x="145" y="168" on="0"/>
        <pt x="80" y="274" on="0"/>
        <pt x="80" y="345" on="1"/>
        <pt x="80" y="417" on="0"/>
        <pt x="143" y="526" on="0"/>
        <pt x="254" y="585" on="0"/>
        <pt x="323" y="585" on="1"/>
        <pt x="393" y="585" on="0"/>
        <pt x="494" y="529" on="0"/>
        <pt x="551" y="440" on="0"/>
        <pt x="560" y="388" on="1"/>
        <pt x="582" y="417" on="0"/>
        <pt x="655" y="448" on="0"/>
        <pt x="700" y="448" on="1"/>
        <pt x="812" y="448" on="1"/>
        <pt x="812" y="553" on="1"/>
        <pt x="812" y="629" on="0"/>
        <pt x="756" y="713" on="0"/>
        <pt x="698" y="713" on="1"/>
        <pt x="677" y="713" on="0"/>
        <pt x="656" y="705" on="1"/>
        <pt x="647" y="706" on="1"/>
        <pt x="647" y="705" on="1"/>
        <pt x="-32" y="705" on="1"/>
        <pt x="-32" y="740" on="1"/>
        <pt x="648" y="740" on="1"/>
        <pt x="669" y="749" on="0"/>
        <pt x="698" y="749" on="1"/>
        <pt x="775" y="749" on="0"/>
        <pt x="851" y="644" on="0"/>
        <pt x="851" y="549" on="1"/>
        <pt x="851" y="448" on="1"/>
        <pt x="1038" y="448" on="1"/>
        <pt x="1038" y="740" on="1"/>
      </contour>
      <contour>
        <pt x="282" y="554" on="0"/>
        <pt x="208" y="526" on="0"/>
        <pt x="179" y="500" on="1"/>
        <pt x="486" y="214" on="1"/>
        <pt x="508" y="242" on="0"/>
        <pt x="531" y="312" on="0"/>
        <pt x="531" y="346" on="1"/>
        <pt x="531" y="398" on="0"/>
        <pt x="485" y="493" on="0"/>
        <pt x="391" y="554" on="0"/>
        <pt x="324" y="554" on="1"/>
      </contour>
      <contour>
        <pt x="116" y="282" on="0"/>
        <pt x="173" y="190" on="0"/>
        <pt x="269" y="141" on="0"/>
        <pt x="326" y="141" on="1"/>
        <pt x="415" y="141" on="0"/>
        <pt x="470" y="196" on="1"/>
        <pt x="163" y="482" on="1"/>
        <pt x="116" y="425" on="0"/>
        <pt x="116" y="344" on="1"/>
      </contour>
      <contour>
        <pt x="812" y="414" on="1"/>
        <pt x="701" y="414" on="1"/>
        <pt x="640" y="414" on="0"/>
        <pt x="564" y="344" on="0"/>
        <pt x="564" y="286" on="1"/>
        <pt x="564" y="229" on="0"/>
        <pt x="635" y="159" on="0"/>
        <pt x="690" y="159" on="1"/>
        <pt x="747" y="159" on="0"/>
        <pt x="812" y="242" on="0"/>
        <pt x="812" y="317" on="1"/>
      </contour>
    </TTGlyph>
    <TTGlyph name="dvB_BH_RA" xMin="-32" yMin="-65" xMax="1253" yMax="749">
      <contour>
        <pt x="1253" y="740" on="1"/>
        <pt x="1253" y="705" on="1"/>
        <pt x="1102" y="705" on="1"/>
        <pt x="1102" y="0" on="1"/>
        <pt x="1064" y="0" on="1"/>
        <pt x="1064" y="243" on="1"/>
        <pt x="758" y="-65" on="1"/>
        <pt x="709" y="-65" on="1"/>
        <pt x="1062" y="285" on="1"/>
        <pt x="1062" y="415" on="1"/>
        <pt x="853" y="415" on="1"/>
        <pt x="853" y="339" on="1"/>
        <pt x="853" y="246" on="0"/>
        <pt x="767" y="144" on="0"/>
        <pt x="693" y="144" on="1"/>
        <pt x="637" y="144" on="0"/>
        <pt x="556" y="194" on="0"/>
        <pt x="539" y="237" on="1"/>
        <pt x="511" y="179" on="0"/>
        <pt x="400" y="110" on="0"/>
        <pt x="325" y="110" on="1"/>
        <pt x="257" y="110" on="0"/>
        <pt x="145" y="168" on="0"/>
        <pt x="80" y="274" on="0"/>
        <pt x="80" y="345" on="1"/>
        <pt x="80" y="417" on="0"/>
        <pt x="143" y="526" on="0"/>
        <pt x="254" y="585" on="0"/>
        <pt x="323" y="585" on="1"/>
        <pt x="392" y="585" on="0"/>
        <pt x="493" y="530" on="0"/>
        <pt x="551" y="441" on="0"/>
        <pt x="559" y="390" on="1"/>
        <pt x="582" y="419" on="0"/>
        <pt x="657" y="449" on="0"/>
        <pt x="703" y="449" on="1"/>
        <pt x="815" y="449" on="1"/>
        <pt x="815" y="553" on="1"/>
        <pt x="815" y="629" on="0"/>
        <pt x="759" y="713" on="0"/>
        <pt x="701" y="713" on="1"/>
        <pt x="679" y="713" on="0"/>
        <pt x="658" y="705" on="1"/>
        <pt x="-32" y="705" on="1"/>
        <pt x="-32" y="740" on="1"/>
        <pt x="648" y="740" on="1"/>
        <pt x="670" y="749" on="0"/>
        <pt x="700" y="749" on="1"/>
        <pt x="777" y="749" on="0"/>
        <pt x="853" y="644" on="0"/>
        <pt x="853" y="549" on="1"/>
        <pt x="853" y="449" on="1"/>
        <pt x="1062" y="449" on="1"/>
        <pt x="1062" y="740" on="1"/>
      </contour>
      <contour>
        <pt x="282" y="554" on="0"/>
        <pt x="208" y="526" on="0"/>
        <pt x="179" y="500" on="1"/>
        <pt x="486" y="214" on="1"/>
        <pt x="508" y="242" on="0"/>
        <pt x="531" y="312" on="0"/>
        <pt x="531" y="346" on="1"/>
        <pt x="531" y="398" on="0"/>
        <pt x="485" y="493" on="0"/>
        <pt x="391" y="554" on="0"/>
        <pt x="324" y="554" on="1"/>
      </contour>
      <contour>
        <pt x="116" y="282" on="0"/>
        <pt x="173" y="190" on="0"/>
        <pt x="269" y="141" on="0"/>
        <pt x="326" y="141" on="1"/>
        <pt x="415" y="141" on="0"/>
        <pt x="470" y="196" on="1"/>
        <pt x="163" y="482" on="1"/>
        <pt x="116" y="425" on="0"/>
        <pt x="116" y="344" on="1"/>
      </contour>
      <contour>
        <pt x="815" y="415" on="1"/>
        <pt x="703" y="415" on="1"/>
        <pt x="642" y="415" on="0"/>
        <pt x="566" y="350" on="0"/>
        <pt x="566" y="296" on="1"/>
        <pt x="566" y="243" on="0"/>
        <pt x="637" y="179" on="0"/>
        <pt x="692" y="179" on="1"/>
        <pt x="750" y="179" on="0"/>
        <pt x="815" y="262" on="0"/>
        <pt x="815" y="337" on="1"/>
      </contour>
    </TTGlyph>
    <TTGlyph name="dvB_DA" xMin="-32" yMin="-6" xMax="1092" yMax="740">
      <contour>
        <pt x="737" y="542" on="0"/>
        <pt x="634" y="498" on="0"/>
        <pt x="573" y="409" on="0"/>
        <pt x="573" y="344" on="1"/>
        <pt x="573" y="257" on="0"/>
        <pt x="677" y="152" on="0"/>
        <pt x="765" y="152" on="1"/>
        <pt x="806" y="152" on="0"/>
        <pt x="885" y="186" on="0"/>
        <pt x="937" y="260" on="0"/>
        <pt x="937" y="314" on="1"/>
        <pt x="973" y="314" on="1"/>
        <pt x="973" y="-6" on="1"/>
        <pt x="933" y="-6" on="1"/>
        <pt x="933" y="214" on="1"/>
        <pt x="912" y="171" on="0"/>
        <pt x="816" y="118" on="0"/>
        <pt x="756" y="118" on="1"/>
        <pt x="679" y="118" on="0"/>
        <pt x="570" y="189" on="0"/>
        <pt x="547" y="253" on="1"/>
        <pt x="521" y="188" on="0"/>
        <pt x="406" y="110" on="0"/>
        <pt x="325" y="110" on="1"/>
        <pt x="257" y="110" on="0"/>
        <pt x="145" y="168" on="0"/>
        <pt x="80" y="274" on="0"/>
        <pt x="80" y="345" on="1"/>
        <pt x="80" y="417" on="0"/>
        <pt x="143" y="526" on="0"/>
        <pt x="254" y="585" on="0"/>
        <pt x="323" y="585" on="1"/>
        <pt x="409" y="585" on="0"/>
        <pt x="523" y="502" on="0"/>
        <pt x="548" y="437" on="1"/>
        <pt x="576" y="506" on="0"/>
        <pt x="709" y="578" on="0"/>
        <pt x="797" y="578" on="1"/>
        <pt x="890" y="578" on="1"/>
        <pt x="890" y="705" on="1"/>
        <pt x="-32" y="705" on="1"/>
        <pt x="-32" y="740" on="1"/>
        <pt x="1092" y="740" on="1"/>
        <pt x="1092" y="705" on="1"/>
        <pt x="930" y="705" on="1"/>
        <pt x="930" y="542" on="1"/>
        <pt x="800" y="542" on="1"/>
      </contour>
      <contour>
        <pt x="508" y="242" on="0"/>
        <pt x="531" y="312" on="0"/>
        <pt x="531" y="346" on="1"/>
        <pt x="531" y="398" on="0"/>
        <pt x="485" y="493" on="0"/>
        <pt x="391" y="554" on="0"/>
        <pt x="324" y="554" on="1"/>
        <pt x="282" y="554" on="0"/>
        <pt x="208" y="526" on="0"/>
        <pt x="179" y="500" on="1"/>
        <pt x="486" y="214" on="1"/>
      </contour>
      <contour>
        <pt x="116" y="282" on="0"/>
        <pt x="173" y="190" on="0"/>
        <pt x="269" y="141" on="0"/>
        <pt x="326" y="141" on="1"/>
        <pt x="415" y="141" on="0"/>
        <pt x="470" y="196" on="1"/>
        <pt x="163" y="482" on="1"/>
        <pt x="116" y="425" on="0"/>
        <pt x="116" y="344" on="1"/>
      </contour>
    </TTGlyph>
    <TTGlyph name="dvB_DHA" xMin="-32" yMin="0" xMax="1162" yMax="749">
      <contour>
        <pt x="1162" y="705" on="1"/>
        <pt x="1011" y="705" on="1"/>
        <pt x="1011" y="0" on="1"/>
        <pt x="970" y="0" on="1"/>
        <pt x="970" y="253" on="1"/>
        <pt x="942" y="187" on="0"/>
        <pt x="819" y="110" on="0"/>
        <pt x="738" y="110" on="1"/>
        <pt x="661" y="110" on="0"/>
        <pt x="550" y="173" on="0"/>
        <pt x="533" y="231" on="1"/>
        <pt x="504" y="175" on="0"/>
        <pt x="397" y="110" on="0"/>
        <pt x="325" y="110" on="1"/>
        <pt x="258" y="110" on="0"/>
        <pt x="146" y="166" on="0"/>
        <pt x="80" y="272" on="0"/>
        <pt x="80" y="344" on="1"/>
        <pt x="80" y="417" on="0"/>
        <pt x="144" y="526" on="0"/>
        <pt x="254" y="585" on="0"/>
        <pt x="322" y="585" on="1"/>
        <pt x="363" y="585" on="0"/>
        <pt x="399" y="574" on="1"/>
        <pt x="399" y="543" on="1"/>
        <pt x="364" y="554" on="0"/>
        <pt x="324" y="554" on="1"/>
        <pt x="282" y="554" on="0"/>
        <pt x="206" y="526" on="0"/>
        <pt x="178" y="500" on="1"/>
        <pt x="486" y="213" on="1"/>
        <pt x="520" y="256" on="0"/>
        <pt x="528" y="310" on="1"/>
        <pt x="529" y="310" on="1"/>
        <pt x="538" y="359" on="0"/>
        <pt x="608" y="420" on="0"/>
        <pt x="652" y="425" on="1"/>
        <pt x="652" y="428" on="1"/>
        <pt x="596" y="439" on="0"/>
        <pt x="520" y="522" on="0"/>
        <pt x="520" y="591" on="1"/>
        <pt x="520" y="662" on="0"/>
        <pt x="565" y="705" on="1"/>
        <pt x="-32" y="705" on="1"/>
        <pt x="-32" y="740" on="1"/>
        <pt x="623" y="740" on="1"/>
        <pt x="650" y="749" on="0"/>
        <pt x="681" y="749" on="1"/>
        <pt x="754" y="749" on="0"/>
        <pt x="839" y="664" on="0"/>
        <pt x="839" y="597" on="1"/>
        <pt x="839" y="579" on="0"/>
        <pt x="838" y="567" on="1"/>
        <pt x="804" y="567" on="1"/>
        <pt x="805" y="594" on="1"/>
        <pt x="805" y="645" on="0"/>
        <pt x="740" y="714" on="0"/>
        <pt x="682" y="714" on="1"/>
        <pt x="624" y="714" on="0"/>
        <pt x="557" y="642" on="0"/>
        <pt x="557" y="587" on="1"/>
        <pt x="557" y="522" on="0"/>
        <pt x="644" y="445" on="0"/>
        <pt x="724" y="445" on="1"/>
        <pt x="779" y="445" on="1"/>
        <pt x="779" y="411" on="1"/>
        <pt x="725" y="411" on="1"/>
        <pt x="647" y="411" on="0"/>
        <pt x="567" y="340" on="0"/>
        <pt x="567" y="283" on="1"/>
        <pt x="567" y="215" on="0"/>
        <pt x="667" y="145" on="0"/>
        <pt x="744" y="145" on="1"/>
        <pt x="807" y="145" on="0"/>
        <pt x="910" y="201" on="0"/>
        <pt x="970" y="302" on="0"/>
        <pt x="970" y="367" on="1"/>
        <pt x="970" y="740" on="1"/>
        <pt x="1162" y="740" on="1"/>
      </contour>
      <contour>
        <pt x="116" y="282" on="0"/>
        <pt x="173" y="190" on="0"/>
        <pt x="270" y="141" on="0"/>
        <pt x="327" y="141" on="1"/>
        <pt x="415" y="141" on="0"/>
        <pt x="470" y="196" on="1"/>
        <pt x="162" y="483" on="1"/>
        <pt x="116" y="427" on="0"/>
        <pt x="116" y="344" on="1"/>
      </contour>
    </TTGlyph>
    <TTGlyph name="dvB_DH_VA" xMin="-32" yMin="0" xMax="1609" yMax="749">
      <contour>
        <pt x="1609" y="740" on="1"/>
        <pt x="1609" y="705" on="1"/>
        <pt x="1458" y="705" on="1"/>
        <pt x="1458" y="0" on="1"/>
        <pt x="1418" y="0" on="1"/>
        <pt x="1418" y="244" on="1"/>
        <pt x="1395" y="187" on="0"/>
        <pt x="1288" y="115" on="0"/>
        <pt x="1210" y="115" on="1"/>
        <pt x="1127" y="115" on="0"/>
        <pt x="1008" y="200" on="0"/>
        <pt x="987" y="276" on="1"/>
        <pt x="963" y="194" on="0"/>
        <pt x="841" y="109" on="0"/>
        <pt x="745" y="109" on="1"/>
        <pt x="663" y="109" on="0"/>
        <pt x="550" y="172" on="0"/>
        <pt x="533" y="231" on="1"/>
        <pt x="504" y="175" on="0"/>
        <pt x="397" y="110" on="0"/>
        <pt x="325" y="110" on="1"/>
        <pt x="258" y="110" on="0"/>
        <pt x="146" y="166" on="0"/>
        <pt x="80" y="272" on="0"/>
        <pt x="80" y="344" on="1"/>
        <pt x="80" y="417" on="0"/>
        <pt x="144" y="526" on="0"/>
        <pt x="254" y="585" on="0"/>
        <pt x="322" y="585" on="1"/>
        <pt x="363" y="585" on="0"/>
        <pt x="399" y="574" on="1"/>
        <pt x="399" y="543" on="1"/>
        <pt x="364" y="554" on="0"/>
        <pt x="324" y="554" on="1"/>
        <pt x="282" y="554" on="0"/>
        <pt x="206" y="526" on="0"/>
        <pt x="178" y="500" on="1"/>
        <pt x="486" y="213" on="1"/>
        <pt x="520" y="256" on="0"/>
        <pt x="528" y="310" on="1"/>
        <pt x="529" y="310" on="1"/>
        <pt x="538" y="359" on="0"/>
        <pt x="608" y="420" on="0"/>
        <pt x="652" y="425" on="1"/>
        <pt x="652" y="428" on="1"/>
        <pt x="596" y="439" on="0"/>
        <pt x="520" y="522" on="0"/>
        <pt x="520" y="591" on="1"/>
        <pt x="520" y="662" on="0"/>
        <pt x="565" y="705" on="1"/>
        <pt x="-32" y="705" on="1"/>
        <pt x="-32" y="740" on="1"/>
        <pt x="623" y="740" on="1"/>
        <pt x="650" y="749" on="0"/>
        <pt x="681" y="749" on="1"/>
        <pt x="754" y="749" on="0"/>
        <pt x="839" y="664" on="0"/>
        <pt x="839" y="597" on="1"/>
        <pt x="839" y="579" on="0"/>
        <pt x="838" y="567" on="1"/>
        <pt x="804" y="567" on="1"/>
        <pt x="805" y="594" on="1"/>
        <pt x="805" y="645" on="0"/>
        <pt x="740" y="714" on="0"/>
        <pt x="682" y="714" on="1"/>
        <pt x="624" y="714" on="0"/>
        <pt x="557" y="642" on="0"/>
        <pt x="557" y="587" on="1"/>
        <pt x="557" y="522" on="0"/>
        <pt x="644" y="445" on="0"/>
        <pt x="724" y="445" on="1"/>
        <pt x="779" y="445" on="1"/>
        <pt x="779" y="411" on="1"/>
        <pt x="725" y="411" on="1"/>
        <pt x="647" y="411" on="0"/>
        <pt x="567" y="340" on="0"/>
        <pt x="567" y="283" on="1"/>
        <pt x="567" y="215" on="0"/>
        <pt x="670" y="145" on="0"/>
        <pt x="750" y="145" on="1"/>
        <pt x="953" y="145" on="0"/>
        <pt x="977" y="353" on="1"/>
        <pt x="978" y="362" on="1"/>
        <pt x="981" y="427" on="0"/>
        <pt x="1044" y="526" on="0"/>
        <pt x="1147" y="579" on="0"/>
        <pt x="1210" y="579" on="1"/>
        <pt x="1289" y="579" on="0"/>
        <pt x="1395" y="507" on="0"/>
        <pt x="1418" y="449" on="1"/>
        <pt x="1418" y="705" on="1"/>
        <pt x="971" y="705" on="1"/>
        <pt x="971" y="740" on="1"/>
      </contour>
      <contour>
        <pt x="1284" y="149" on="0"/>
        <pt x="1375" y="208" on="0"/>
        <pt x="1418" y="298" on="0"/>
        <pt x="1418" y="345" on="1"/>
        <pt x="1418" y="346" on="1"/>
        <pt x="1418" y="396" on="0"/>
        <pt x="1375" y="487" on="0"/>
        <pt x="1285" y="545" on="0"/>
        <pt x="1217" y="545" on="1"/>
        <pt x="1162" y="545" on="0"/>
        <pt x="1071" y="497" on="0"/>
        <pt x="1018" y="408" on="0"/>
        <pt x="1018" y="349" on="1"/>
        <pt x="1018" y="287" on="0"/>
        <pt x="1070" y="197" on="0"/>
        <pt x="1161" y="149" on="0"/>
        <pt x="1217" y="149" on="1"/>
      </contour>
      <contour>
        <pt x="116" y="282" on="0"/>
        <pt x="173" y="190" on="0"/>
        <pt x="270" y="141" on="0"/>
        <pt x="327" y="141" on="1"/>
        <pt x="415" y="141" on="0"/>
        <pt x="470" y="196" on="1"/>
        <pt x="162" y="483" on="1"/>
        <pt x="116" y="427" on="0"/>
        <pt x="116" y="344" on="1"/>
      </contour>
    </TTGlyph>
    <TTGlyph name="dvB_JA" xMin="-32" yMin="0" xMax="1299" yMax="740">
      <contour>
        <pt x="1299" y="705" on="1"/>
        <pt x="1148" y="705" on="1"/>
        <pt x="1148" y="0" on="1"/>
        <pt x="1108" y="0" on="1"/>
        <pt x="1108" y="470" on="1"/>
        <pt x="874" y="470" on="1"/>
        <pt x="874" y="337" on="1"/>
        <pt x="874" y="253" on="0"/>
        <pt x="781" y="149" on="0"/>
        <pt x="699" y="149" on="1"/>
        <pt x="643" y="149" on="0"/>
        <pt x="566" y="203" on="0"/>
        <pt x="548" y="251" on="1"/>
        <pt x="521" y="188" on="0"/>
        <pt x="405" y="110" on="0"/>
        <pt x="325" y="110" on="1"/>
        <pt x="257" y="110" on="0"/>
        <pt x="145" y="168" on="0"/>
        <pt x="80" y="274" on="0"/>
        <pt x="80" y="345" on="1"/>
        <pt x="80" y="417" on="0"/>
        <pt x="143" y="526" on="0"/>
        <pt x="254" y="585" on="0"/>
        <pt x="323" y="585" on="1"/>
        <pt x="402" y="585" on="0"/>
        <pt x="513" y="514" on="0"/>
        <pt x="567" y="404" on="0"/>
        <pt x="567" y="347" on="1"/>
        <pt x="567" y="337" on="1"/>
        <pt x="567" y="336" on="1"/>
        <pt x="567" y="269" on="0"/>
        <pt x="638" y="185" on="0"/>
        <pt x="699" y="185" on="1"/>
        <pt x="761" y="185" on="0"/>
        <pt x="835" y="269" on="0"/>
        <pt x="835" y="337" on="1"/>
        <pt x="835" y="506" on="1"/>
        <pt x="1108" y="506" on="1"/>
        <pt x="1108" y="705" on="1"/>
        <pt x="-32" y="705" on="1"/>
        <pt x="-32" y="740" on="1"/>
        <pt x="1299" y="740" on="1"/>
      </contour>
      <contour>
        <pt x="508" y="242" on="0"/>
        <pt x="531" y="312" on="0"/>
        <pt x="531" y="346" on="1"/>
        <pt x="531" y="398" on="0"/>
        <pt x="485" y="493" on="0"/>
        <pt x="391" y="554" on="0"/>
        <pt x="324" y="554" on="1"/>
        <pt x="282" y="554" on="0"/>
        <pt x="208" y="526" on="0"/>
        <pt x="179" y="500" on="1"/>
        <pt x="486" y="214" on="1"/>
      </contour>
      <contour>
        <pt x="116" y="282" on="0"/>
        <pt x="173" y="190" on="0"/>
        <pt x="269" y="141" on="0"/>
        <pt x="326" y="141" on="1"/>
        <pt x="415" y="141" on="0"/>
        <pt x="470" y="196" on="1"/>
        <pt x="163" y="482" on="1"/>
        <pt x="116" y="425" on="0"/>
        <pt x="116" y="344" on="1"/>
      </contour>
    </TTGlyph>
    <TTGlyph name="dvB_JHA" xMin="-32" yMin="-73" xMax="1315" yMax="740">
      <contour>
        <pt x="1315" y="705" on="1"/>
        <pt x="1164" y="705" on="1"/>
        <pt x="1164" y="0" on="1"/>
        <pt x="1123" y="0" on="1"/>
        <pt x="1123" y="285" on="1"/>
        <pt x="882" y="286" on="1"/>
        <pt x="921" y="268" on="0"/>
        <pt x="966" y="200" on="0"/>
        <pt x="966" y="148" on="1"/>
        <pt x="966" y="83" on="0"/>
        <pt x="876" y="-2" on="0"/>
        <pt x="790" y="-2" on="1"/>
        <pt x="730" y="-2" on="0"/>
        <pt x="646" y="36" on="0"/>
        <pt x="603" y="84" on="0"/>
        <pt x="595" y="103" on="1"/>
        <pt x="595" y="-73" on="1"/>
        <pt x="557" y="-73" on="1"/>
        <pt x="557" y="172" on="1"/>
        <pt x="592" y="172" on="1"/>
        <pt x="602" y="111" on="0"/>
        <pt x="699" y="30" on="0"/>
        <pt x="782" y="30" on="1"/>
        <pt x="855" y="30" on="0"/>
        <pt x="928" y="99" on="0"/>
        <pt x="928" y="151" on="1"/>
        <pt x="928" y="215" on="0"/>
        <pt x="839" y="286" on="0"/>
        <pt x="757" y="286" on="1"/>
        <pt x="698" y="286" on="1"/>
        <pt x="654" y="286" on="0"/>
        <pt x="580" y="313" on="0"/>
        <pt x="558" y="339" on="1"/>
        <pt x="549" y="239" on="0"/>
        <pt x="429" y="110" on="0"/>
        <pt x="325" y="110" on="1"/>
        <pt x="257" y="110" on="0"/>
        <pt x="145" y="168" on="0"/>
        <pt x="80" y="274" on="0"/>
        <pt x="80" y="345" on="1"/>
        <pt x="80" y="417" on="0"/>
        <pt x="143" y="526" on="0"/>
        <pt x="254" y="585" on="0"/>
        <pt x="323" y="585" on="1"/>
        <pt x="370" y="585" on="0"/>
        <pt x="410" y="571" on="1"/>
        <pt x="410" y="539" on="1"/>
        <pt x="367" y="554" on="0"/>
        <pt x="324" y="554" on="1"/>
        <pt x="282" y="554" on="0"/>
        <pt x="207" y="526" on="0"/>
        <pt x="179" y="500" on="1"/>
        <pt x="484" y="216" on="1"/>
        <pt x="507" y="248" on="0"/>
        <pt x="530" y="330" on="0"/>
        <pt x="530" y="371" on="1"/>
        <pt x="530" y="421" on="1"/>
        <pt x="530" y="494" on="0"/>
        <pt x="635" y="558" on="0"/>
        <pt x="712" y="558" on="1"/>
        <pt x="865" y="558" on="1"/>
        <pt x="865" y="705" on="1"/>
        <pt x="-32" y="705" on="1"/>
        <pt x="-32" y="740" on="1"/>
        <pt x="1315" y="740" on="1"/>
      </contour>
      <contour>
        <pt x="1123" y="317" on="1"/>
        <pt x="1123" y="705" on="1"/>
        <pt x="904" y="705" on="1"/>
        <pt x="904" y="526" on="1"/>
        <pt x="725" y="526" on="1"/>
        <pt x="660" y="526" on="0"/>
        <pt x="570" y="480" on="0"/>
        <pt x="570" y="420" on="1"/>
        <pt x="570" y="367" on="0"/>
        <pt x="647" y="317" on="0"/>
        <pt x="706" y="317" on="1"/>
        <pt x="763" y="317" on="1"/>
      </contour>
      <contour>
        <pt x="414" y="141" on="0"/>
        <pt x="468" y="198" on="1"/>
        <pt x="162" y="483" on="1"/>
        <pt x="116" y="427" on="0"/>
        <pt x="116" y="344" on="1"/>
        <pt x="116" y="282" on="0"/>
        <pt x="173" y="190" on="0"/>
        <pt x="269" y="141" on="0"/>
        <pt x="326" y="141" on="1"/>
      </contour>
    </TTGlyph>
    <TTGlyph name="dvB_J_YA" xMin="-32" yMin="0" xMax="1757" yMax="740">
      <contour>
        <pt x="1757" y="705" on="1"/>
        <pt x="1606" y="705" on="1"/>
        <pt x="1606" y="0" on="1"/>
        <pt x="1565" y="0" on="1"/>
        <pt x="1565" y="260" on="1"/>
        <pt x="1540" y="204" on="0"/>
        <pt x="1422" y="129" on="0"/>
        <pt x="1336" y="129" on="1"/>
        <pt x="1212" y="129" on="0"/>
        <pt x="1075" y="292" on="0"/>
        <pt x="1075" y="432" on="1"/>
        <pt x="1075" y="438" on="1"/>
        <pt x="874" y="438" on="1"/>
        <pt x="874" y="337" on="1"/>
        <pt x="874" y="253" on="0"/>
        <pt x="781" y="149" on="0"/>
        <pt x="699" y="149" on="1"/>
        <pt x="643" y="149" on="0"/>
        <pt x="566" y="203" on="0"/>
        <pt x="548" y="251" on="1"/>
        <pt x="521" y="188" on="0"/>
        <pt x="405" y="110" on="0"/>
        <pt x="325" y="110" on="1"/>
        <pt x="257" y="110" on="0"/>
        <pt x="145" y="168" on="0"/>
        <pt x="80" y="274" on="0"/>
        <pt x="80" y="345" on="1"/>
        <pt x="80" y="417" on="0"/>
        <pt x="143" y="526" on="0"/>
        <pt x="254" y="585" on="0"/>
        <pt x="323" y="585" on="1"/>
        <pt x="402" y="585" on="0"/>
        <pt x="513" y="514" on="0"/>
        <pt x="567" y="404" on="0"/>
        <pt x="567" y="347" on="1"/>
        <pt x="567" y="337" on="1"/>
        <pt x="567" y="336" on="1"/>
        <pt x="567" y="269" on="0"/>
        <pt x="638" y="185" on="0"/>
        <pt x="699" y="185" on="1"/>
        <pt x="761" y="185" on="0"/>
        <pt x="835" y="269" on="0"/>
        <pt x="835" y="337" on="1"/>
        <pt x="835" y="472" on="1"/>
        <pt x="1094" y="472" on="1"/>
        <pt x="1188" y="472" on="0"/>
        <pt x="1292" y="538" on="0"/>
        <pt x="1292" y="623" on="1"/>
        <pt x="1292" y="705" on="1"/>
        <pt x="-32" y="705" on="1"/>
        <pt x="-32" y="740" on="1"/>
        <pt x="1757" y="740" on="1"/>
      </contour>
      <contour>
        <pt x="1565" y="705" on="1"/>
        <pt x="1331" y="705" on="1"/>
        <pt x="1331" y="618" on="1"/>
        <pt x="1331" y="443" on="0"/>
        <pt x="1115" y="441" on="1"/>
        <pt x="1115" y="427" on="1"/>
        <pt x="1115" y="304" on="0"/>
        <pt x="1235" y="164" on="0"/>
        <pt x="1343" y="164" on="1"/>
        <pt x="1403" y="164" on="0"/>
        <pt x="1505" y="215" on="0"/>
        <pt x="1565" y="309" on="0"/>
        <pt x="1565" y="369" on="1"/>
      </contour>
      <contour>
        <pt x="508" y="242" on="0"/>
        <pt x="531" y="312" on="0"/>
        <pt x="531" y="346" on="1"/>
        <pt x="531" y="398" on="0"/>
        <pt x="485" y="493" on="0"/>
        <pt x="391" y="554" on="0"/>
        <pt x="324" y="554" on="1"/>
        <pt x="282" y="554" on="0"/>
        <pt x="208" y="526" on="0"/>
        <pt x="179" y="500" on="1"/>
        <pt x="486" y="214" on="1"/>
      </contour>
      <contour>
        <pt x="116" y="282" on="0"/>
        <pt x="173" y="190" on="0"/>
        <pt x="269" y="141" on="0"/>
        <pt x="326" y="141" on="1"/>
        <pt x="415" y="141" on="0"/>
        <pt x="470" y="196" on="1"/>
        <pt x="163" y="482" on="1"/>
        <pt x="116" y="425" on="0"/>
        <pt x="116" y="344" on="1"/>
      </contour>
    </TTGlyph>
    <TTGlyph name="dvB_JxA" xMin="-32" yMin="-14" xMax="1299" yMax="740">
      <component glyphName="dvB_JA" x="0" y="0" flags="0x0"/>
      <component glyphName="dvNukta" x="1107" y="67" flags="0x4"/>
    </TTGlyph>
    <TTGlyph name="dvB_LA" xMin="-32" yMin="92" xMax="1379" yMax="740">
      <contour>
        <pt x="1102" y="705" on="1"/>
        <pt x="1102" y="553" on="1"/>
        <pt x="1180" y="544" on="0"/>
        <pt x="1267" y="424" on="0"/>
        <pt x="1267" y="331" on="1"/>
        <pt x="1267" y="262" on="0"/>
        <pt x="1216" y="154" on="0"/>
        <pt x="1114" y="92" on="0"/>
        <pt x="1041" y="92" on="1"/>
        <pt x="1031" y="92" on="0"/>
        <pt x="1007" y="94" on="1"/>
        <pt x="1007" y="130" on="1"/>
        <pt x="1029" y="128" on="0"/>
        <pt x="1038" y="128" on="1"/>
        <pt x="1129" y="128" on="0"/>
        <pt x="1226" y="241" on="0"/>
        <pt x="1226" y="331" on="1"/>
        <pt x="1226" y="412" on="0"/>
        <pt x="1147" y="518" on="0"/>
        <pt x="1074" y="518" on="1"/>
        <pt x="997" y="518" on="0"/>
        <pt x="915" y="400" on="0"/>
        <pt x="915" y="297" on="1"/>
        <pt x="915" y="286" on="1"/>
        <pt x="880" y="286" on="1"/>
        <pt x="880" y="297" on="1"/>
        <pt x="880" y="398" on="0"/>
        <pt x="802" y="518" on="0"/>
        <pt x="729" y="518" on="1"/>
        <pt x="652" y="518" on="0"/>
        <pt x="569" y="414" on="0"/>
        <pt x="569" y="331" on="1"/>
        <pt x="569" y="241" on="0"/>
        <pt x="667" y="128" on="0"/>
        <pt x="758" y="128" on="1"/>
        <pt x="766" y="128" on="0"/>
        <pt x="788" y="130" on="1"/>
        <pt x="788" y="94" on="1"/>
        <pt x="764" y="92" on="0"/>
        <pt x="755" y="92" on="1"/>
        <pt x="672" y="92" on="0"/>
        <pt x="564" y="174" on="0"/>
        <pt x="544" y="244" on="1"/>
        <pt x="517" y="183" on="0"/>
        <pt x="403" y="110" on="0"/>
        <pt x="325" y="110" on="1"/>
        <pt x="257" y="110" on="0"/>
        <pt x="145" y="168" on="0"/>
        <pt x="80" y="274" on="0"/>
        <pt x="80" y="345" on="1"/>
        <pt x="80" y="417" on="0"/>
        <pt x="143" y="526" on="0"/>
        <pt x="254" y="585" on="0"/>
        <pt x="323" y="585" on="1"/>
        <pt x="410" y="585" on="0"/>
        <pt x="524" y="500" on="0"/>
        <pt x="549" y="434" on="1"/>
        <pt x="570" y="491" on="0"/>
        <pt x="661" y="554" on="0"/>
        <pt x="725" y="554" on="1"/>
        <pt x="801" y="554" on="0"/>
        <pt x="885" y="457" on="0"/>
        <pt x="897" y="391" on="1"/>
        <pt x="899" y="391" on="1"/>
        <pt x="911" y="454" on="0"/>
        <pt x="989" y="548" on="0"/>
        <pt x="1061" y="553" on="1"/>
        <pt x="1061" y="705" on="1"/>
        <pt x="-32" y="705" on="1"/>
        <pt x="-32" y="740" on="1"/>
        <pt x="1379" y="740" on="1"/>
        <pt x="1379" y="705" on="1"/>
      </contour>
      <contour>
        <pt x="508" y="242" on="0"/>
        <pt x="531" y="312" on="0"/>
        <pt x="531" y="346" on="1"/>
        <pt x="531" y="398" on="0"/>
        <pt x="485" y="493" on="0"/>
        <pt x="391" y="554" on="0"/>
        <pt x="324" y="554" on="1"/>
        <pt x="282" y="554" on="0"/>
        <pt x="208" y="526" on="0"/>
        <pt x="179" y="500" on="1"/>
        <pt x="486" y="214" on="1"/>
      </contour>
      <contour>
        <pt x="116" y="282" on="0"/>
        <pt x="173" y="190" on="0"/>
        <pt x="269" y="141" on="0"/>
        <pt x="326" y="141" on="1"/>
        <pt x="415" y="141" on="0"/>
        <pt x="470" y="196" on="1"/>
        <pt x="163" y="482" on="1"/>
        <pt x="116" y="425" on="0"/>
        <pt x="116" y="344" on="1"/>
      </contour>
    </TTGlyph>
    <TTGlyph name="dvB_L_YA" xMin="-32" yMin="0" xMax="1900" yMax="740">
      <contour>
        <pt x="1900" y="705" on="1"/>
        <pt x="1748" y="705" on="1"/>
        <pt x="1748" y="0" on="1"/>
        <pt x="1708" y="0" on="1"/>
        <pt x="1708" y="260" on="1"/>
        <pt x="1683" y="204" on="0"/>
        <pt x="1565" y="129" on="0"/>
        <pt x="1479" y="129" on="1"/>
        <pt x="1355" y="129" on="0"/>
        <pt x="1218" y="271" on="0"/>
        <pt x="1218" y="393" on="1"/>
        <pt x="1218" y="406" on="1"/>
        <pt x="1212" y="448" on="0"/>
        <pt x="1140" y="518" on="0"/>
        <pt x="1079" y="518" on="1"/>
        <pt x="999" y="518" on="0"/>
        <pt x="915" y="401" on="0"/>
        <pt x="915" y="297" on="1"/>
        <pt x="915" y="286" on="1"/>
        <pt x="880" y="286" on="1"/>
        <pt x="880" y="297" on="1"/>
        <pt x="880" y="398" on="0"/>
        <pt x="802" y="518" on="0"/>
        <pt x="729" y="518" on="1"/>
        <pt x="652" y="518" on="0"/>
        <pt x="569" y="414" on="0"/>
        <pt x="569" y="331" on="1"/>
        <pt x="569" y="241" on="0"/>
        <pt x="667" y="128" on="0"/>
        <pt x="758" y="128" on="1"/>
        <pt x="766" y="128" on="0"/>
        <pt x="788" y="130" on="1"/>
        <pt x="788" y="94" on="1"/>
        <pt x="764" y="92" on="0"/>
        <pt x="755" y="92" on="1"/>
        <pt x="672" y="92" on="0"/>
        <pt x="564" y="174" on="0"/>
        <pt x="544" y="244" on="1"/>
        <pt x="517" y="183" on="0"/>
        <pt x="403" y="110" on="0"/>
        <pt x="325" y="110" on="1"/>
        <pt x="257" y="110" on="0"/>
        <pt x="145" y="168" on="0"/>
        <pt x="80" y="274" on="0"/>
        <pt x="80" y="345" on="1"/>
        <pt x="80" y="417" on="0"/>
        <pt x="143" y="526" on="0"/>
        <pt x="254" y="585" on="0"/>
        <pt x="323" y="585" on="1"/>
        <pt x="410" y="585" on="0"/>
        <pt x="524" y="500" on="0"/>
        <pt x="549" y="434" on="1"/>
        <pt x="570" y="491" on="0"/>
        <pt x="661" y="554" on="0"/>
        <pt x="725" y="554" on="1"/>
        <pt x="801" y="554" on="0"/>
        <pt x="885" y="457" on="0"/>
        <pt x="897" y="391" on="1"/>
        <pt x="899" y="391" on="1"/>
        <pt x="911" y="458" on="0"/>
        <pt x="1000" y="554" on="0"/>
        <pt x="1083" y="554" on="1"/>
        <pt x="1148" y="554" on="0"/>
        <pt x="1234" y="483" on="0"/>
        <pt x="1248" y="432" on="1"/>
        <pt x="1337" y="434" on="0"/>
        <pt x="1434" y="511" on="0"/>
        <pt x="1434" y="605" on="1"/>
        <pt x="1434" y="705" on="1"/>
        <pt x="-32" y="705" on="1"/>
        <pt x="-32" y="740" on="1"/>
        <pt x="1900" y="740" on="1"/>
      </contour>
      <contour>
        <pt x="1708" y="705" on="1"/>
        <pt x="1474" y="705" on="1"/>
        <pt x="1474" y="601" on="1"/>
        <pt x="1474" y="496" on="0"/>
        <pt x="1362" y="406" on="0"/>
        <pt x="1258" y="405" on="1"/>
        <pt x="1257" y="399" on="0"/>
        <pt x="1257" y="390" on="1"/>
        <pt x="1257" y="285" on="0"/>
        <pt x="1378" y="164" on="0"/>
        <pt x="1486" y="164" on="1"/>
        <pt x="1546" y="164" on="0"/>
        <pt x="1648" y="215" on="0"/>
        <pt x="1708" y="309" on="0"/>
        <pt x="1708" y="369" on="1"/>
      </contour>
      <contour>
        <pt x="508" y="242" on="0"/>
        <pt x="531" y="312" on="0"/>
        <pt x="531" y="346" on="1"/>
        <pt x="531" y="398" on="0"/>
        <pt x="485" y="493" on="0"/>
        <pt x="391" y="554" on="0"/>
        <pt x="324" y="554" on="1"/>
        <pt x="282" y="554" on="0"/>
        <pt x="208" y="526" on="0"/>
        <pt x="179" y="500" on="1"/>
        <pt x="486" y="214" on="1"/>
      </contour>
      <contour>
        <pt x="116" y="282" on="0"/>
        <pt x="173" y="190" on="0"/>
        <pt x="269" y="141" on="0"/>
        <pt x="326" y="141" on="1"/>
        <pt x="415" y="141" on="0"/>
        <pt x="470" y="196" on="1"/>
        <pt x="163" y="482" on="1"/>
        <pt x="116" y="425" on="0"/>
        <pt x="116" y="344" on="1"/>
      </contour>
    </TTGlyph>
    <TTGlyph name="dvB_NA" xMin="-32" yMin="0" xMax="1263" yMax="740">
      <contour>
        <pt x="1263" y="705" on="1"/>
        <pt x="1112" y="705" on="1"/>
        <pt x="1112" y="0" on="1"/>
        <pt x="1072" y="0" on="1"/>
        <pt x="1072" y="474" on="1"/>
        <pt x="825" y="474" on="1"/>
        <pt x="861" y="453" on="0"/>
        <pt x="907" y="375" on="0"/>
        <pt x="907" y="324" on="1"/>
        <pt x="907" y="271" on="0"/>
        <pt x="860" y="190" on="0"/>
        <pt x="776" y="145" on="0"/>
        <pt x="722" y="145" on="1"/>
        <pt x="660" y="145" on="0"/>
        <pt x="567" y="202" on="0"/>
        <pt x="546" y="251" on="1"/>
        <pt x="520" y="187" on="0"/>
        <pt x="406" y="110" on="0"/>
        <pt x="325" y="110" on="1"/>
        <pt x="257" y="110" on="0"/>
        <pt x="145" y="168" on="0"/>
        <pt x="80" y="274" on="0"/>
        <pt x="80" y="345" on="1"/>
        <pt x="80" y="417" on="0"/>
        <pt x="143" y="526" on="0"/>
        <pt x="254" y="585" on="0"/>
        <pt x="323" y="585" on="1"/>
        <pt x="416" y="585" on="0"/>
        <pt x="533" y="490" on="0"/>
        <pt x="554" y="419" on="1"/>
        <pt x="578" y="462" on="0"/>
        <pt x="668" y="509" on="0"/>
        <pt x="726" y="509" on="1"/>
        <pt x="1072" y="509" on="1"/>
        <pt x="1072" y="705" on="1"/>
        <pt x="-32" y="705" on="1"/>
        <pt x="-32" y="740" on="1"/>
        <pt x="1263" y="740" on="1"/>
      </contour>
      <contour>
        <pt x="508" y="242" on="0"/>
        <pt x="531" y="312" on="0"/>
        <pt x="531" y="346" on="1"/>
        <pt x="531" y="398" on="0"/>
        <pt x="485" y="493" on="0"/>
        <pt x="391" y="554" on="0"/>
        <pt x="324" y="554" on="1"/>
        <pt x="282" y="554" on="0"/>
        <pt x="208" y="526" on="0"/>
        <pt x="179" y="500" on="1"/>
        <pt x="486" y="214" on="1"/>
      </contour>
      <contour>
        <pt x="116" y="282" on="0"/>
        <pt x="173" y="190" on="0"/>
        <pt x="269" y="141" on="0"/>
        <pt x="326" y="141" on="1"/>
        <pt x="415" y="141" on="0"/>
        <pt x="470" y="196" on="1"/>
        <pt x="163" y="482" on="1"/>
        <pt x="116" y="425" on="0"/>
        <pt x="116" y="344" on="1"/>
      </contour>
      <contour>
        <pt x="873" y="391" on="0"/>
        <pt x="788" y="473" on="0"/>
        <pt x="723" y="473" on="1"/>
        <pt x="655" y="473" on="0"/>
        <pt x="569" y="391" on="0"/>
        <pt x="569" y="325" on="1"/>
        <pt x="569" y="261" on="0"/>
        <pt x="654" y="180" on="0"/>
        <pt x="723" y="180" on="1"/>
        <pt x="788" y="180" on="0"/>
        <pt x="873" y="263" on="0"/>
        <pt x="873" y="327" on="1"/>
      </contour>
    </TTGlyph>
    <TTGlyph name="dvB_R" xMin="-32" yMin="-49" xMax="566" yMax="740">
      <contour>
        <pt x="566" y="740" on="1"/>
        <pt x="566" y="705" on="1"/>
        <pt x="-32" y="705" on="1"/>
        <pt x="-32" y="740" on="1"/>
      </contour>
      <contour>
        <pt x="402" y="585" on="0"/>
        <pt x="512" y="514" on="0"/>
        <pt x="565" y="405" on="0"/>
        <pt x="565" y="347" on="1"/>
        <pt x="565" y="292" on="0"/>
        <pt x="521" y="196" on="0"/>
        <pt x="481" y="162" on="1"/>
        <pt x="253" y="-49" on="1"/>
        <pt x="207" y="-49" on="1"/>
        <pt x="392" y="118" on="1"/>
        <pt x="358" y="110" on="0"/>
        <pt x="325" y="110" on="1"/>
        <pt x="257" y="110" on="0"/>
        <pt x="145" y="168" on="0"/>
        <pt x="80" y="274" on="0"/>
        <pt x="80" y="345" on="1"/>
        <pt x="80" y="417" on="0"/>
        <pt x="143" y="526" on="0"/>
        <pt x="254" y="585" on="0"/>
        <pt x="323" y="585" on="1"/>
      </contour>
      <contour>
        <pt x="508" y="242" on="0"/>
        <pt x="531" y="312" on="0"/>
        <pt x="531" y="346" on="1"/>
        <pt x="531" y="398" on="0"/>
        <pt x="485" y="493" on="0"/>
        <pt x="391" y="554" on="0"/>
        <pt x="324" y="554" on="1"/>
        <pt x="282" y="554" on="0"/>
        <pt x="208" y="526" on="0"/>
        <pt x="179" y="500" on="1"/>
        <pt x="486" y="214" on="1"/>
      </contour>
      <contour>
        <pt x="116" y="282" on="0"/>
        <pt x="173" y="190" on="0"/>
        <pt x="269" y="141" on="0"/>
        <pt x="326" y="141" on="1"/>
        <pt x="415" y="141" on="0"/>
        <pt x="470" y="196" on="1"/>
        <pt x="163" y="482" on="1"/>
        <pt x="116" y="425" on="0"/>
        <pt x="116" y="344" on="1"/>
      </contour>
    </TTGlyph>
</ttFont>
